<?xml version="1.0" encoding="utf-8"?>
<!-- Generator: Adobe Illustrator 25.0.0, SVG Export Plug-In . SVG Version: 6.00 Build 0)  -->
<svg version="1.1" id="Calque_1" xmlns="http://www.w3.org/2000/svg" xmlns:xlink="http://www.w3.org/1999/xlink" x="0px" y="0px"
	 viewBox="0 0 919.1 834.4" style="enable-background:new 0 0 919.1 834.4;" xml:space="preserve">
<style type="text/css">
	.st0{display:none;}
	.st1{display:inline;fill:#020202;stroke:#000000;stroke-miterlimit:10;}
	.st2{display:inline;}
	.st3{fill:#FFFFFF;}
	.st4{fill-rule:evenodd;clip-rule:evenodd;fill:#FCFCFC;}
	.st5{opacity:0.2228;clip-path:url(#SVGID_2_);fill-rule:evenodd;clip-rule:evenodd;}
	.st6{fill-rule:evenodd;clip-rule:evenodd;fill:#5E5E5E;}
	.st7{opacity:0.2228;clip-path:url(#SVGID_4_);fill-rule:evenodd;clip-rule:evenodd;}
	.st8{fill-rule:evenodd;clip-rule:evenodd;fill:#51504F;}
	.st9{opacity:0.2228;clip-path:url(#SVGID_6_);fill-rule:evenodd;clip-rule:evenodd;}
</style>
<g id="Calque_2_1_" class="st0">
	<rect x="-3.4" y="6.4" class="st1" width="918.1" height="833.4"/>
</g>
<g id="_2" class="st0">
	<g id="SVGRepo_iconCarrier" class="st2">
		<path class="st3" d="M528.8,212c3.5-9.4,6.4-19,8.6-28.8l-66.8-60.8c-1.3,10.4-3.5,20.6-6.7,30.5L528.8,212z"/>
		<path class="st3" d="M507,256.2c4.9-7.9,9.3-16.1,13.3-24.5l-64.3-58.5c-3.8,8.6-8,16.9-12.8,25L507,256.2z"/>
		<path class="st3" d="M321.5,306.8c-9.8,4-20,7.1-30.4,9l67.2,61.1c9.7-2.9,19.2-6.5,28.4-10.8L321.5,306.8z"/>
		<path class="st3" d="M405.7,356.1c8.1-4.7,15.9-9.8,23.4-15.3l-63.8-58.1c-7.7,5.4-15.7,10.4-24,14.8L405.7,356.1z"/>
		<path class="st3" d="M249.3,97.1c-71.8,78.8-89.6,179.4-40,224.6l44,40.1c20.4,18.6,49,24.9,80.7,20.5l-71.5-65
			c-14-1.4-26.2-6.2-35.7-14.8c-38.3-34.9-19.2-120.8,41.7-187.7s144.7-93.9,183-59c10.6,9.6,16.8,23.3,19,39.3l70.3,64
			c2.4-33.6-6.4-63.2-27.7-82.6l-44-40.1C419.5-8.9,321.1,18.3,249.3,97.1z"/>
		<path class="st3" d="M445.3,328c6.8-5.7,13.4-11.9,19.9-18.5l-63.4-57.6c-6.5,6.6-13.2,12.7-20,18.4L445.3,328z"/>
		<path class="st3" d="M478.9,294.6c6-7,11.6-14.1,16.8-21.4l-63.5-57.8c-5.2,7.4-10.7,14.6-16.6,21.5L478.9,294.6z"/>
		<path class="st3" d="M295,805.2c7.9,2.8,16,5,24.3,6.6l49.7-57.2c-8.7-0.9-17.3-2.6-25.6-5.1L295,805.2z"/>
		<path class="st3" d="M257.5,787.8c6.7,3.9,13.6,7.5,20.8,10.7l47.8-55c-7.3-3-14.3-6.4-21.2-10.2L257.5,787.8z"/>
		<path class="st3" d="M211.4,633.3c-3.5-8.1-6.2-16.6-8.1-25.3l-49.9,57.5c2.6,8.1,5.8,15.9,9.6,23.6L211.4,633.3z"/>
		<path class="st3" d="M171.7,704.9c4.1,6.7,8.6,13.1,13.3,19.3l47.4-54.6c-4.7-6.3-9-13-12.9-19.8L171.7,704.9z"/>
		<path class="st3" d="M385.7,568.7c-67.5-58.6-152-71.6-189-29l-32.7,37.6c-15.2,17.5-20,41.6-15.6,68l53.1-61.2
			c0.9-11.8,4.7-22.1,11.7-30.2c28.5-32.8,100.9-18.5,158.1,31.2s81.5,119.4,53,152.2c-7.9,9.1-19.2,14.5-32.6,16.6l-52.3,60.2
			c28.2,1.4,52.8-6.6,68.7-24.8l32.7-37.7C477.9,709.3,453.2,627.3,385.7,568.7z"/>
		<path class="st3" d="M196,737.5c5,5.6,10.3,11,15.9,16.3l47.1-54.2c-5.6-5.3-10.9-10.8-15.8-16.5L196,737.5z"/>
		<path class="st3" d="M224.7,765c6,4.9,12.1,9.5,18.2,13.7l47.2-54.3c-6.3-4.2-12.5-8.7-18.3-13.5L224.7,765z"/>
		<path class="st3" d="M670.2,661.4c10,2.6,20.2,4.5,30.4,5.6l55-75c-10.7-0.2-21.4-1.4-31.9-3.6L670.2,661.4z"/>
		<path class="st3" d="M622.6,643.9c8.6,4.2,17.5,7.8,26.5,11l52.9-72.1c-9.2-2.9-18.2-6.4-27-10.4L622.6,643.9z"/>
		<path class="st3" d="M550.6,459.7c-5.2-9.6-9.3-19.7-12.5-30.1l-55.2,75.4c4,9.6,8.8,18.9,14.1,27.8L550.6,459.7z"/>
		<path class="st3" d="M509.4,551.2c5.7,7.7,11.8,15.2,18.2,22.3l52.5-71.5c-6.4-7.3-12.3-14.9-17.8-22.9L509.4,551.2z"/>
		<path class="st3" d="M757.3,363c-88.4-64.8-193.2-72.2-234.1-16.4L487,396c-16.8,22.9-20.1,52.9-12.2,84.7l58.7-80.1
			c-0.1-14.5,3.5-27.5,11.3-38.2c31.5-43,121.5-32.8,196.6,22.2s111.8,137.8,80.3,180.8c-8.7,11.9-22,19.7-38.1,23.7L725.7,668
			c34.7-1.1,63.9-13.4,81.5-37.3l36.2-49.4C884.3,525.6,845.8,427.8,757.3,363z"/>
		<path class="st3" d="M542.4,588.6c6.6,6.3,13.7,12.4,21.1,18.3l52.1-71c-7.4-6-14.5-12.2-21-18.5L542.4,588.6z"/>
		<path class="st3" d="M580.2,619.3c7.8,5.4,15.7,10.3,23.7,14.8l52.2-71.2c-8-4.4-16-9.3-23.8-14.7L580.2,619.3z"/>
	</g>
	<g transform="translate(257.89 89.13) scale(0.24)" class="st2">
		
			<image style="overflow:visible;enable-background:new    ;" width="617" height="755" id="image" xlink:href="2A9403C5.png"  transform="matrix(0.24 0 0 0.24 257.89 89.13)">
		</image>
	</g>
	<g transform="translate(731.51 358.63) rotate(66.41) scale(0.24)" class="st2">
		
			<image style="overflow:visible;enable-background:new    ;" width="617" height="755" id="image_2_" xlink:href="2A9403C7.png"  transform="matrix(9.604537e-02 0.2199 -0.2199 9.604537e-02 731.51 358.63)">
		</image>
	</g>
	<g transform="matrix(0.06, 0.23, -0.23, 0.06, 386.28, 539.44)" class="st2">
		
			<image style="overflow:visible;enable-background:new    ;" width="617" height="755" id="image_3_" xlink:href="2A9403C2.png"  transform="matrix(6.000000e-02 0.23 -0.23 6.000000e-02 386.28 539.44)">
		</image>
	</g>
</g>
<g>
	<g>
		<path class="st4" d="M201.5,341c-5.6-62.5,19.3-123.9,66.7-165c47.5-41.1,111.8-56.8,172.9-42.3c0,0,0,0,0,0
			c152.5,36.2,244.4-26.3,244.4-26.3s0.2,2.4,0.6,6.6c5.2,58.8-20.5,116.2-67.9,151.4c-47.4,35.2-109.8,43.2-164.5,21.1c0,0,0,0,0,0
			c-112.9-45.5-250,79.2-250,79.2S202.8,355.9,201.5,341z"/>
		<g>
			<defs>
				<path id="SVGID_1_" d="M201.5,341c-5.6-62.5,19.3-123.9,66.7-165c47.5-41.1,111.8-56.8,172.9-42.3c0,0,0,0,0,0
					c152.5,36.2,244.4-26.3,244.4-26.3s0.2,2.4,0.6,6.6c5.2,58.8-20.5,116.2-67.9,151.4c-47.4,35.2-109.8,43.2-164.5,21.1
					c0,0,0,0,0,0c-112.9-45.5-250,79.2-250,79.2S202.8,355.9,201.5,341z"/>
			</defs>
			<use xlink:href="#SVGID_1_"  style="overflow:visible;fill-rule:evenodd;clip-rule:evenodd;fill:#B5B2B0;"/>
			<clipPath id="SVGID_2_">
				<use xlink:href="#SVGID_1_"  style="overflow:visible;"/>
			</clipPath>
			<path class="st5" d="M204.3,405.7c-6.7-62.9,19.4-124.8,69-163.9c49.7-39.1,116-49.9,175.5-28.7c0,0,0,0,0,0
				C604,268.6,700.8,89.9,700.8,89.9s0.2,43.5,0.4,95c0.2,59.9-29.4,116-78.9,149.6c-49.6,33.6-112.6,40.4-168.2,18l0,0
				c-112.9-45.5-246,87.8-246,87.8S206.5,426.1,204.3,405.7z"/>
		</g>
		<path class="st6" d="M201.5,541.8c-5.6-62.5,19.3-123.9,66.7-165c47.5-41.1,111.8-56.8,172.9-42.3c0,0,0,0,0,0
			c152.5,36.2,244.4-26.3,244.4-26.3s0.2,2.4,0.6,6.6c5.2,58.8-20.5,116.2-67.9,151.4c-47.4,35.2-109.8,43.2-164.5,21.1c0,0,0,0,0,0
			c-112.9-45.5-250,79.2-250,79.2S202.8,556.8,201.5,541.8z"/>
		<g>
			<defs>
				<path id="SVGID_3_" d="M201.5,541.8c-5.6-62.5,19.3-123.9,66.7-165c47.5-41.1,111.8-56.8,172.9-42.3c0,0,0,0,0,0
					c152.5,36.2,244.4-26.3,244.4-26.3s0.2,2.4,0.6,6.6c5.2,58.8-20.5,116.2-67.9,151.4c-47.4,35.2-109.8,43.2-164.5,21.1
					c0,0,0,0,0,0c-112.9-45.5-250,79.2-250,79.2S202.8,556.8,201.5,541.8z"/>
			</defs>
			<clipPath id="SVGID_4_">
				<use xlink:href="#SVGID_3_"  style="overflow:visible;"/>
			</clipPath>
			<path class="st7" d="M204.3,606.5c-6.7-62.9,19.4-124.8,69-163.9c49.7-39.1,116-49.9,175.5-28.7c0,0,0,0,0,0
				C604,469.4,700.8,290.7,700.8,290.7s0.2,43.5,0.4,95c0.2,59.9-29.4,116-78.9,149.6c-49.6,33.6-112.6,40.4-168.2,18l0,0
				C341.1,507.8,208,641,208,641S206.5,626.9,204.3,606.5z"/>
		</g>
		<path class="st8" d="M201.5,742.7c-5.6-62.5,19.3-123.9,66.7-165c47.5-41.1,111.8-56.8,172.9-42.3c0,0,0,0,0,0
			C593.7,571.6,685.6,509,685.6,509s0.2,2.4,0.6,6.6c5.2,58.8-20.5,116.2-67.9,151.4c-47.4,35.2-109.8,43.2-164.5,21.1c0,0,0,0,0,0
			c-112.9-45.5-250,79.2-250,79.2S202.8,757.6,201.5,742.7z"/>
		<g>
			<defs>
				<path id="SVGID_5_" d="M201.5,742.7c-5.6-62.5,19.3-123.9,66.7-165c47.5-41.1,111.8-56.8,172.9-42.3c0,0,0,0,0,0
					C593.7,571.6,685.6,509,685.6,509s0.2,2.4,0.6,6.6c5.2,58.8-20.5,116.2-67.9,151.4c-47.4,35.2-109.8,43.2-164.5,21.1
					c0,0,0,0,0,0c-112.9-45.5-250,79.2-250,79.2S202.8,757.6,201.5,742.7z"/>
			</defs>
			<clipPath id="SVGID_6_">
				<use xlink:href="#SVGID_5_"  style="overflow:visible;"/>
			</clipPath>
			<path class="st9" d="M204.3,807.3c-6.7-62.9,19.4-124.8,69-163.9c49.7-39.1,116-49.9,175.5-28.7c0,0,0,0,0,0
				C604,670.2,700.8,491.5,700.8,491.5s0.2,43.5,0.4,95c0.2,59.9-29.4,116-78.9,149.6c-49.6,33.6-112.6,40.4-168.2,18l0,0
				c-112.9-45.5-246,87.8-246,87.8S206.5,827.7,204.3,807.3z"/>
		</g>
	</g>
</g>
</svg>
