<svg width="48" height="48" viewBox="0 0 48 48" fill="none" xmlns="http://www.w3.org/2000/svg">
<rect width="48" height="48" rx="4" fill="url(#paint0_linear_35_2344)"/>
<path fill-rule="evenodd" clip-rule="evenodd" d="M23.9999 16.9998C23.8672 16.9998 23.7401 17.0525 23.6463 17.1463C23.5525 17.2401 23.4999 17.3672 23.4999 17.4998L23.4999 29.2928L20.3539 26.1458C20.26 26.052 20.1326 25.9992 19.9999 25.9992C19.8671 25.9992 19.7397 26.052 19.6459 26.1458C19.552 26.2397 19.4992 26.3671 19.4992 26.4998C19.4992 26.6326 19.552 26.76 19.6459 26.8538L23.6459 30.8538C23.6923 30.9004 23.7475 30.9373 23.8082 30.9626C23.869 30.9878 23.9341 31.0007 23.9999 31.0007C24.0656 31.0007 24.1307 30.9878 24.1915 30.9626C24.2522 30.9373 24.3074 30.9004 24.3539 30.8538L28.3539 26.8538C28.4003 26.8074 28.4372 26.7522 28.4624 26.6914C28.4875 26.6307 28.5005 26.5656 28.5005 26.4998C28.5005 26.3671 28.4477 26.2397 28.3539 26.1458C28.26 26.052 28.1326 25.9992 27.9999 25.9992C27.8671 25.9992 27.7397 26.052 27.6459 26.1458L24.4999 29.2928L24.4999 17.4998C24.4999 17.3672 24.4472 17.2401 24.3534 17.1463C24.2596 17.0525 24.1325 16.9998 23.9999 16.9998Z" fill="white"/>
<defs>
<linearGradient id="paint0_linear_35_2344" x1="24" y1="0" x2="24" y2="48" gradientUnits="userSpaceOnUse">
<stop stop-color="#0AA7F5"/>
<stop offset="1" stop-color="#3CE7FF"/>
</linearGradient>
</defs>
</svg>
