<svg id="Layer_6" data-name="Layer 6" xmlns="http://www.w3.org/2000/svg" viewBox="0 0 672 503.67"><defs><style>.cls-1{fill:#fff;}</style></defs><g id="Layer_10" data-name="Layer 10"><g id="Layer_9" data-name="Layer 9"><polygon class="cls-1" points="199.15 411.57 477.96 411.57 333.45 313.02 199.15 411.57"/><polygon class="cls-1" points="215.49 232.85 0 144 148.09 398.81 215.49 232.85"/><polygon class="cls-1" points="456.51 232.85 523.91 398.81 672 144 456.51 232.85"/><polygon class="cls-1" points="247.15 161.62 163.4 61.79 163.4 193.02 223.4 212.94 247.15 161.62"/><polygon class="cls-1" points="508.23 193.02 508.23 61.79 424.49 161.62 448.23 212.94 508.23 193.02"/><polygon class="cls-1" points="334.98 285.96 508.08 411.57 334.98 0 163.4 411.57 334.98 285.96"/></g></g><g id="Layer_5" data-name="Layer 5"><path class="cls-1" d="M63.47,447.72a2.09,2.09,0,0,1,2.09-2.09H91.41a24.53,24.53,0,1,1,.11,49.06H77.77v25.85a2.16,2.16,0,0,1-2.09,2.09H65.56a2.09,2.09,0,0,1-2.09-2.09Zm27.06,33.55a11.34,11.34,0,0,0,11.33-11.44c0-6.05-5.17-10.67-11.33-10.67H77.77v22.11Z" transform="translate(-19.4 -18.95)"/><path class="cls-1" d="M139.48,447.72a2.09,2.09,0,0,1,2.09-2.09h44.77a2.09,2.09,0,0,1,2.09,2.09v9a2.09,2.09,0,0,1-2.09,2.09H153.78v18H181A2.16,2.16,0,0,1,183,479v9.13a2.09,2.09,0,0,1-2.09,2.09H153.78v19.25h32.56a2.09,2.09,0,0,1,2.09,2.09v9a2.09,2.09,0,0,1-2.09,2.09H141.57a2.09,2.09,0,0,1-2.09-2.09Z" transform="translate(-19.4 -18.95)"/><path class="cls-1" d="M205,519.77l34.21-74a2,2,0,0,1,1.87-1.21h1.1a1.87,1.87,0,0,1,1.87,1.21l33.88,74a1.94,1.94,0,0,1-1.87,2.86h-9.57c-1.65,0-2.42-.66-3.19-2.2L258,508.55H225.06l-5.39,11.88a3.32,3.32,0,0,1-3.19,2.2h-9.57A1.94,1.94,0,0,1,205,519.77Zm47.52-23.43-11-24.2h-.33l-10.78,24.2Z" transform="translate(-19.4 -18.95)"/><path class="cls-1" d="M298.86,448.27a2.61,2.61,0,0,1,2.65-2.64h9.67a2.68,2.68,0,0,1,2.64,2.64V478l27.72-31.24a2.63,2.63,0,0,1,2.09-1.1h11a2.34,2.34,0,0,1,1.76,4l-28.71,32.34,30.81,36.85a2.42,2.42,0,0,1-2,3.85h-12a2.39,2.39,0,0,1-2-.77l-28.71-35.42V520a2.68,2.68,0,0,1-2.64,2.64h-9.67a2.61,2.61,0,0,1-2.65-2.64Z" transform="translate(-19.4 -18.95)"/><path class="cls-1" d="M381.48,447.72a2.07,2.07,0,0,1,2-2.09h26.07a38.5,38.5,0,1,1,0,77H383.46a2.07,2.07,0,0,1-2-2.09Zm26.73,61.49c14.3,0,24.75-10.78,24.75-25.19s-10.45-25.08-24.75-25.08H395.67v50.27Z" transform="translate(-19.4 -18.95)"/><path class="cls-1" d="M473.54,447.72a2.09,2.09,0,0,1,2.09-2.09H520.4a2.09,2.09,0,0,1,2.09,2.09v9a2.09,2.09,0,0,1-2.09,2.09H487.84v18H515A2.16,2.16,0,0,1,517.1,479v9.13a2.09,2.09,0,0,1-2.09,2.09H487.84v19.25H520.4a2.09,2.09,0,0,1,2.09,2.09v9a2.09,2.09,0,0,1-2.09,2.09H475.63a2.09,2.09,0,0,1-2.09-2.09Z" transform="translate(-19.4 -18.95)"/><path class="cls-1" d="M549.11,447.72a2.09,2.09,0,0,1,2.09-2.09H596a2.09,2.09,0,0,1,2.09,2.09v9a2.09,2.09,0,0,1-2.09,2.09H563.41v20.68h27.17a2.16,2.16,0,0,1,2.09,2.09v9a2.16,2.16,0,0,1-2.09,2.09H563.41v27.83a2.16,2.16,0,0,1-2.09,2.09H551.2a2.09,2.09,0,0,1-2.09-2.09Z" transform="translate(-19.4 -18.95)"/><path class="cls-1" d="M622,447.72a2.16,2.16,0,0,1,2.09-2.09h10.23a2.16,2.16,0,0,1,2.09,2.09v72.82a2.16,2.16,0,0,1-2.09,2.09H624.13a2.16,2.16,0,0,1-2.09-2.09Z" transform="translate(-19.4 -18.95)"/></g></svg>