<?xml version="1.0" encoding="utf-8"?>
<!-- Generator: Adobe Illustrator 25.0.0, SVG Export Plug-In . SVG Version: 6.00 Build 0)  -->
<svg version="1.1" id="Calque_1" xmlns="http://www.w3.org/2000/svg" xmlns:xlink="http://www.w3.org/1999/xlink" x="0px" y="0px"
	 viewBox="0 0 199 52" style="enable-background:new 0 0 199 52;" xml:space="preserve">
<style type="text/css">
	.st0{fill:none;}
	.st1{fill:#FFFFFF;}
</style>
<rect class="st0" width="78" height="48"/>
<path class="st1" d="M97.4,17.4V30h3.7v-3.4h2c3.3,0,5.1-1.7,5.1-4.7c0-2.9-1.9-4.5-5.1-4.5H97.4z M101.1,20.3h1.8
	c1.1,0,1.8,0.6,1.8,1.7c0,1.1-0.6,1.7-1.8,1.7h-1.8V20.3z M120,20.3v-2.9h-10.3V30h10.5v-2.9h-6.8v-2h6v-2.9h-6v-2H120z M130.4,28
	l0.7,2h4L130,17.4h-3.9L120.7,30h3.9l0.8-2H130.4z M129.5,25.2h-3.1l1.5-4.1L129.5,25.2z M144.2,30h4.5l-4.9-7.5l4.6-5.1h-4.3
	l-4.2,4.9v-4.9h-3.7V30h3.7v-3l1.4-1.6L144.2,30z M149.8,17.4V30h5.4c4.2,0,6.9-2.5,6.9-6.3s-2.7-6.3-6.8-6.3H149.8z M153.5,20.3
	h1.7c1.8,0,3,1.4,3,3.4c0,2-1.2,3.3-2.9,3.3h-1.9V20.3z M173.8,20.3v-2.9h-10.3V30H174v-2.9h-6.8v-2h6v-2.9h-6v-2H173.8z
	 M185.6,20.3v-2.9h-9.8V30h3.7v-4.3h5.6v-2.9h-5.6v-2.5H185.6z M190.7,30V17.4h-3.7V30H190.7z M98.5,35.4h0.9v11.8h7.3V48h-8.2V35.4
	z M111.9,38.5c1.2,0,2.1,0.3,2.7,0.9c0.6,0.6,0.9,1.5,0.9,2.6v6h-0.9v-1.7c-0.3,0.6-0.7,1-1.3,1.3c-0.6,0.3-1.3,0.4-2.1,0.4
	c-1,0-1.9-0.2-2.5-0.7c-0.6-0.5-0.9-1.1-0.9-1.9c0-0.8,0.3-1.4,0.8-1.9c0.6-0.5,1.5-0.7,2.7-0.7h3.2V42c0-0.9-0.2-1.5-0.7-2
	c-0.5-0.5-1.2-0.7-2.1-0.7c-0.6,0-1.2,0.1-1.8,0.3c-0.6,0.2-1,0.5-1.4,0.9l-0.5-0.6c0.5-0.4,1-0.7,1.7-1
	C110.5,38.7,111.2,38.5,111.9,38.5z M111.4,47.3c0.8,0,1.4-0.2,2-0.5c0.6-0.4,1-0.9,1.2-1.6v-1.8h-3.2c-0.9,0-1.6,0.2-2,0.5
	c-0.4,0.3-0.6,0.8-0.6,1.4c0,0.6,0.2,1.1,0.7,1.5C110,47.2,110.6,47.3,111.4,47.3z M127.5,38.6V48h-0.9v-2c-0.3,0.7-0.8,1.2-1.4,1.5
	c-0.6,0.4-1.3,0.5-2.2,0.5c-1.2,0-2.2-0.3-2.9-1c-0.7-0.7-1-1.7-1-3v-5.5h0.9V44c0,1.1,0.3,1.9,0.8,2.4c0.5,0.6,1.3,0.8,2.3,0.8
	c1.1,0,1.9-0.3,2.5-1c0.6-0.7,0.9-1.5,0.9-2.7v-5H127.5z M135.9,38.5c1.2,0,2.1,0.3,2.8,1c0.7,0.7,1,1.7,1,3V48h-0.9v-5.4
	c0-1.1-0.3-1.9-0.8-2.4c-0.5-0.6-1.3-0.8-2.2-0.8c-1.1,0-2,0.3-2.6,1c-0.6,0.7-1,1.5-1,2.7v5h-0.9v-9.4h0.9v2
	c0.3-0.7,0.8-1.2,1.4-1.5C134.3,38.7,135,38.5,135.9,38.5z M147.2,48.1c-0.9,0-1.7-0.2-2.4-0.6s-1.3-1-1.7-1.7
	c-0.4-0.7-0.6-1.6-0.6-2.5c0-0.9,0.2-1.7,0.6-2.5c0.4-0.7,1-1.3,1.7-1.7c0.7-0.4,1.5-0.6,2.4-0.6c0.8,0,1.4,0.1,2.1,0.4
	c0.6,0.3,1.1,0.7,1.5,1.3l-0.7,0.5c-0.3-0.5-0.8-0.8-1.3-1c-0.5-0.2-1-0.4-1.6-0.4c-0.7,0-1.4,0.2-2,0.5c-0.6,0.3-1,0.8-1.4,1.4
	c-0.3,0.6-0.5,1.3-0.5,2.1c0,0.8,0.2,1.5,0.5,2.1c0.3,0.6,0.8,1.1,1.4,1.4c0.6,0.3,1.2,0.5,2,0.5c0.6,0,1.1-0.1,1.6-0.3
	c0.5-0.2,0.9-0.6,1.3-1.1l0.7,0.5c-0.4,0.6-0.9,1-1.5,1.3C148.6,47.9,147.9,48.1,147.2,48.1z M157.8,38.5c1.2,0,2.1,0.3,2.8,1
	c0.7,0.7,1,1.7,1,3V48h-0.9v-5.4c0-1.1-0.3-1.9-0.8-2.4c-0.5-0.6-1.3-0.8-2.2-0.8c-1.1,0-2,0.3-2.6,1c-0.6,0.7-1,1.5-1,2.7v5h-0.9
	V34.6h0.9v5.9c0.3-0.6,0.8-1.1,1.4-1.5C156.2,38.7,157,38.5,157.8,38.5z M170.1,38.5c0.9,0,1.7,0.2,2.4,0.6c0.7,0.4,1.3,1,1.7,1.7
	c0.4,0.7,0.6,1.5,0.6,2.5c0,0.9-0.2,1.8-0.6,2.5c-0.4,0.7-0.9,1.3-1.7,1.7c-0.7,0.4-1.5,0.6-2.4,0.6c-0.8,0-1.6-0.2-2.2-0.6
	c-0.7-0.4-1.2-0.9-1.6-1.6v5.6h-0.9V38.6h0.9v2.2c0.4-0.7,0.9-1.3,1.6-1.7C168.5,38.7,169.2,38.5,170.1,38.5z M170,47.3
	c0.7,0,1.4-0.2,1.9-0.5c0.6-0.3,1-0.8,1.4-1.4c0.3-0.6,0.5-1.3,0.5-2.1c0-0.8-0.2-1.5-0.5-2.1c-0.3-0.6-0.8-1.1-1.4-1.4
	c-0.6-0.3-1.2-0.5-1.9-0.5s-1.4,0.2-1.9,0.5c-0.6,0.3-1,0.8-1.4,1.4c-0.3,0.6-0.5,1.3-0.5,2.1c0,0.8,0.2,1.5,0.5,2.1
	c0.3,0.6,0.8,1.1,1.4,1.4C168.7,47.1,169.3,47.3,170,47.3z M180.6,38.5c1.2,0,2.1,0.3,2.7,0.9c0.6,0.6,0.9,1.5,0.9,2.6v6h-0.9v-1.7
	c-0.3,0.6-0.7,1-1.3,1.3c-0.6,0.3-1.3,0.4-2.1,0.4c-1,0-1.9-0.2-2.5-0.7c-0.6-0.5-0.9-1.1-0.9-1.9c0-0.8,0.3-1.4,0.8-1.9
	c0.6-0.5,1.5-0.7,2.7-0.7h3.2V42c0-0.9-0.2-1.5-0.7-2c-0.5-0.5-1.2-0.7-2.1-0.7c-0.6,0-1.2,0.1-1.8,0.3c-0.6,0.2-1,0.5-1.4,0.9
	l-0.4-0.6c0.5-0.4,1-0.7,1.7-1C179.2,38.7,179.9,38.5,180.6,38.5z M180.1,47.3c0.8,0,1.4-0.2,2-0.5c0.6-0.4,1-0.9,1.2-1.6v-1.8h-3.2
	c-0.9,0-1.6,0.2-2,0.5c-0.4,0.3-0.6,0.8-0.6,1.4c0,0.6,0.2,1.1,0.7,1.5C178.7,47.2,179.3,47.3,180.1,47.3z M196.3,34.6V48h-0.9v-2.2
	c-0.4,0.7-0.9,1.3-1.6,1.7c-0.7,0.4-1.4,0.6-2.3,0.6c-0.9,0-1.7-0.2-2.4-0.6c-0.7-0.4-1.3-1-1.7-1.7c-0.4-0.7-0.6-1.5-0.6-2.5
	c0-0.9,0.2-1.7,0.6-2.5c0.4-0.7,1-1.3,1.7-1.7c0.7-0.4,1.5-0.6,2.4-0.6c0.8,0,1.6,0.2,2.2,0.6c0.7,0.4,1.2,0.9,1.6,1.7v-6.1H196.3z
	 M191.7,47.3c0.7,0,1.4-0.2,1.9-0.5c0.6-0.3,1-0.8,1.3-1.4c0.3-0.6,0.5-1.3,0.5-2.1c0-0.8-0.2-1.5-0.5-2.1c-0.3-0.6-0.8-1.1-1.3-1.4
	c-0.6-0.3-1.2-0.5-1.9-0.5s-1.4,0.2-1.9,0.5c-0.6,0.3-1,0.8-1.3,1.4c-0.3,0.6-0.5,1.3-0.5,2.1c0,0.8,0.2,1.5,0.5,2.1
	c0.3,0.6,0.8,1.1,1.3,1.4C190.3,47.1,190.9,47.3,191.7,47.3z"/>
</svg>
