<?xml version="1.0" encoding="UTF-8"?>
<svg version="1.1" xmlns="http://www.w3.org/2000/svg" width="600" height="600">
<path d="M0 0 C3.97794323 1.94753471 7.03471935 3.78384451 9.82519531 7.29956055 C12.01256264 10.01559894 14.3239013 12.43712742 16.796875 14.89453125 C17.25920532 15.35540131 17.72153564 15.81627136 18.19787598 16.29110718 C19.19415462 17.28360359 20.19158604 18.27494394 21.19006348 19.26522827 C22.77332198 20.83563264 24.35335623 22.40921879 25.93261719 23.98364258 C29.28560923 27.32524973 32.64251038 30.66291262 36 34 C39.89300679 37.8693504 43.78436331 41.74033066 47.67150879 45.61557007 C49.22264384 47.16025755 50.77677679 48.70188409 52.33105469 50.2434082 C53.28856041 51.19727889 54.24592461 52.15129167 55.203125 53.10546875 C56.03489258 53.93199951 56.86666016 54.75853027 57.72363281 55.61010742 C60 58 60 58 62.17480469 60.7434082 C63.80171211 63.07343336 63.80171211 63.07343336 66 64 C66.96997952 65.63893092 67.93304435 67.28266402 68.84765625 68.953125 C70.45878635 71.81492898 72.25316337 74.5507836 74.046875 77.30078125 C75 79 75 79 75 81 C75.66 81.33 76.32 81.66 77 82 C77.94335314 84.60083342 78.78142009 87.16331798 79.5625 89.8125 C79.78357422 90.53759766 80.00464844 91.26269531 80.23242188 92.00976562 C81.86338633 97.39539751 83.13007512 102.07368993 83.0625 107.75 C83.05347656 108.73484375 83.04445313 109.7196875 83.03515625 110.734375 C83.01775391 111.85585937 83.01775391 111.85585937 83 113 C83.66 113.33 84.32 113.66 85 114 C83.81147861 123.49774549 82.43022925 132.83823029 79.375 141.9375 C79.17632324 142.57292725 78.97764648 143.20835449 78.77294922 143.86303711 C74.52455571 155.70086706 64.57137565 164.85288983 55.75 173.4375 C54.77272 174.39966239 53.79615514 175.36255171 52.8203125 176.32617188 C51.03183724 178.08878075 49.24026261 179.84825548 47.44433594 181.60327148 C44.94630593 184.05264829 42.47035569 186.52273959 40 189 C36.33333333 192.66666667 32.66666667 196.33333333 29 200 C28.1440625 200.86625 27.288125 201.7325 26.40625 202.625 C24.32943243 204.67484592 22.21680376 206.60499034 20 208.5 C16.86487607 211.22061034 13.90138181 214.02785278 11 217 C9.39719222 218.6055244 7.7929165 220.20958414 6.1875 221.8125 C5.39730469 222.60269531 4.60710937 223.39289063 3.79296875 224.20703125 C3.20128906 224.79871094 2.60960937 225.39039063 2 226 C-1.31002696 224.56246045 -3.43889464 222.77516456 -5.9375 220.1875 C-6.63617188 219.46949219 -7.33484375 218.75148438 -8.0546875 218.01171875 C-9.01761719 217.01591797 -9.01761719 217.01591797 -10 216 C-10.845625 215.175 -11.69125 214.35 -12.5625 213.5 C-20.89625625 204.95255769 -27.24082771 197.39047076 -27.1015625 184.97265625 C-26.9783847 182.58016445 -26.58060133 180.3224053 -26 178 C-25.34 178 -24.68 178 -24 178 C-23.7215625 177.01 -23.7215625 177.01 -23.4375 176 C-20.40759074 169.67671111 -14.90581179 164.90581179 -10 160 C-5.68583795 155.30181217 -1.45507992 150.53734966 2.6875 145.6875 C4.72519325 143.32658644 6.49944252 141.61501305 9 139.6875 C15.44731817 134.59203887 20.30809698 125.65203898 21.30078125 117.54296875 C21.38004886 101.61017974 11.53943895 90.1137953 1 79 C-0.06486855 79.89301656 -1.12675041 80.7895947 -2.1875 81.6875 C-3.07501953 82.43580078 -3.07501953 82.43580078 -3.98046875 83.19921875 C-6.4175976 85.37236459 -8.69959726 87.68466093 -11 90 C-12.21780193 91.22319718 -13.4356614 92.44633709 -14.65356445 93.66943359 C-15.32809158 94.34718842 -16.00261871 95.02494324 -16.69758606 95.72323608 C-19.76033271 98.79942653 -22.82578039 101.87291951 -25.89135742 104.94628906 C-27.50098521 106.56094845 -29.1097147 108.17650385 -30.7175293 109.79296875 C-33.05537556 112.14303498 -35.39651664 114.48977652 -37.73828125 116.8359375 C-38.44688797 117.54970551 -39.15549469 118.26347351 -39.88557434 118.99887085 C-43.88502715 122.99876531 -47.9795407 126.80631403 -52.29631042 130.46279907 C-54.23839231 132.14220284 -54.23839231 132.14220284 -56.5 135 C-59.14374446 138.17249335 -61.98930907 140.72636079 -65.1328125 143.38671875 C-68.90056298 146.5929262 -68.90056298 146.5929262 -71 151 C-71.60585937 151.58394531 -72.21171875 152.16789063 -72.8359375 152.76953125 C-80.487446 160.65583334 -83.86623065 172.53500918 -84.375 183.25 C-84.17854871 192.56179117 -81.6308403 201.3691597 -75 208 C-73.82679771 209.34850838 -72.66054157 210.70308037 -71.5 212.0625 C-68.7742041 215.16426775 -65.95782383 218.11612176 -63 221 C-62.47792969 221.53238281 -61.95585937 222.06476563 -61.41796875 222.61328125 C-58.46542602 225.61914304 -55.46704917 228.49955205 -52.26293945 231.23706055 C-48.02361355 234.92667823 -44.05354676 238.83513657 -40.10546875 242.83203125 C-39.03441643 243.9087635 -39.03441643 243.9087635 -37.94172668 245.00724792 C-35.68784598 247.27322594 -33.43727273 249.54244382 -31.1875 251.8125 C-28.20469643 254.82188207 -25.2186032 257.82794345 -22.23046875 260.83203125 C-21.54921432 261.52158401 -20.8679599 262.21113678 -20.1660614 262.92158508 C-19.53142471 263.55952499 -18.89678802 264.1974649 -18.24291992 264.85473633 C-17.68746994 265.41542313 -17.13201996 265.97610992 -16.55973816 266.55378723 C-14.85431589 268.21193392 -14.85431589 268.21193392 -12 270 C-11.05246832 271.05644337 -10.13773031 272.14283073 -9.25 273.25 C-6.1659949 276.94615687 -2.71708925 279.96200646 1 283 C6.87864964 278.00529039 12.38901242 272.73233296 17.8125 267.25 C18.62565674 266.43305664 19.43881348 265.61611328 20.27661133 264.77441406 C22.85353297 262.18537329 25.42717625 259.59311263 28 257 C31.39287153 253.58037281 34.78914657 250.16417851 38.1875 246.75 C38.95231689 245.97688477 39.71713379 245.20376953 40.50512695 244.40722656 C44.60823346 240.28566395 48.80439461 236.35802992 53.21142578 232.5637207 C55.6111689 230.46566519 57.85684998 228.23862644 60.09375 225.96875 C60.97933594 225.07542969 61.86492187 224.18210937 62.77734375 223.26171875 C63.67582031 222.35035156 64.57429687 221.43898438 65.5 220.5 C75.51769955 210.33857449 75.51769955 210.33857449 80.3828125 206.18359375 C83.45214438 203.55640107 85.95076654 200.8129518 88.375 197.5625 C89.53859807 196.0071727 90.73588848 194.47479678 92 193 C92.66 193 93.32 193 94 193 C94.25394531 192.44054687 94.50789062 191.88109375 94.76953125 191.3046875 C96.1733473 188.67531776 97.86371107 186.48266821 99.6875 184.125 C109.83149004 170.26216061 115.57558703 154.44871371 116.5625 137.3125 C116.6049585 136.60931641 116.64741699 135.90613281 116.69116211 135.18164062 C116.99848808 129.78457613 117.11695317 124.40583545 117 119 C121.55347626 120.47987978 123.25360755 124.1395387 125.5 128.0625 C125.89437256 128.73627686 126.28874512 129.41005371 126.69506836 130.10424805 C134 142.75328994 134 142.75328994 134 147 C134.66 147.33 135.32 147.66 136 148 C136.97506281 150.72722113 137.83020228 153.40801845 138.625 156.1875 C138.85445313 156.94353516 139.08390625 157.69957031 139.3203125 158.47851562 C140.5706652 162.76916047 141.27374575 166.48319516 141 171 C141.66 171.33 142.32 171.66 143 172 C142.65957467 189.41275548 141.26233737 205.32187623 133 221 C133.66 221.33 134.32 221.66 135 222 C134.01 222.33 133.02 222.66 132 223 C130.22160172 225.53729769 130.22160172 225.53729769 128.5625 228.625 C127.64017578 230.25501953 127.64017578 230.25501953 126.69921875 231.91796875 C125.73539971 233.66613707 124.77619561 235.41691989 123.83203125 237.17578125 C121.67409327 241.14814872 119.25974266 243.8851348 116 247 C114.4904542 248.65802571 112.99137143 250.32560786 111.5 252 C108.42533436 255.44118207 105.26300655 258.73699345 102 262 C101.175 263.010625 100.35 264.02125 99.5 265.0625 C97.15961608 267.81245111 94.84091652 269.7982897 92 272 C89.20076257 274.65568679 86.64401099 277.40726916 84.1875 280.375 C82.14272229 282.79016917 80.05327344 284.88090985 77.625 286.90625 C71.36962756 292.3134728 65.63393673 298.26052573 59.8125 304.125 C58.63890797 305.30362055 57.4650814 306.48200762 56.29101562 307.66015625 C53.65661728 310.30444899 51.02464686 312.95113316 48.39448547 315.59963989 C47.01394504 316.98599622 45.62711685 318.36608189 44.24023438 319.74609375 C41.70961592 322.29215625 39.42844678 324.98287768 37.13671875 327.7421875 C35.26247138 329.72265365 33.35471678 331.46398046 31.29296875 333.2421875 C26.87491549 337.05794122 22.73988566 341.11195363 18.625 345.25 C17.55958984 346.30960937 17.55958984 346.30960937 16.47265625 347.390625 C15.79332031 348.07125 15.11398437 348.751875 14.4140625 349.453125 C13.50068115 350.36819824 13.50068115 350.36819824 12.56884766 351.30175781 C10.80597426 353.12078564 10.80597426 353.12078564 9 356 C3.8839186 361.0023907 3.8839186 361.0023907 0.68127441 360.99372864 C-3.04824775 359.61150049 -5.37160626 357.14619553 -8.08789062 354.3503418 C-8.96939034 353.46730881 -8.96939034 353.46730881 -9.86869812 352.56643677 C-11.80737822 350.61987849 -13.73160957 348.65965127 -15.65625 346.69921875 C-17.00381115 345.34165216 -18.35233634 343.98504189 -19.70178223 342.62934875 C-23.25298166 339.05721236 -26.79245085 335.47368106 -30.3291626 331.88720703 C-35.98674552 326.1543848 -41.66296956 320.44000427 -47.33720398 314.72367287 C-49.31505455 312.7281703 -51.28859123 310.72848362 -53.26135254 308.72795105 C-54.4782168 307.49786054 -55.69513301 306.2678214 -56.91210938 305.0378418 C-57.45667282 304.4833989 -58.00123627 303.92895599 -58.56230164 303.35771179 C-61.5574846 300.33679979 -64.63739366 297.61911037 -68 295 C-69.00065597 293.9203107 -69.9679355 292.80867353 -70.8984375 291.66796875 C-76.73895468 284.84243743 -83.25665597 278.63925677 -89.625 272.3125 C-90.94815093 270.99437574 -92.27106941 269.6760181 -93.59375 268.35742188 C-96.02151682 265.93776427 -98.45060748 263.5194537 -100.88134766 261.1027832 C-102.8635956 259.13199181 -104.84192893 257.15756045 -106.81787109 255.18041992 C-108.03506951 253.96417479 -109.2576716 252.75306472 -110.5 251.5625 C-114.58296255 247.30941401 -117.80957219 242.9011641 -120.7890625 237.83203125 C-121.92135312 235.97269835 -121.92135312 235.97269835 -123.45678711 234.6027832 C-125.99344119 231.96821051 -127.35807896 228.6358487 -128.9375 225.375 C-129.29158936 224.64933838 -129.64567871 223.92367676 -130.01049805 223.17602539 C-130.70561658 221.74623655 -131.39785798 220.31504458 -132.08691406 218.88232422 C-132.80500607 217.40197946 -133.54995818 215.93466185 -134.3046875 214.47265625 C-142.49743171 197.92839373 -142.48736032 175.39493797 -137.40234375 157.9140625 C-127.5731282 129.2865641 -127.5731282 129.2865641 -121 126 C-120.58814453 125.15888672 -120.58814453 125.15888672 -120.16796875 124.30078125 C-118.61953935 121.2505307 -116.51663827 118.77676996 -114.3125 116.1875 C-113.83844727 115.62780518 -113.36439453 115.06811035 -112.87597656 114.49145508 C-108.27300062 109.15244417 -103.31145512 104.20427071 -98.29296875 99.2590332 C-93.14269586 94.1799224 -88.30082252 88.97753503 -83.875 83.25 C-82 81 -82 81 -79.8203125 79.29296875 C-76.30524914 76.43515408 -73.17833295 73.28497646 -70 70.0625 C-69.39671875 69.45470703 -68.7934375 68.84691406 -68.171875 68.22070312 C-66.99239639 67.03225022 -65.81421108 65.8425121 -64.63745117 64.65136719 C-63.15940797 63.16076272 -61.66835306 61.68308774 -60.17578125 60.20703125 C-57.96379328 58.05602415 -57.96379328 58.05602415 -56.1875 55.625 C-53.69430423 52.63316507 -50.91072892 50.28506538 -47.953125 47.765625 C-46.21803185 46.19710079 -44.76768545 44.63608683 -43.3125 42.8125 C-41.06032072 40.07336304 -38.79112332 38.16312057 -36 36 C-34.31066078 34.3563186 -32.64740076 32.6857124 -31 31 C-30.33226562 30.34257812 -29.66453125 29.68515625 -28.9765625 29.0078125 C-28.26242187 28.30398437 -27.54828125 27.60015625 -26.8125 26.875 C-25.80123047 25.88113281 -25.80123047 25.88113281 -24.76953125 24.8671875 C-22.82446642 22.92056683 -22.82446642 22.92056683 -21 20 C-19.97553163 19.05867046 -18.91865414 18.15196176 -17.83984375 17.2734375 C-13.85720732 13.93409443 -10.21027032 10.32295129 -6.5625 6.625 C-5.92634766 5.98433594 -5.29019531 5.34367187 -4.63476562 4.68359375 C-3.08749668 3.12469121 -1.54263508 1.56348584 0 0 Z " fill="#C58B47" transform="translate(299,119)"/>
<path d="M0 0 C4.55347626 1.47987978 6.25360755 5.1395387 8.5 9.0625 C9.09155884 10.07316528 9.09155884 10.07316528 9.69506836 11.10424805 C17 23.75328994 17 23.75328994 17 28 C17.66 28.33 18.32 28.66 19 29 C19.97506281 31.72722113 20.83020228 34.40801845 21.625 37.1875 C21.85445312 37.94353516 22.08390625 38.69957031 22.3203125 39.47851562 C23.5706652 43.76916047 24.27374575 47.48319516 24 52 C24.66 52.33 25.32 52.66 26 53 C25.65957467 70.41275548 24.26233737 86.32187623 16 102 C16.66 102.33 17.32 102.66 18 103 C17.01 103.33 16.02 103.66 15 104 C13.22160172 106.53729769 13.22160172 106.53729769 11.5625 109.625 C10.94761719 110.71167969 10.33273437 111.79835938 9.69921875 112.91796875 C8.73539971 114.66613707 7.77619561 116.41691989 6.83203125 118.17578125 C4.67409327 122.14814872 2.25974266 124.8851348 -1 128 C-2.5095458 129.65802571 -4.00862857 131.32560786 -5.5 133 C-8.57466564 136.44118207 -11.73699345 139.73699345 -15 143 C-15.825 144.010625 -16.65 145.02125 -17.5 146.0625 C-19.84038392 148.81245111 -22.15908348 150.7982897 -25 153 C-27.79923743 155.65568679 -30.35598901 158.40726916 -32.8125 161.375 C-34.85727771 163.79016917 -36.94672656 165.88090985 -39.375 167.90625 C-45.63037244 173.3134728 -51.36606327 179.26052573 -57.1875 185.125 C-58.36109203 186.30362055 -59.5349186 187.48200762 -60.70898438 188.66015625 C-63.34338272 191.30444899 -65.97535314 193.95113316 -68.60551453 196.59963989 C-69.98605496 197.98599622 -71.37288315 199.36608189 -72.75976562 200.74609375 C-74.72354523 202.72185806 -76.5271922 204.73971872 -78.3125 206.875 C-81.17442217 210.17721789 -84.20466551 212.97689045 -87.53515625 215.79296875 C-93.27019257 220.9281439 -98.59261702 226.52426526 -104 232 C-104.66 231.67 -105.32 231.34 -106 231 C-105.3387915 230.35450195 -104.67758301 229.70900391 -103.99633789 229.04394531 C-101.54332283 226.64210221 -99.09724108 224.23361303 -96.65551758 221.8203125 C-95.59799071 220.77785843 -94.5377851 219.73811451 -93.47485352 218.70117188 C-91.94613211 217.20889965 -90.42735665 215.70709824 -88.91015625 214.203125 C-87.99371338 213.30239258 -87.07727051 212.40166016 -86.13305664 211.47363281 C-84.04564478 209.05293269 -83.64156924 207.98767974 -83 205 C-81.01679982 203.96708324 -79.01652194 202.9662501 -77 202 C-76.67 201.01 -76.34 200.02 -76 199 C-75.34 199 -74.68 199 -74 199 C-73.773125 198.29875 -73.54625 197.5975 -73.3125 196.875 C-71.03492543 191.88602714 -68.05765551 188.19165072 -63 186 C-62.2575 185.2575 -62.2575 185.2575 -61.5 184.5 C-60 183 -60 183 -57.875 182 C-55.6469565 181.08797022 -55.6469565 181.08797022 -55 178 C-54.39414062 177.71382812 -53.78828125 177.42765625 -53.1640625 177.1328125 C-50.24423773 175.60438437 -49.15234132 173.6232238 -47.375 170.875 C-46.29935854 169.21691513 -45.18491999 167.581839 -44 166 C-43.34 166 -42.68 166 -42 166 C-42 165.34 -42 164.68 -42 164 C-40.35 163.34 -38.7 162.68 -37 162 C-37 161.34 -37 160.68 -37 160 C-36.34 160 -35.68 160 -35 160 C-34.690625 159.38125 -34.38125 158.7625 -34.0625 158.125 C-33.375 156.75 -32.6875 155.375 -32 154 C-31.34 154 -30.68 154 -30 154 C-29.67 153.01 -29.34 152.02 -29 151 C-27.22265625 149.17578125 -27.22265625 149.17578125 -25.0625 147.3125 C-24.35222656 146.68988281 -23.64195312 146.06726563 -22.91015625 145.42578125 C-21 144 -21 144 -19 144 C-18.731875 143.360625 -18.46375 142.72125 -18.1875 142.0625 C-17 140 -17 140 -14 139 C-12.78130071 136.49552484 -12.78130071 136.49552484 -12 134 C-11.34 134 -10.68 134 -10 134 C-9.938125 133.443125 -9.87625 132.88625 -9.8125 132.3125 C-8.66098245 129.03510391 -6.4965414 127.3804232 -4 125 C-1.65575442 122.31101242 0.02484648 119.95030704 1.625 116.75 C3 114 3 114 5 113 C5.33 112.01 5.66 111.02 6 110 C6.66 109.67 7.32 109.34 8 109 C11.3758118 104.0087007 13.64081395 98.70813383 15.32421875 92.9453125 C16 91 16 91 18 88 C18.45983136 85.50498909 18.83097815 83.0761458 19.125 80.5625 C19.25455078 79.55993164 19.25455078 79.55993164 19.38671875 78.53710938 C19.78860492 75.31883042 20 72.25005796 20 69 C20.66 69 21.32 69 22 69 C21.34 68.01 20.68 67.02 20 66 C19.83984375 63.64453125 19.83984375 63.64453125 19.9375 60.8125 C20.03356974 55.59271082 19.8486734 50.45457416 19.5 45.25 C19.45222412 44.53432861 19.40444824 43.81865723 19.35522461 43.08129883 C19.23981558 41.38732555 19.1203594 39.69362874 19 38 C18.34 38 17.68 38 17 38 C15.44551621 35.40919368 14.95063125 33.6121027 14.5625 30.5625 C13.99090416 26.94239303 12.98242498 25.01673367 11 22 C11 21.34 11 20.68 11 20 C10.01 19.67 9.02 19.34 8 19 C8 18.34 8 17.68 8 17 C5.3867321 18.85457722 4.13365531 20.27526558 3.546875 23.45703125 C3.392616 25.25414856 3.26809117 27.05410667 3.17578125 28.85546875 C3 31 3 31 2 32 C1.76924918 33.34747084 1.58846937 34.70377565 1.4375 36.0625 C1.293125 37.361875 1.14875 38.66125 1 40 C0.34 39.34 -0.32 38.68 -1 38 C-2.03379697 41.92842848 -2.95650725 45.57957007 -3.375 49.625 C-4.10223897 53.55209044 -5.72232186 55.76716651 -8 59 C-8 59.99 -8 60.98 -8 62 C-9.64488294 63.68816933 -11.31337542 65.35353315 -13 67 C-13.33 67.66 -13.66 68.32 -14 69 C-15.44265098 71.88530195 -17.7190066 73.7190066 -20 76 C-21.75498748 78.31321004 -23.47119402 80.64707652 -25.15625 83.01171875 C-27.27099831 85.29224182 -29.0660275 86.06052593 -32 87 C-32 87.99 -32 88.98 -32 90 C-33.71484375 91.75390625 -33.71484375 91.75390625 -35.9375 93.5625 C-38.92648955 95.91285524 -38.92648955 95.91285524 -41 99 C-41.763125 99.433125 -42.52625 99.86625 -43.3125 100.3125 C-46.32530507 102.20426133 -47.85339139 104.1825762 -50 107 C-52.5625 109.8125 -52.5625 109.8125 -55 112 C-56.33333333 112 -57.66666667 112 -59 112 C-60.19961908 113.04672646 -61.36030321 114.13832854 -62.5 115.25 C-63.1290625 115.85328125 -63.758125 116.4565625 -64.40625 117.078125 C-66.08158726 119.09838463 -66.59186868 120.43784229 -67 123 C-67.928125 123.0928125 -67.928125 123.0928125 -68.875 123.1875 C-71.2501999 123.80875315 -71.2501999 123.80875315 -72.0625 126.375 C-72.371875 127.24125 -72.68125 128.1075 -73 129 C-74.68335837 131.08415798 -76.13313308 132.07322319 -78.5 133.375 C-81.95245744 135.61909733 -83.20184082 138.40368163 -85 142 C-86.97485205 143.3703055 -88.97386717 144.70672372 -91 146 C-91.33 145.34 -91.66 144.68 -92 144 C-95.15394039 147.09602087 -98.29671173 150.20314207 -101.4375 153.3125 C-102.33533203 154.19357422 -103.23316406 155.07464844 -104.15820312 155.98242188 C-105.43920898 157.25375977 -105.43920898 157.25375977 -106.74609375 158.55078125 C-107.53685303 159.33106689 -108.3276123 160.11135254 -109.14233398 160.9152832 C-111.20346621 162.95198715 -111.20346621 162.95198715 -112 166 C-115 168 -115 168 -118 168 C-119.00739746 166.33779419 -120.00522955 164.66979326 -121 163 C-123.9901629 159.74064969 -127.22994422 156.73056574 -130.4375 153.6875 C-132 152 -132 152 -132 150 C-128.77762476 151.07412508 -128.25808673 151.63226604 -126.25 154.1875 C-123.17529551 157.92658787 -119.73692536 160.94516159 -116 164 C-110.12135036 159.00529039 -104.61098758 153.73233296 -99.1875 148.25 C-98.37434326 147.43305664 -97.56118652 146.61611328 -96.72338867 145.77441406 C-94.14646703 143.18537329 -91.57282375 140.59311263 -89 138 C-85.60712847 134.58037281 -82.21085343 131.16417851 -78.8125 127.75 C-77.66527466 126.59032715 -77.66527466 126.59032715 -76.49487305 125.40722656 C-72.39176654 121.28566395 -68.19560539 117.35802992 -63.78857422 113.5637207 C-61.3888311 111.46566519 -59.14315002 109.23862644 -56.90625 106.96875 C-56.02066406 106.07542969 -55.13507813 105.18210937 -54.22265625 104.26171875 C-53.32417969 103.35035156 -52.42570312 102.43898438 -51.5 101.5 C-41.48230045 91.33857449 -41.48230045 91.33857449 -36.6171875 87.18359375 C-33.54785562 84.55640107 -31.04923346 81.8129518 -28.625 78.5625 C-27.46140193 77.0071727 -26.26411152 75.47479678 -25 74 C-24.34 74 -23.68 74 -23 74 C-22.74605469 73.44054687 -22.49210937 72.88109375 -22.23046875 72.3046875 C-20.8266527 69.67531776 -19.13628893 67.48266821 -17.3125 65.125 C-7.16850996 51.26216061 -1.42441297 35.44871371 -0.4375 18.3125 C-0.3950415 17.60931641 -0.35258301 16.90613281 -0.30883789 16.18164062 C-0.00151192 10.78457613 0.11695317 5.40583545 0 0 Z " fill="#AF7835" transform="translate(416,238)"/>
<path d="M0 0 C3.99940314 1.85686574 7.06212494 3.81837277 9.82519531 7.29956055 C12.01256264 10.01559894 14.3239013 12.43712742 16.796875 14.89453125 C17.25920532 15.35540131 17.72153564 15.81627136 18.19787598 16.29110718 C19.19415462 17.28360359 20.19158604 18.27494394 21.19006348 19.26522827 C22.77332198 20.83563264 24.35335623 22.40921879 25.93261719 23.98364258 C29.28560923 27.32524973 32.64251038 30.66291262 36 34 C39.89300679 37.8693504 43.78436331 41.74033066 47.67150879 45.61557007 C49.22264384 47.16025755 50.77677679 48.70188409 52.33105469 50.2434082 C53.28856041 51.19727889 54.24592461 52.15129167 55.203125 53.10546875 C56.03489258 53.93199951 56.86666016 54.75853027 57.72363281 55.61010742 C60 58 60 58 62.17480469 60.7434082 C63.80171211 63.07343336 63.80171211 63.07343336 66 64 C66.96997952 65.63893092 67.93304435 67.28266402 68.84765625 68.953125 C70.45878635 71.81492898 72.25316337 74.5507836 74.046875 77.30078125 C75 79 75 79 75 81 C75.66 81.33 76.32 81.66 77 82 C77.94335314 84.60083342 78.78142009 87.16331798 79.5625 89.8125 C79.78357422 90.53759766 80.00464844 91.26269531 80.23242188 92.00976562 C81.86338633 97.39539751 83.13007512 102.07368993 83.0625 107.75 C83.05347656 108.73484375 83.04445313 109.7196875 83.03515625 110.734375 C83.02355469 111.48203125 83.01195312 112.2296875 83 113 C83.66 113.33 84.32 113.66 85 114 C83.81147861 123.49774549 82.43022925 132.83823029 79.375 141.9375 C79.17632324 142.57292725 78.97764648 143.20835449 78.77294922 143.86303711 C74.52455571 155.70086706 64.57137565 164.85288983 55.75 173.4375 C54.77272 174.39966239 53.79615514 175.36255171 52.8203125 176.32617188 C51.03183724 178.08878075 49.24026261 179.84825548 47.44433594 181.60327148 C44.94630593 184.05264829 42.47035569 186.52273959 40 189 C36.33333333 192.66666667 32.66666667 196.33333333 29 200 C28.1440625 200.86625 27.288125 201.7325 26.40625 202.625 C24.32943243 204.67484592 22.21680376 206.60499034 20 208.5 C16.86487607 211.22061034 13.90138181 214.02785278 11 217 C9.39719222 218.6055244 7.7929165 220.20958414 6.1875 221.8125 C5.00220703 222.99779297 5.00220703 222.99779297 3.79296875 224.20703125 C2.90544922 225.09455078 2.90544922 225.09455078 2 226 C-1.31002696 224.56246045 -3.43889464 222.77516456 -5.9375 220.1875 C-6.63617188 219.46949219 -7.33484375 218.75148438 -8.0546875 218.01171875 C-8.69664062 217.34785156 -9.33859375 216.68398438 -10 216 C-10.845625 215.175 -11.69125 214.35 -12.5625 213.5 C-20.89625625 204.95255769 -27.24082771 197.39047076 -27.1015625 184.97265625 C-26.9783847 182.58016445 -26.58060133 180.3224053 -26 178 C-25.34 178 -24.68 178 -24 178 C-23.7215625 177.01 -23.7215625 177.01 -23.4375 176 C-20.40759074 169.67671111 -14.90581179 164.90581179 -10 160 C-5.68583795 155.30181217 -1.45507992 150.53734966 2.6875 145.6875 C4.72519325 143.32658644 6.49944252 141.61501305 9 139.6875 C15.44731817 134.59203887 20.30809698 125.65203898 21.30078125 117.54296875 C21.35540168 106.56426296 17.40719163 99.61888361 11.05859375 90.91796875 C9.44787862 88.63484883 8.13640624 86.53695015 7 84 C8.32 84.33 9.64 84.66 11 85 C11 85.99 11 86.98 11 88 C11.99 87.67 12.98 87.34 14 87 C14.66 88.98 15.32 90.96 16 93 C16.66 93 17.32 93 18 93 C23.95626192 101.52667257 25.15954466 108.71188318 24 119 C22.91525206 124.21402178 21.1739785 127.76802866 18 132 C17.74875174 134.66761764 17.74875174 134.66761764 18 137 C17.34 137 16.68 137 16 137 C16 137.66 16 138.32 16 139 C14.000181 140.89268584 11.87936015 142.59885766 9.75 144.34375 C8.88375 145.16359375 8.88375 145.16359375 8 146 C8 146.66 8 147.32 8 148 C6.64453125 149.40234375 6.64453125 149.40234375 4.8125 150.9375 C4.22082031 151.44152344 3.62914062 151.94554687 3.01953125 152.46484375 C1 154 1 154 -1.265625 155.25390625 C-10.14747395 160.92560122 -19.90322941 170.20267452 -22.62890625 180.56640625 C-23.48305863 186.16784768 -23.60556394 190.78887211 -21 196 C-20.690625 196.66 -20.38125 197.32 -20.0625 198 C-19.711875 198.66 -19.36125 199.32 -19 200 C-18.443125 201.1446875 -18.443125 201.1446875 -17.875 202.3125 C-16.07281255 204.89563534 -14.402006 206.44022761 -12 208.4375 C-9.22006179 210.74907906 -8.04938774 211.89299324 -6.5 215.25 C-4.24139006 219.3907849 -1.43252757 219.69204104 3 221 C3 220.34 3 219.68 3 219 C3.99 219 4.98 219 6 219 C6.37125 218.071875 6.37125 218.071875 6.75 217.125 C8 215 8 215 9.89453125 214.08203125 C12.84946503 212.56344747 14.33327235 210.34176853 16.33984375 207.75390625 C18 206 18 206 20.24951172 204.73022461 C23.4687815 202.70510789 26.01528318 200.2538573 28.66796875 197.5625 C29.18885574 197.04115479 29.70974274 196.51980957 30.24641418 195.98266602 C31.34040355 194.8856698 32.43197594 193.78625844 33.52124023 192.68457031 C35.18745738 191.00004308 36.86159204 189.32370948 38.53710938 187.6484375 C39.60203636 186.57859647 40.66650552 185.50829949 41.73046875 184.4375 C42.22943161 183.93742432 42.72839447 183.43734863 43.24247742 182.92211914 C45.43503321 180.69942994 47.26035405 178.60946892 49 176 C50.61213449 174.62296846 52.22616754 173.24807275 53.8515625 171.88671875 C61.32778099 165.67169504 61.32778099 165.67169504 67 158 C66.34 157.67 65.68 157.34 65 157 C65.66 157 66.32 157 67 157 C67.33 156.01 67.66 155.02 68 154 C68.33 154.66 68.66 155.32 69 156 C70.0076952 154.2335343 71.00591714 152.46166177 72 150.6875 C72.556875 149.70136719 73.11375 148.71523438 73.6875 147.69921875 C75.21864753 145.05057529 75.21864753 145.05057529 75 142 C75.3062434 140.66018514 75.63451555 139.32488113 76 138 C76.66 138 77.32 138 78 138 C77.81695312 137.4225 77.63390625 136.845 77.4453125 136.25 C76.94867424 133.74066984 77.21700721 132.45169918 77.875 130 C79.07243146 124.54594573 79.44137106 119.12377512 79.75 113.5625 C79.80655762 112.67369141 79.86311523 111.78488281 79.92138672 110.86914062 C79.98350342 109.60553711 79.98350342 109.60553711 80.046875 108.31640625 C80.08651367 107.55787354 80.12615234 106.79934082 80.16699219 106.01782227 C80.13762317 103.68190036 80.13762317 103.68190036 78 101 C76.77668332 97.39801201 75.99049801 94.5036054 76.0625 90.6875 C76.041875 89.800625 76.02125 88.91375 76 88 C74.515 87.01 74.515 87.01 73 86 C72.12109375 84.1953125 72.12109375 84.1953125 71.4375 82.125 C69.88594011 77.1885686 69.88594011 77.1885686 67 73 C66.63557767 71.33985384 66.30027117 69.67293936 66 68 C65.13375 67.9071875 65.13375 67.9071875 64.25 67.8125 C61.07551517 66.66615826 59.87151425 64.74043158 58 62 C58 61.34 58 60.68 58 60 C57.34 60 56.68 60 56 60 C55.195625 59.030625 54.39125 58.06125 53.5625 57.0625 C51.29315623 53.80624673 51.29315623 53.80624673 48 53 C48 52.01 48 51.02 48 50 C44.92539863 47.10109014 41.98542514 45.36643148 38 44 C38 42.68 38 41.36 38 40 C36.68 39.34 35.36 38.68 34 38 C34 37.01 34 36.02 34 35 C33.46375 34.7525 32.9275 34.505 32.375 34.25 C27.19418696 31.5232563 23.74411185 29.23875899 21 24 C18.66349214 19.68107001 18.66349214 19.68107001 14.75 17.125 C14.1725 17.08375 13.595 17.0425 13 17 C12.95875 16.4225 12.9175 15.845 12.875 15.25 C12.1305921 12.6981273 12.1305921 12.6981273 9.1875 11.125 C5.52777222 8.68518148 4.201186 6.72508399 2 3 C0.68 3.33 -0.64 3.66 -2 4 C-1.34 2.68 -0.68 1.36 0 0 Z " fill="#B17D3E" transform="translate(299,119)"/>
<path d="M0 0 C0.66 0 1.32 0 2 0 C-0.75547169 6.51293308 -5.88581721 10.90384153 -11.1328125 15.3984375 C-15.48859258 19.05489754 -15.48859258 19.05489754 -18 24 C-19.33333333 24.66666667 -20.66666667 25.33333333 -22 26 C-23.71358643 27.61838719 -25.3707726 29.29671681 -27 31 C-28.33240219 32.31344525 -29.66580498 33.62587594 -31 34.9375 C-37.07122464 40.75420541 -37.07122464 40.75420541 -41 48 C-41.825 48.804375 -42.65 49.60875 -43.5 50.4375 C-46.03527429 53.03615614 -46.25586722 53.70455483 -47 57 C-48.30973998 58.3565164 -49.64802142 59.68557638 -51 61 C-54.45649565 65.17726459 -54.45649565 65.17726459 -56.51953125 70.09375 C-57 72 -57 72 -59 74 C-59.47516833 75.62914855 -59.94144358 77.26148763 -60.359375 78.90625 C-61.0718288 81.23475754 -62.0836097 83.29987966 -63.125 85.5 C-65.46085629 91.12846553 -65.27812787 96.36791653 -65.04296875 102.38671875 C-64.98342107 107.39413762 -65.65013754 112.17906264 -67 117 C-66.34 117 -65.68 117 -65 117 C-65.03480469 117.68964844 -65.06960937 118.37929688 -65.10546875 119.08984375 C-65.27397809 124.93952501 -64.8535081 129.58506096 -62.65625 135.02734375 C-62 137 -62 137 -62 141 C-61.34 141.33 -60.68 141.66 -60 142 C-60.495 142.99 -60.495 142.99 -61 144 C-60.34 144.33 -59.68 144.66 -59 145 C-57.89855315 146.98888201 -56.86581405 149.0162536 -55.875 151.0625 C-55.33617187 152.16722656 -54.79734375 153.27195312 -54.2421875 154.41015625 C-53.83226562 155.26480469 -53.42234375 156.11945313 -53 157 C-52.34 157 -51.68 157 -51 157 C-50.9175 157.5775 -50.835 158.155 -50.75 158.75 C-50.13509577 161.15372967 -50.13509577 161.15372967 -48.0625 162.9375 C-45.78246172 165.21753828 -45.05476906 166.98637411 -44 170 C-43.34786461 171.34050052 -42.68620031 172.67661368 -42 174 C-41.34 174 -40.68 174 -40 174 C-40 174.66 -40 175.32 -40 176 C-39.01 176.33 -38.02 176.66 -37 177 C-37 177.66 -37 178.32 -37 179 C-36.21625 179.433125 -35.4325 179.86625 -34.625 180.3125 C-31.51258664 182.31333716 -31.28882217 183.64906235 -30 187 C-27.98264795 188.34410262 -27.98264795 188.34410262 -26 189 C-26 189.66 -26 190.32 -26 191 C-25.01 191.33 -24.02 191.66 -23 192 C-23 192.66 -23 193.32 -23 194 C-22.01 194 -21.02 194 -20 194 C-19.8453125 194.9590625 -19.8453125 194.9590625 -19.6875 195.9375 C-19.460625 196.618125 -19.23375 197.29875 -19 198 C-18.01 198.33 -17.02 198.66 -16 199 C-14.28891311 200.62102968 -12.62746694 202.29503463 -11 204 C-10.13375 204.86625 -9.2675 205.7325 -8.375 206.625 C-6.58333333 208.41666667 -4.79166667 210.20833333 -3 212 C-3.33 212.99 -3.66 213.98 -4 215 C-10.62405952 209.56080746 -16.5976379 203.51534411 -22.625 197.4375 C-23.65861797 196.39885344 -24.69247059 195.36044033 -25.7265625 194.32226562 C-27.62987582 192.41085723 -29.53154757 190.4978702 -31.43212891 188.58374023 C-35.9296159 184.03615142 -35.9296159 184.03615142 -40.5 179.5625 C-44.58296255 175.30941401 -47.80957219 170.9011641 -50.7890625 165.83203125 C-51.92135312 163.97269835 -51.92135312 163.97269835 -53.45678711 162.6027832 C-55.99344119 159.96821051 -57.35807896 156.6358487 -58.9375 153.375 C-59.29158936 152.64933838 -59.64567871 151.92367676 -60.01049805 151.17602539 C-60.70561658 149.74623655 -61.39785798 148.31504458 -62.08691406 146.88232422 C-62.80500607 145.40197946 -63.54995818 143.93466185 -64.3046875 142.47265625 C-72.49743171 125.92839373 -72.48736032 103.39493797 -67.40234375 85.9140625 C-57.5731282 57.2865641 -57.5731282 57.2865641 -51 54 C-50.72542969 53.43925781 -50.45085937 52.87851563 -50.16796875 52.30078125 C-48.61953935 49.2505307 -46.51663827 46.77676996 -44.3125 44.1875 C-43.83844727 43.62780518 -43.36439453 43.06811035 -42.87597656 42.49145508 C-38.27300062 37.15244417 -33.31145512 32.20427071 -28.29296875 27.2590332 C-23.14269586 22.1799224 -18.30082252 16.97753503 -13.875 11.25 C-10.50794825 7.2095379 -6.47782968 4.66249332 -2 2 C-1.34 1.34 -0.68 0.68 0 0 Z " fill="#C19E69" transform="translate(229,191)"/>
<path d="M0 0 C0.99 0.33 1.98 0.66 3 1 C-2.59094482 8.0961992 -8.40733584 14.51045142 -15.0625 20.625 C-19.44992235 24.68244908 -23.79866148 28.74804294 -28 33 C-28.72703125 33.70382812 -29.4540625 34.40765625 -30.203125 35.1328125 C-30.87859375 35.79023438 -31.5540625 36.44765625 -32.25 37.125 C-32.93578125 37.78757812 -33.6215625 38.45015625 -34.328125 39.1328125 C-36.21948202 40.99636642 -36.21948202 40.99636642 -37 44 C-37.60585937 44.58394531 -38.21171875 45.16789062 -38.8359375 45.76953125 C-46.487446 53.65583334 -49.86623065 65.53500918 -50.375 76.25 C-50.17854871 85.56179117 -47.6308403 94.3691597 -41 101 C-39.82679771 102.34850838 -38.66054157 103.70308037 -37.5 105.0625 C-34.7742041 108.16426775 -31.95782383 111.11612176 -29 114 C-28.47792969 114.53238281 -27.95585937 115.06476563 -27.41796875 115.61328125 C-24.46532927 118.61924153 -21.46626292 121.5024619 -18.26513672 124.24365234 C-14.04225802 127.91919057 -10.0405299 131.7813691 -6.0703125 135.7265625 C-5.35390594 136.43726898 -4.63749939 137.14797546 -3.89938354 137.88021851 C-2.4006219 139.36960867 -0.9032506 140.86039912 0.59277344 142.35253906 C2.88291882 144.63288493 5.18351561 146.90234646 7.484375 149.171875 C8.94596838 150.62694564 10.40692864 152.08265258 11.8671875 153.5390625 C12.55360321 154.21313141 13.24001892 154.88720032 13.94723511 155.58169556 C17.18818505 158.83796963 19.75735128 161.43997189 21 166 C19.68 166 18.36 166 17 166 C16.5978125 165.071875 16.5978125 165.071875 16.1875 164.125 C15.04443152 161.7004767 15.04443152 161.7004767 12 160 C12 159.01 12 158.02 12 157 C11.01 157 10.02 157 9 157 C8.7525 156.38125 8.505 155.7625 8.25 155.125 C6.75710375 152.58707638 5.59572059 152.2585312 3 151 C1.96434215 149.69417053 0.96873032 148.35622245 0 147 C-2.61144068 144.24740036 -5.28998374 141.73875399 -8.25 139.375 C-11 137 -11 137 -12 134 C-12.639375 133.855625 -13.27875 133.71125 -13.9375 133.5625 C-14.618125 133.376875 -15.29875 133.19125 -16 133 C-16.68486725 131.67592331 -17.34870203 130.34090759 -18 129 C-19.63604196 127.62926214 -21.30678061 126.29944744 -23 125 C-24.66666667 123.33333333 -26.33333333 121.66666667 -28 120 C-28.845625 119.360625 -29.69125 118.72125 -30.5625 118.0625 C-33.36440998 115.6916531 -34.97415316 113.03877027 -37 110 C-38.485 109.505 -38.485 109.505 -40 109 C-41.5703125 107.4765625 -41.5703125 107.4765625 -43.125 105.625 C-43.64320313 105.01914062 -44.16140625 104.41328125 -44.6953125 103.7890625 C-46 102 -46 102 -47 99 C-47.66 98.67 -48.32 98.34 -49 98 C-49.78125 96.22265625 -49.78125 96.22265625 -50.5 94.0625 C-51.42402464 91.29544796 -51.89137369 90.10862631 -54 88 C-54.59265053 84.88907826 -54.65207466 81.72218175 -54.8125 78.5625 C-54.87630859 77.69044922 -54.94011719 76.81839844 -55.00585938 75.91992188 C-55.05162109 75.08138672 -55.09738281 74.24285156 -55.14453125 73.37890625 C-55.18940674 72.6113501 -55.23428223 71.84379395 -55.28051758 71.05297852 C-54.92643948 68.46164456 -53.98185172 67.63007061 -52 66 C-52.66 65.67 -53.32 65.34 -54 65 C-53.34 63.35 -52.68 61.7 -52 60 C-51.34 60 -50.68 60 -50 60 C-49.896875 59.0925 -49.79375 58.185 -49.6875 57.25 C-48.97178534 53.86662163 -48.01623415 52.6883122 -46 50 C-45.9175 49.030625 -45.835 48.06125 -45.75 47.0625 C-44.88663731 43.53710234 -44.31712556 43.20629873 -41.4375 41.25 C-40.47650391 40.66992188 -40.47650391 40.66992188 -39.49609375 40.078125 C-39.00238281 39.72234375 -38.50867188 39.3665625 -38 39 C-38 38.34 -38 37.68 -38 37 C-36.32278959 35.43041807 -34.53205886 34.0519475 -32.7265625 32.6328125 C-30.87942961 30.88597642 -29.99477333 29.32113778 -29 27 C-28.34 27.33 -27.68 27.66 -27 28 C-27 27.34 -27 26.68 -27 26 C-26.34 26 -25.68 26 -25 26 C-24.67 25.01 -24.34 24.02 -24 23 C-22.44140625 21.39453125 -22.44140625 21.39453125 -20.5625 19.8125 C-19.94503906 19.28269531 -19.32757813 18.75289062 -18.69140625 18.20703125 C-17 17 -17 17 -15 17 C-14.731875 16.4225 -14.46375 15.845 -14.1875 15.25 C-12.9611378 12.92636635 -11.75156566 10.96175354 -10 9 C-9.01 9 -8.02 9 -7 9 C-7 8.01 -7 7.02 -7 6 C-3.66666667 3 -3.66666667 3 -1 3 C-0.67 2.01 -0.34 1.02 0 0 Z " fill="#C09A64" transform="translate(265,226)"/>
<path d="M0 0 C1.32 0.33 2.64 0.66 4 1 C4 1.99 4 2.98 4 4 C4.99 3.67 5.98 3.34 7 3 C7.66 4.98 8.32 6.96 9 9 C9.66 9 10.32 9 11 9 C16.95626192 17.52667257 18.15954466 24.71188318 17 35 C15.91525206 40.21402178 14.1739785 43.76802866 11 48 C10.74875174 50.66761764 10.74875174 50.66761764 11 53 C10.34 53 9.68 53 9 53 C9 53.66 9 54.32 9 55 C7.000181 56.89268584 4.87936015 58.59885766 2.75 60.34375 C2.1725 60.8903125 1.595 61.436875 1 62 C1 62.66 1 63.32 1 64 C-0.35546875 65.40234375 -0.35546875 65.40234375 -2.1875 66.9375 C-2.77917969 67.44152344 -3.37085938 67.94554687 -3.98046875 68.46484375 C-6 70 -6 70 -8.265625 71.25390625 C-17.14747395 76.92560122 -26.90322941 86.20267452 -29.62890625 96.56640625 C-30.48305863 102.16784768 -30.60556394 106.78887211 -28 112 C-27.690625 112.66 -27.38125 113.32 -27.0625 114 C-26.711875 114.66 -26.36125 115.32 -26 116 C-25.443125 117.1446875 -25.443125 117.1446875 -24.875 118.3125 C-23.07281255 120.89563534 -21.402006 122.44022761 -19 124.4375 C-16.22006179 126.74907906 -15.04938774 127.89299324 -13.5 131.25 C-11.24139006 135.3907849 -8.43252757 135.69204104 -4 137 C-4 136.34 -4 135.68 -4 135 C-3.01 135 -2.02 135 -1 135 C-0.62875 134.071875 -0.62875 134.071875 -0.25 133.125 C1 131 1 131 2.875 130.09375 C5.30502482 128.84300193 6.53212436 127.48330192 8.25 125.375 C8.77078125 124.74335938 9.2915625 124.11171875 9.828125 123.4609375 C10.21484375 122.97882813 10.6015625 122.49671875 11 122 C11.99 122.495 11.99 122.495 13 123 C11.61308541 126.2221248 10.07563327 128.03354401 7.375 130.25 C3.00599915 133.93884504 -1.00691549 137.91133634 -5 142 C-8.31002696 140.56246045 -10.43889464 138.77516456 -12.9375 136.1875 C-13.63617188 135.46949219 -14.33484375 134.75148438 -15.0546875 134.01171875 C-15.69664062 133.34785156 -16.33859375 132.68398438 -17 132 C-17.845625 131.175 -18.69125 130.35 -19.5625 129.5 C-27.89625625 120.95255769 -34.24082771 113.39047076 -34.1015625 100.97265625 C-33.9783847 98.58016445 -33.58060133 96.3224053 -33 94 C-32.34 94 -31.68 94 -31 94 C-30.7215625 93.01 -30.7215625 93.01 -30.4375 92 C-27.40759074 85.67671111 -21.90581179 80.90581179 -17 76 C-12.68583795 71.30181217 -8.45507992 66.53734966 -4.3125 61.6875 C-2.27480675 59.32658644 -0.50055748 57.61501305 2 55.6875 C8.44731817 50.59203887 13.30809698 41.65203898 14.30078125 33.54296875 C14.35540168 22.56426296 10.40719163 15.61888361 4.05859375 6.91796875 C2.44787862 4.63484883 1.13640624 2.53695015 0 0 Z " fill="#B1854A" transform="translate(306,203)"/>
<path d="M0 0 C0.33 0 0.66 0 1 0 C1.37148484 4.33398977 0.28537994 6.38148176 -2 10 C-2 10.99 -2 11.98 -2 13 C-3.64488294 14.68816933 -5.31337542 16.35353315 -7 18 C-7.33 18.66 -7.66 19.32 -8 20 C-9.44265098 22.88530195 -11.7190066 24.7190066 -14 27 C-15.75498748 29.31321004 -17.47119402 31.64707652 -19.15625 34.01171875 C-21.27099831 36.29224182 -23.0660275 37.06052593 -26 38 C-26 38.99 -26 39.98 -26 41 C-27.71484375 42.75390625 -27.71484375 42.75390625 -29.9375 44.5625 C-32.92648955 46.91285524 -32.92648955 46.91285524 -35 50 C-35.763125 50.433125 -36.52625 50.86625 -37.3125 51.3125 C-40.32530507 53.20426133 -41.85339139 55.1825762 -44 58 C-46.5625 60.8125 -46.5625 60.8125 -49 63 C-50.33333333 63 -51.66666667 63 -53 63 C-54.19961908 64.04672646 -55.36030321 65.13832854 -56.5 66.25 C-57.1290625 66.85328125 -57.758125 67.4565625 -58.40625 68.078125 C-60.08158726 70.09838463 -60.59186868 71.43784229 -61 74 C-61.928125 74.0928125 -61.928125 74.0928125 -62.875 74.1875 C-65.2501999 74.80875315 -65.2501999 74.80875315 -66.0625 77.375 C-66.371875 78.24125 -66.68125 79.1075 -67 80 C-68.68335837 82.08415798 -70.13313308 83.07322319 -72.5 84.375 C-75.95245744 86.61909733 -77.20184082 89.40368163 -79 93 C-80.97485205 94.3703055 -82.97386717 95.70672372 -85 97 C-85.33 96.34 -85.66 95.68 -86 95 C-89.15394039 98.09602087 -92.29671173 101.20314207 -95.4375 104.3125 C-96.33533203 105.19357422 -97.23316406 106.07464844 -98.15820312 106.98242188 C-99.01220703 107.82998047 -99.86621094 108.67753906 -100.74609375 109.55078125 C-101.93223267 110.72120972 -101.93223267 110.72120972 -103.14233398 111.9152832 C-105.20346621 113.95198715 -105.20346621 113.95198715 -106 117 C-109 119 -109 119 -112 119 C-113.00739746 117.33779419 -114.00522955 115.66979326 -115 114 C-117.9901629 110.74064969 -121.22994422 107.73056574 -124.4375 104.6875 C-126 103 -126 103 -126 101 C-122.77762476 102.07412508 -122.25808673 102.63226604 -120.25 105.1875 C-117.17529551 108.92658787 -113.73692536 111.94516159 -110 115 C-104.12135036 110.00529039 -98.61098758 104.73233296 -93.1875 99.25 C-92.37434326 98.43305664 -91.56118652 97.61611328 -90.72338867 96.77441406 C-88.14646703 94.18537329 -85.57282375 91.59311263 -83 89 C-79.60712847 85.58037281 -76.21085343 82.16417851 -72.8125 78.75 C-71.66527466 77.59032715 -71.66527466 77.59032715 -70.49487305 76.40722656 C-66.3914137 72.28530953 -62.19376439 68.3603234 -57.7862854 64.56588745 C-55.39096631 62.46611095 -53.16602682 60.22764043 -50.94921875 57.94140625 C-50.08619141 57.06162109 -49.22316406 56.18183594 -48.33398438 55.27539062 C-46.54646656 53.44301996 -44.76269942 51.60698402 -42.98242188 49.76757812 C-42.12583984 48.89681641 -41.26925781 48.02605469 -40.38671875 47.12890625 C-39.61545654 46.33556885 -38.84419434 45.54223145 -38.04956055 44.72485352 C-36 43 -36 43 -33 43 C-26.96352791 38.09082089 -22.02243528 31.80378407 -17.19140625 25.74609375 C-15.78817264 23.98767445 -14.36037594 22.24841195 -12.90234375 20.53515625 C-7.52267587 14.1396744 -3.73307845 7.44282516 0 0 Z " fill="#B37C3A" transform="translate(410,287)"/>
<path d="M0 0 C4.55347626 1.47987978 6.25360755 5.1395387 8.5 9.0625 C8.89437256 9.73627686 9.28874512 10.41005371 9.69506836 11.10424805 C17 23.75328994 17 23.75328994 17 28 C17.66 28.33 18.32 28.66 19 29 C25.33502506 43.09063149 24.54355402 57.86912852 24 73 C23.67 73 23.34 73 23 73 C22.94392578 71.13408203 22.94392578 71.13408203 22.88671875 69.23046875 C22.44756178 57.04693773 22.44756178 57.04693773 19.62109375 45.2265625 C18.92600672 42.73474108 18.89537613 40.57465701 19 38 C18.34 38 17.68 38 17 38 C15.44551621 35.40919368 14.95063125 33.6121027 14.5625 30.5625 C13.99090416 26.94239303 12.98242498 25.01673367 11 22 C11 21.34 11 20.68 11 20 C10.01 19.67 9.02 19.34 8 19 C8 18.34 8 17.68 8 17 C5.3867321 18.85457722 4.13365531 20.27526558 3.546875 23.45703125 C3.392616 25.25414856 3.26809117 27.05410667 3.17578125 28.85546875 C3 31 3 31 2 32 C1.76924918 33.34747084 1.58846937 34.70377565 1.4375 36.0625 C1.293125 37.361875 1.14875 38.66125 1 40 C0.34 39.34 -0.32 38.68 -1 38 C-2.31727753 43.0056546 -3.35812082 47.86496656 -4 53 C-4.66 52.34 -5.32 51.68 -6 51 C-6.3403125 51.67804688 -6.680625 52.35609375 -7.03125 53.0546875 C-10.68608227 60.07274308 -14.87529317 65.99260955 -20 72 C-20.96649615 73.15204994 -21.93261944 74.30441277 -22.8984375 75.45703125 C-28.34076737 81.91343305 -33.8612835 88.18627438 -40 94 C-40.33 93.01 -40.66 92.02 -41 91 C-40.27296875 90.41605469 -40.27296875 90.41605469 -39.53125 89.8203125 C-34.52661319 85.64336562 -30.56779841 81.15934807 -26.6640625 75.94140625 C-26.11492187 75.30074219 -25.56578125 74.66007812 -25 74 C-24.34 74 -23.68 74 -23 74 C-22.74605469 73.44054687 -22.49210937 72.88109375 -22.23046875 72.3046875 C-20.8266527 69.67531776 -19.13628893 67.48266821 -17.3125 65.125 C-7.16850996 51.26216061 -1.42441297 35.44871371 -0.4375 18.3125 C-0.37381226 17.25772461 -0.37381226 17.25772461 -0.30883789 16.18164062 C-0.00151192 10.78457613 0.11695317 5.40583545 0 0 Z " fill="#A77230" transform="translate(416,238)"/>
<path d="M0 0 C0.99 0 1.98 0 3 0 C3.2475 0.94875 3.495 1.8975 3.75 2.875 C4.67274377 6.03755399 4.67274377 6.03755399 6.875 7.25 C7.57625 7.4975 8.2775 7.745 9 8 C10.33333333 8.66666667 11.66666667 9.33333333 13 10 C12.67 10.99 12.34 11.98 12 13 C12.99 13.33 13.98 13.66 15 14 C16.68873879 15.64429829 18.35305515 17.31384218 20 19 C20.928125 19.721875 21.85625 20.44375 22.8125 21.1875 C23.534375 21.785625 24.25625 22.38375 25 23 C25 23.66 25 24.32 25 25 C25.66 25 26.32 25 27 25 C27.61875 25.94875 28.2375 26.8975 28.875 27.875 C30.99959315 30.99940169 31.78453536 31.49944983 35 33 C36.125 35.0625 36.125 35.0625 37 37 C37.99 37.495 37.99 37.495 39 38 C39 38.66 39 39.32 39 40 C39.99 40.33 40.98 40.66 42 41 C42 41.66 42 42.32 42 43 C42.66 43 43.32 43 44 43 C44 43.66 44 44.32 44 45 C44.94875 45.2475 45.8975 45.495 46.875 45.75 C50 47 50 47 51.25 49.0625 C51.4975 49.701875 51.745 50.34125 52 51 C52.99 51.495 52.99 51.495 54 52 C54.1546875 52.9590625 54.1546875 52.9590625 54.3125 53.9375 C54.539375 54.618125 54.76625 55.29875 55 56 C55.70125 56.2475 56.4025 56.495 57.125 56.75 C60.89957857 58.39112112 62.69034123 60.8363031 65.28515625 63.96484375 C66.76265163 65.71831777 68.27686097 67.29903944 69.9375 68.875 C72 71 72 71 72 73 C76.87685861 71.64531705 78.48592381 69.28324091 81 65 C82.98 65.495 82.98 65.495 85 66 C83.51559252 70.7006237 83.51559252 70.7006237 81.0625 72.125 C80.381875 72.41375 79.70125 72.7025 79 73 C78.525625 73.556875 78.05125 74.11375 77.5625 74.6875 C76 76 76 76 73.78283691 75.93513489 C69.94991266 74.64713228 67.66617348 72.18508198 64.91210938 69.3503418 C64.3244429 68.76165314 63.73677643 68.17296448 63.13130188 67.56643677 C61.19262178 65.61987849 59.26839043 63.65965127 57.34375 61.69921875 C55.99618885 60.34165216 54.64766366 58.98504189 53.29821777 57.62934875 C49.74701834 54.05721236 46.20754915 50.47368106 42.6708374 46.88720703 C37.01325448 41.1543848 31.33703044 35.44000427 25.66279602 29.72367287 C23.68494545 27.7281703 21.71140877 25.72848362 19.73864746 23.72795105 C18.5217832 22.49786054 17.30486699 21.2678214 16.08789062 20.0378418 C15.54332718 19.4833989 14.99876373 18.92895599 14.43769836 18.35771179 C11.44261961 15.3369049 8.36559206 12.61528459 5 10 C3.83715899 8.84952964 2.70663274 7.66463156 1.625 6.4375 C1.10164062 5.85871094 0.57828125 5.27992188 0.0390625 4.68359375 C-0.30382812 4.12800781 -0.64671875 3.57242187 -1 3 C-0.67 2.01 -0.34 1.02 0 0 Z " fill="#BA935A" transform="translate(226,404)"/>
<path d="M0 0 C0.598125 0.350625 1.19625 0.70125 1.8125 1.0625 C-0.39139144 2.20525852 -2.43239205 3.13829992 -4.8125 3.875 C-7.92125409 5.42937704 -8.02275593 6.87886621 -9.1875 10.0625 C-12.49784483 13.0625 -12.49784483 13.0625 -15.1875 13.0625 C-15.4040625 13.77792969 -15.620625 14.49335938 -15.84375 15.23046875 C-17.54130925 18.80817356 -19.73449802 20.75226798 -22.6875 23.375 C-23.6671875 24.25800781 -24.646875 25.14101562 -25.65625 26.05078125 C-28.1875 28.0625 -28.1875 28.0625 -30.1875 28.0625 C-30.8475 29.3825 -31.5075 30.7025 -32.1875 32.0625 C-32.8475 32.0625 -33.5075 32.0625 -34.1875 32.0625 C-34.39375 32.784375 -34.6 33.50625 -34.8125 34.25 C-36.27097973 37.23325399 -37.88298779 38.60800519 -40.4765625 40.61328125 C-43.1231234 42.85500293 -45.2647872 45.49570274 -47.515625 48.125 C-49.63807218 50.58465842 -51.78901697 52.86960123 -54.1875 55.0625 C-54.8475 55.0625 -55.5075 55.0625 -56.1875 55.0625 C-57.1775 57.5375 -57.1775 57.5375 -58.1875 60.0625 C-59.1775 60.0625 -60.1675 60.0625 -61.1875 60.0625 C-61.414375 60.619375 -61.64125 61.17625 -61.875 61.75 C-64.63877396 66.6195065 -68.00412135 69.20179997 -73.1875 71.0625 C-74.55115283 72.02074253 -75.89544169 73.00971175 -77.1875 74.0625 C-75.62950307 70.29371414 -73.278134 67.94978855 -70.375 65.125 C-69.52292969 64.29097656 -68.67085937 63.45695312 -67.79296875 62.59765625 C-66.93316406 61.76105469 -66.07335937 60.92445313 -65.1875 60.0625 C-61.60001631 56.53436453 -61.60001631 56.53436453 -58.375 52.6875 C-55.88180423 49.69566507 -53.09822892 47.34756538 -50.140625 44.828125 C-48.40553185 43.25960079 -46.95518545 41.69858683 -45.5 39.875 C-43.24782072 37.13586304 -40.97862332 35.22562057 -38.1875 33.0625 C-36.49816078 31.4188186 -34.83490076 29.7482124 -33.1875 28.0625 C-32.51976562 27.40507812 -31.85203125 26.74765625 -31.1640625 26.0703125 C-30.44992187 25.36648437 -29.73578125 24.66265625 -29 23.9375 C-27.98873047 22.94363281 -27.98873047 22.94363281 -26.95703125 21.9296875 C-25.01196642 19.98306683 -25.01196642 19.98306683 -23.1875 17.0625 C-21.59577649 15.70784169 -20.00160658 14.35594127 -18.39453125 13.01953125 C-15.10116745 10.09922105 -12.05166295 6.93501519 -9.00805664 3.7578125 C-3.76880579 -1.61520248 -3.76880579 -1.61520248 0 0 Z " fill="#BA8F54" transform="translate(301.1875,121.9375)"/>
<path d="M0 0 C0.33 0 0.66 0 1 0 C1.9128325 23.81556599 1.45659039 41.85249892 -15.34152222 60.48828125 C-18.55115362 63.89929708 -21.89398444 67.1715598 -25.25 70.4375 C-26.22728 71.39966239 -27.20384486 72.36255171 -28.1796875 73.32617188 C-29.96816276 75.08878075 -31.75973739 76.84825548 -33.55566406 78.60327148 C-36.05369407 81.05264829 -38.52964431 83.52273959 -41 86 C-47.33333333 92.33333333 -53.66666667 98.66666667 -60 105 C-60.66 104.67 -61.32 104.34 -62 104 C-61.16227051 103.16750732 -60.32454102 102.33501465 -59.46142578 101.47729492 C-56.3540713 98.38804027 -53.25002724 95.29547754 -50.14697266 92.2019043 C-48.80347319 90.86343362 -47.45907756 89.52586184 -46.11376953 88.18920898 C-44.18025201 86.26782054 -42.24997998 84.34322285 -40.3203125 82.41796875 C-39.71816925 81.82098679 -39.116026 81.22400482 -38.49563599 80.6089325 C-37.93520599 80.04857803 -37.374776 79.48822357 -36.79736328 78.91088867 C-36.30438751 78.42013351 -35.81141174 77.92937836 -35.30349731 77.42375183 C-33.7726713 75.82446478 -33.7726713 75.82446478 -32 73 C-30.38786551 71.62296846 -28.77383246 70.24807275 -27.1484375 68.88671875 C-19.67221901 62.67169504 -19.67221901 62.67169504 -14 55 C-14.99 54.505 -14.99 54.505 -16 54 C-15.34 54 -14.68 54 -14 54 C-13.67 53.01 -13.34 52.02 -13 51 C-12.67 51.66 -12.34 52.32 -12 53 C-10.9923048 51.2335343 -9.99408286 49.46166177 -9 47.6875 C-8.443125 46.70136719 -7.88625 45.71523438 -7.3125 44.69921875 C-5.78135247 42.05057529 -5.78135247 42.05057529 -6 39 C-5.6937566 37.66018514 -5.36548445 36.32488113 -5 35 C-4.34 35 -3.68 35 -3 35 C-3.18304688 34.42507813 -3.36609375 33.85015625 -3.5546875 33.2578125 C-4.05445904 30.72388309 -3.77453123 29.35745497 -3.125 26.875 C-1.81233129 20.99882532 -1.57970651 15.15412601 -1.34228516 9.15771484 C-1.20439696 5.89109455 -1.03989849 3.11969548 0 0 Z " fill="#AE7B3D" transform="translate(380,222)"/>
<path d="M0 0 C0.66 0 1.32 0 2 0 C0.27832315 6.16934206 -2.49322074 9.77428169 -7.32421875 13.83984375 C-13.58585714 19.28113364 -19.346794 25.241114 -25.1875 31.125 C-26.36109203 32.30362055 -27.5349186 33.48200762 -28.70898438 34.66015625 C-31.34338272 37.30444899 -33.97535314 39.95113316 -36.60551453 42.59963989 C-37.98605496 43.98599622 -39.37288315 45.36608189 -40.75976562 46.74609375 C-42.72354523 48.72185806 -44.5271922 50.73971872 -46.3125 52.875 C-49.17442217 56.17721789 -52.20466551 58.97689045 -55.53515625 61.79296875 C-61.27019257 66.9281439 -66.59261702 72.52426526 -72 78 C-72.66 77.67 -73.32 77.34 -74 77 C-73.3387915 76.35450195 -72.67758301 75.70900391 -71.99633789 75.04394531 C-69.54332283 72.64210221 -67.09724108 70.23361303 -64.65551758 67.8203125 C-63.59799071 66.77785843 -62.5377851 65.73811451 -61.47485352 64.70117188 C-59.94613211 63.20889965 -58.42735665 61.70709824 -56.91015625 60.203125 C-55.53549194 58.85202637 -55.53549194 58.85202637 -54.13305664 57.47363281 C-52.04564478 55.05293269 -51.64156924 53.98767974 -51 51 C-49.01679982 49.96708324 -47.01652194 48.9662501 -45 48 C-44.67 47.01 -44.34 46.02 -44 45 C-43.34 45 -42.68 45 -42 45 C-41.773125 44.29875 -41.54625 43.5975 -41.3125 42.875 C-39.03492543 37.88602714 -36.05765551 34.19165072 -31 32 C-30.505 31.505 -30.01 31.01 -29.5 30.5 C-28 29 -28 29 -25.875 28 C-23.6469565 27.08797022 -23.6469565 27.08797022 -23 24 C-22.39414062 23.71382813 -21.78828125 23.42765625 -21.1640625 23.1328125 C-18.24423773 21.60438437 -17.15234132 19.6232238 -15.375 16.875 C-14.29935854 15.21691513 -13.18491999 13.581839 -12 12 C-11.34 12 -10.68 12 -10 12 C-10 11.34 -10 10.68 -10 10 C-8.35 9.34 -6.7 8.68 -5 8 C-5 7.34 -5 6.68 -5 6 C-4.34 6 -3.68 6 -3 6 C-2.5359375 5.071875 -2.5359375 5.071875 -2.0625 4.125 C-1.375 2.75 -0.6875 1.375 0 0 Z " fill="#B28142" transform="translate(384,392)"/>
<path d="M0 0 C1.32 0.66 2.64 1.32 4 2 C3.67 2.66 3.34 3.32 3 4 C2.360625 4.103125 1.72125 4.20625 1.0625 4.3125 C0.0415625 4.6528125 0.0415625 4.6528125 -1 5 C-2.10636395 7.39068734 -2.10636395 7.39068734 -3 10 C-4.68335837 12.08415798 -6.13313308 13.07322319 -8.5 14.375 C-11.95245744 16.61909733 -13.20184082 19.40368163 -15 23 C-16.97485205 24.3703055 -18.97386717 25.70672372 -21 27 C-21.495 26.01 -21.495 26.01 -22 25 C-25.15394039 28.09602087 -28.29671173 31.20314207 -31.4375 34.3125 C-32.33533203 35.19357422 -33.23316406 36.07464844 -34.15820312 36.98242188 C-35.01220703 37.82998047 -35.86621094 38.67753906 -36.74609375 39.55078125 C-37.53685303 40.33106689 -38.3276123 41.11135254 -39.14233398 41.9152832 C-41.20346621 43.95198715 -41.20346621 43.95198715 -42 47 C-45 49 -45 49 -48 49 C-49.00739746 47.33779419 -50.00522955 45.66979326 -51 44 C-53.9901629 40.74064969 -57.22994422 37.73056574 -60.4375 34.6875 C-62 33 -62 33 -62 31 C-58.77762476 32.07412508 -58.25808673 32.63226604 -56.25 35.1875 C-53.17529551 38.92658787 -49.73692536 41.94516159 -46 45 C-40.02747 39.92657355 -34.42781116 34.56154524 -28.90625 29.00390625 C-28.07411987 28.17036118 -27.24198975 27.3368161 -26.38464355 26.47801208 C-23.75405065 23.84186738 -21.12697559 21.20224895 -18.5 18.5625 C-16.70596145 16.76344021 -14.91169285 14.9646098 -13.1171875 13.16601562 C-8.74212875 8.77999188 -4.36994488 4.39111858 0 0 Z " fill="#B28244" transform="translate(346,357)"/>
<path d="M0 0 C1 3 1 3 0.9375 6.875 C0.89250917 10.38428439 1.40973996 12.81947991 3 16 C3.309375 16.66 3.61875 17.32 3.9375 18 C4.288125 18.66 4.63875 19.32 5 20 C5.37125 20.763125 5.7425 21.52625 6.125 22.3125 C7.92718745 24.89563534 9.597994 26.44022761 12 28.4375 C14.77993821 30.74907906 15.95061226 31.89299324 17.5 35.25 C19.75860994 39.3907849 22.56747243 39.69204104 27 41 C27 40.34 27 39.68 27 39 C27.99 39 28.98 39 30 39 C30.2475 38.38125 30.495 37.7625 30.75 37.125 C32 35 32 35 33.875 34.09375 C36.30502482 32.84300193 37.53212436 31.48330192 39.25 29.375 C39.77078125 28.74335938 40.2915625 28.11171875 40.828125 27.4609375 C41.21484375 26.97882813 41.6015625 26.49671875 42 26 C42.66 26.33 43.32 26.66 44 27 C42.61308541 30.2221248 41.07563327 32.03354401 38.375 34.25 C34.00599915 37.93884504 29.99308451 41.91133634 26 46 C22.68997304 44.56246045 20.56110536 42.77516456 18.0625 40.1875 C17.36382812 39.46949219 16.66515625 38.75148438 15.9453125 38.01171875 C15.30335938 37.34785156 14.66140625 36.68398438 14 36 C13.154375 35.175 12.30875 34.35 11.4375 33.5 C-1.92678074 19.79304539 -1.92678074 19.79304539 -2.05078125 11.67578125 C-1.46370712 2.92741423 -1.46370712 2.92741423 0 0 Z " fill="#B2874D" transform="translate(275,299)"/>
<path d="M0 0 C3.96372738 1.840302 7.03857397 3.77751658 9.76318359 7.24194336 C12.25089705 10.30936302 14.97051885 13.05985451 17.7890625 15.81640625 C18.90638282 16.92108963 20.02356628 18.02591146 21.140625 19.13085938 C22.88774414 20.85311112 24.6364295 22.57371263 26.38769531 24.29174805 C28.08839391 25.96222998 29.7828074 27.63888859 31.4765625 29.31640625 C32.00053619 29.82692032 32.52450989 30.33743439 33.06436157 30.86341858 C35.63899567 33.42020689 37.53706653 35.68127485 39 39 C40.49377563 40.62859293 42.03988064 42.21016976 43.625 43.75 C44.44226563 44.54921875 45.25953125 45.3484375 46.1015625 46.171875 C46.72804688 46.77515625 47.35453125 47.3784375 48 48 C47.01 48 46.02 48 45 48 C44.34 47.34 43.68 46.68 43 46 C41.35008418 45.29289322 39.68437744 44.62056011 38 44 C38 42.68 38 41.36 38 40 C36.68 39.34 35.36 38.68 34 38 C34 37.01 34 36.02 34 35 C33.46375 34.7525 32.9275 34.505 32.375 34.25 C27.19418696 31.5232563 23.74411185 29.23875899 21 24 C18.66349214 19.68107001 18.66349214 19.68107001 14.75 17.125 C14.1725 17.08375 13.595 17.0425 13 17 C12.95875 16.4225 12.9175 15.845 12.875 15.25 C12.1305921 12.6981273 12.1305921 12.6981273 9.1875 11.125 C5.52777222 8.68518148 4.201186 6.72508399 2 3 C0.68 3.33 -0.64 3.66 -2 4 C-1.34 2.68 -0.68 1.36 0 0 Z " fill="#B5864A" transform="translate(299,119)"/>
<path d="M0 0 C2.86610111 1.3024444 4.94365211 2.68885087 7.17626953 4.90161133 C7.77013458 5.48594437 8.36399963 6.0702774 8.9758606 6.6723175 C9.60515472 7.30252304 10.23444885 7.93272858 10.8828125 8.58203125 C11.53829071 9.23322433 12.19376892 9.88441742 12.86911011 10.55534363 C14.2517127 11.93221086 15.6317122 13.31169629 17.00927734 14.69360352 C19.115617 16.80310293 21.23492046 18.89893655 23.35546875 20.99414062 C24.69872726 22.33512602 26.04120182 23.67689726 27.3828125 25.01953125 C28.01615509 25.64366409 28.64949768 26.26779694 29.30203247 26.9108429 C32.43208548 30.07407791 34.75106386 32.60480549 36 37 C34.68 37 33.36 37 32 37 C31.731875 36.38125 31.46375 35.7625 31.1875 35.125 C30.04443152 32.7004767 30.04443152 32.7004767 27 31 C27 30.01 27 29.02 27 28 C26.01 28 25.02 28 24 28 C23.7525 27.38125 23.505 26.7625 23.25 26.125 C21.75710375 23.58707638 20.59572059 23.2585312 18 22 C16.96434215 20.69417053 15.96873032 19.35622245 15 18 C12.83534077 15.78122429 10.65277453 13.6025611 8.375 11.5 C6.56343284 9.52374492 5.37013469 7.30182628 4 5 C2.68962066 3.31522656 1.36176922 1.64351457 0 0 Z " fill="#BA9159" transform="translate(250,355)"/>
<path d="M0 0 C0.99 0.33 1.98 0.66 3 1 C-2.59094482 8.0961992 -8.40733584 14.51045142 -15.0625 20.625 C-19.44954698 24.68210194 -23.8069508 28.74027687 -28 33 C-30 35 -32 37 -34 39 C-34.66 38.67 -35.32 38.34 -36 38 C-35.40985107 37.42032471 -34.81970215 36.84064941 -34.21166992 36.2434082 C-32.0103171 34.07627892 -29.81360727 31.90457534 -27.61987305 29.72973633 C-26.20776623 28.33255206 -24.79044107 26.94064824 -23.37304688 25.54882812 C-22.48037109 24.66259766 -21.58769531 23.77636719 -20.66796875 22.86328125 C-19.84578857 22.05157471 -19.0236084 21.23986816 -18.17651367 20.40356445 C-16.04891722 18.05402019 -14.53641229 15.76196974 -13 13 C-11.5 10.6875 -11.5 10.6875 -10 9 C-9.01 9 -8.02 9 -7 9 C-7 8.01 -7 7.02 -7 6 C-3.66666667 3 -3.66666667 3 -1 3 C-0.67 2.01 -0.34 1.02 0 0 Z " fill="#B79057" transform="translate(265,226)"/>
<path d="M0 0 C5.726308 1.86981486 8.56923424 4.35053821 12.35546875 9 C13.80102776 10.75801951 15.28735698 12.31317449 16.9375 13.875 C19 16 19 16 19 18 C23.87685861 16.64531705 25.48592381 14.28324091 28 10 C29.32 10.33 30.64 10.66 32 11 C30.51559252 15.7006237 30.51559252 15.7006237 28.0625 17.125 C27.381875 17.41375 26.70125 17.7025 26 18 C25.525625 18.556875 25.05125 19.11375 24.5625 19.6875 C23 21 23 21 20.67895508 20.82983398 C17.4204563 19.82048036 15.96506581 18.45299461 13.57421875 16.03515625 C12.77822266 15.23529297 11.98222656 14.43542969 11.16210938 13.61132812 C10.34548828 12.77021484 9.52886719 11.92910156 8.6875 11.0625 C7.85154297 10.22525391 7.01558594 9.38800781 6.15429688 8.52539062 C0 2.28066327 0 2.28066327 0 0 Z " fill="#B78C51" transform="translate(279,459)"/>
<path d="M0 0 C0 3 0 3 -1.9375 5.125 C-2.95617321 6.08562915 -3.97741271 7.04353845 -5 8 C-13.96207996 15.98334372 -13.96207996 15.98334372 -20 26 C-20.825 26.804375 -21.65 27.60875 -22.5 28.4375 C-25.03527429 31.03615614 -25.25586722 31.70455483 -26 35 C-27.30973998 36.3565164 -28.64802142 37.68557638 -30 39 C-33.47307944 43.16335069 -33.47307944 43.16335069 -35.45703125 48.09375 C-36 50 -36 50 -39 52 C-33.15174417 31.01508202 -15.09309747 14.86325335 0 0 Z " fill="#C6A16E" transform="translate(208,213)"/>
<path d="M0 0 C0.495 0.99 0.495 0.99 1 2 C-2.50971195 6.18512044 -6.08917065 10.18012017 -10 14 C-10.73992187 14.76183594 -11.47984375 15.52367187 -12.2421875 16.30859375 C-13.04914063 17.13488281 -13.85609375 17.96117187 -14.6875 18.8125 C-15.45449219 19.60269531 -16.22148437 20.39289063 -17.01171875 21.20703125 C-19 23 -19 23 -21 23 C-21.99 25.475 -21.99 25.475 -23 28 C-23.99 28 -24.98 28 -26 28 C-26.226875 28.556875 -26.45375 29.11375 -26.6875 29.6875 C-28.37550036 32.66159588 -30.46676517 34.72008865 -33 37 C-33.66 37 -34.32 37 -35 37 C-34.1875 35.0625 -34.1875 35.0625 -33 33 C-31.515 32.505 -31.515 32.505 -30 32 C-29.32854151 30.66907336 -28.6629809 29.33516986 -28 28 C-26.3863494 26.20099764 -24.71381615 24.4538521 -23 22.75 C-21.6696875 21.41195312 -21.6696875 21.41195312 -20.3125 20.046875 C-18 18 -18 18 -16 18 C-15.73719238 17.4112207 -15.47438477 16.82244141 -15.20361328 16.21582031 C-13.94383819 13.89660759 -12.61995979 12.39050597 -10.7421875 10.546875 C-10.11699219 9.928125 -9.49179687 9.309375 -8.84765625 8.671875 C-8.19667969 8.03765625 -7.54570312 7.4034375 -6.875 6.75 C-6.21628906 6.1003125 -5.55757813 5.450625 -4.87890625 4.78125 C-3.25703357 3.18288273 -1.6306719 1.58938103 0 0 Z " fill="#BF955E" transform="translate(266,154)"/>
<path d="M0 0 C1 3 1 3 0.9375 6.875 C0.89250917 10.38428439 1.40973996 12.81947991 3 16 C3.309375 16.66 3.61875 17.32 3.9375 18 C4.288125 18.66 4.63875 19.32 5 20 C5.37125 20.763125 5.7425 21.52625 6.125 22.3125 C7.93923061 24.91289721 9.64524087 26.48488886 12.0625 28.5 C15.1375361 31.07851651 17.02394012 32.97375298 18 37 C17.54109375 36.60167969 17.0821875 36.20335937 16.609375 35.79296875 C12.82434414 32.51324748 12.82434414 32.51324748 8.875 29.4375 C3.81939257 25.5615343 -0.34296611 21.25108593 -2 15 C-2.18665158 4.37330317 -2.18665158 4.37330317 0 0 Z " fill="#B98F57" transform="translate(275,299)"/>
<path d="M0 0 C0.598125 0.763125 1.19625 1.52625 1.8125 2.3125 C3.79686426 4.86938426 3.79686426 4.86938426 5.49609375 6.4140625 C7.17302509 8.18246282 8.16028425 9.88713461 9.25 12.0625 C9.78367187 13.10083984 9.78367187 13.10083984 10.328125 14.16015625 C10.54984375 14.76730469 10.7715625 15.37445313 11 16 C10.67 16.66 10.34 17.32 10 18 C7 13.25 7 13.25 7 11 C6.01 10.67 5.02 10.34 4 10 C4 9.34 4 8.68 4 8 C1.85339866 9.38565053 1.85339866 9.38565053 0 12 C-0.41151774 14.60347956 -0.56246585 17.12364609 -0.62890625 19.7578125 C-0.75136719 20.49773437 -0.87382812 21.23765625 -1 22 C-1.99 22.66 -2.98 23.32 -4 24 C-3.52771419 20.18661421 -3.04602494 16.37447568 -2.5625 12.5625 C-2.42779297 11.47388672 -2.29308594 10.38527344 -2.15429688 9.26367188 C-2.02216797 8.22919922 -1.89003906 7.19472656 -1.75390625 6.12890625 C-1.63345947 5.17056885 -1.5130127 4.21223145 -1.38891602 3.22485352 C-1 1 -1 1 0 0 Z " fill="#B5762F" transform="translate(420,247)"/>
<path d="M0 0 C1.32 0.33 2.64 0.66 4 1 C4 1.99 4 2.98 4 4 C4.99 3.67 5.98 3.34 7 3 C7.66 4.98 8.32 6.96 9 9 C9.66 9 10.32 9 11 9 C12.03307771 10.76371818 13.05112049 12.53625033 14.0625 14.3125 C14.63097656 15.29863281 15.19945312 16.28476563 15.78515625 17.30078125 C17 20 17 20 16 23 C12.91993854 20.1288705 10.74257346 17.21985555 8.5625 13.625 C6.55285235 10.38097825 4.56674408 7.31880355 2.0625 4.4375 C0 2 0 2 0 0 Z " fill="#B4874C" transform="translate(306,203)"/>
<path d="M0 0 C3.22237524 1.07412508 3.74191327 1.63226604 5.75 4.1875 C8.77021289 7.82377622 11.95883959 11.48119454 16 14 C17.32 14 18.64 14 20 14 C20 14.66 20 15.32 20 16 C17 18 17 18 14 18 C12.99260254 16.33779419 11.99477045 14.66979326 11 13 C8.0098371 9.74064969 4.77005578 6.73056574 1.5625 3.6875 C0 2 0 2 0 0 Z " fill="#B3874C" transform="translate(284,388)"/>
<path d="M0 0 C0.99 0.33 1.98 0.66 3 1 C0.7747323 3.2252677 -1.45092832 5.45010252 -3.6796875 7.671875 C-4.98744459 8.98403531 -6.2893443 10.30230002 -7.5703125 11.640625 C-9.86406709 14.0353625 -11.91211302 15.74197197 -15 17 C-13.63029745 14.04987143 -12.17390875 11.4347778 -10 9 C-9.01 9 -8.02 9 -7 9 C-7 8.01 -7 7.02 -7 6 C-3.66666667 3 -3.66666667 3 -1 3 C-0.67 2.01 -0.34 1.02 0 0 Z " fill="#BF955D" transform="translate(265,226)"/>
<path d="M0 0 C0.66 0.33 1.32 0.66 2 1 C3.63428468 7.88119867 3.52643597 14.75995905 0 21 C-1.88517377 23.04306903 -3.68928833 24.4081764 -6 26 C-4.93788265 23.22215463 -3.79059809 20.58957226 -2.4375 17.9375 C-0.28529408 13.539514 0.12071787 10.1403011 0.0625 5.25 C0.04896484 3.77273437 0.04896484 3.77273437 0.03515625 2.265625 C0.02355469 1.51796875 0.01195312 0.7703125 0 0 Z " fill="#B8874C" transform="translate(322,227)"/>
<path d="M0 0 C1.34846932 4.04540795 0.21885848 5.84911463 -1.25 9.8125 C-1.68828125 11.01519531 -2.1265625 12.21789062 -2.578125 13.45703125 C-3.8961562 16.74124636 -5.36652713 19.86277122 -7 23 C-7.66 23 -8.32 23 -9 23 C-6.46841155 13.46818592 -6.46841155 13.46818592 -3.9375 9.25 C-2.11409532 6.1913857 -0.99613786 3.40347102 0 0 Z " fill="#B47A39" transform="translate(436,320)"/>
<path d="M0 0 C0.99 0.33 1.98 0.66 3 1 C-2.61 6.61 -8.22 12.22 -14 18 C-14.33 17.34 -14.66 16.68 -15 16 C-14.04882866 14.8274869 -13.08882991 13.66212985 -12.125 12.5 C-11.59132813 11.8503125 -11.05765625 11.200625 -10.5078125 10.53125 C-9.76144531 9.77328125 -9.76144531 9.77328125 -9 9 C-8.34 9 -7.68 9 -7 9 C-6.67 8.01 -6.34 7.02 -6 6 C-4.37446717 4.29319053 -2.70884005 2.62339805 -1 1 C-0.67 0.67 -0.34 0.34 0 0 Z " fill="#B78446" transform="translate(363,278)"/>
<path d="M0 0 C2.32774326 4.65548653 3.15745571 7.95794386 3.25 13.125 C3.27578125 13.99382812 3.3015625 14.86265625 3.328125 15.7578125 C3.21984375 16.49773437 3.1115625 17.23765625 3 18 C2.01 18.66 1.02 19.32 0 20 C0 13.4 0 6.8 0 0 Z " fill="#B5742A" transform="translate(436,284)"/>
<path d="M0 0 C3.84375 1.6875 3.84375 1.6875 5.25 4.5 C6 7 6 7 6 9 C5.01 9.33 4.02 9.66 3 10 C1.79117904 12.00016466 1.79117904 12.00016466 1 14 C-0.20568053 9.32798795 -0.09382426 4.78503708 0 0 Z " fill="#A2783D" transform="translate(416,238)"/>
<path d="M0 0 C0.99 0.33 1.98 0.66 3 1 C-1.29 5.29 -5.58 9.58 -10 14 C-10.33 13.01 -10.66 12.02 -11 11 C-9.68 10.34 -8.36 9.68 -7 9 C-7 8.34 -7 7.68 -7 7 C-6.34 7 -5.68 7 -5 7 C-5 6.34 -5 5.68 -5 5 C-4.34 5 -3.68 5 -3 5 C-3 4.01 -3 3.02 -3 2 C-2.01 2 -1.02 2 0 2 C0 1.34 0 0.68 0 0 Z " fill="#BF9459" transform="translate(284,207)"/>
<path d="M0 0 C3.43478571 1.42762698 3.90490707 1.8024993 5.625 5.375 C6.07875 6.57125 6.5325 7.7675 7 9 C7.65288627 10.34013497 8.31225595 11.67741528 9 13 C4.50396831 10.70202825 2.71255912 9.12004852 1.125 4.25 C0.72902442 2.83905252 0.34682928 1.42382545 0 0 Z " fill="#C5A373" transform="translate(178,352)"/>
<path d="M0 0 C1.32 0.66 2.64 1.32 4 2 C3 4 3 4 0.125 5 C-0.90625 5.33 -1.9375 5.66 -3 6 C-3.99 6.66 -4.98 7.32 -6 8 C-4.55746343 4.63408134 -2.66735273 2.48952921 0 0 Z " fill="#B4803E" transform="translate(346,357)"/>
<path d="M0 0 C2 1 2 1 2.88671875 3.07421875 C4.41800778 8.07144978 5.50225103 11.81040552 4 17 C2.48300584 14.19547298 1.54691437 11.6142698 0.875 8.5 C0.70742187 7.7471875 0.53984375 6.994375 0.3671875 6.21875 C0 4 0 4 0 0 Z " fill="#BB965E" transform="translate(213,307)"/>
<path d="M0 0 C1.96529009 3.45207476 2.7746477 6.88476226 3.625 10.75 C3.88539063 11.92046875 4.14578125 13.0909375 4.4140625 14.296875 C4.60742188 15.18890625 4.80078125 16.0809375 5 17 C4.34 17 3.68 17 3 17 C0.70657253 11.10261508 -0.34548714 6.33393082 0 0 Z " fill="#BC9C69" transform="translate(161,315)"/>
<path d="M0 0 C0.66 0.33 1.32 0.66 2 1 C1.04855402 2.81612488 0.08863067 4.62781081 -0.875 6.4375 C-1.40867187 7.44683594 -1.94234375 8.45617187 -2.4921875 9.49609375 C-4 12 -4 12 -6 13 C-5.34215037 9.70319035 -4.10579427 7.15882078 -2.4375 4.25 C-1.98246094 3.45078125 -1.52742188 2.6515625 -1.05859375 1.828125 C-0.53458984 0.92320312 -0.53458984 0.92320312 0 0 Z " fill="#BA8446" transform="translate(373,263)"/>
<path d="M0 0 C0 3 0 3 -2.1875 5.4375 C-4.71774645 7.74283566 -7.29055804 9.90985906 -10 12 C-8.52278578 8.54798361 -6.56205999 6.35038064 -3.875 3.75 C-3.15054687 3.04359375 -2.42609375 2.3371875 -1.6796875 1.609375 C-1.12539063 1.07828125 -0.57109375 0.5471875 0 0 Z " fill="#B88647" transform="translate(359,347)"/>
<path d="M0 0 C2.1926135 4.2186994 4.36894477 8.60185899 3.625 13.4375 C3.41875 13.953125 3.2125 14.46875 3 15 C0.73045369 11.59568053 0.63450051 9.83475798 0.375 5.8125 C0.30023438 4.72582031 0.22546875 3.63914063 0.1484375 2.51953125 C0.09945313 1.68808594 0.05046875 0.85664063 0 0 Z " fill="#B68346" transform="translate(376,208)"/>
<path d="M0 0 C5.68701095 1.48356808 5.68701095 1.48356808 7.25 4.0625 C7.4975 4.701875 7.745 5.34125 8 6 C8.66 6.33 9.32 6.66 10 7 C9.67 7.99 9.34 8.98 9 10 C7.49702124 8.52386015 5.99768715 7.04400843 4.5 5.5625 C3.6646875 4.73878906 2.829375 3.91507812 1.96875 3.06640625 C0 1 0 1 0 0 Z " fill="#C0945D" transform="translate(270,449)"/>
<path d="M0 0 C0.33 0 0.66 0 1 0 C1.10836453 1.43583001 1.18576167 2.8740202 1.25 4.3125 C1.29640625 5.11300781 1.3428125 5.91351563 1.390625 6.73828125 C1 9 1 9 -3 12 C-2.01 8.04 -1.02 4.08 0 0 Z " fill="#B67F3C" transform="translate(415,272)"/>
<path d="M0 0 C0.66 0 1.32 0 2 0 C2.86375896 1.61992165 3.71575854 3.24611861 4.5625 4.875 C5.03816406 5.77992188 5.51382812 6.68484375 6.00390625 7.6171875 C6.33261719 8.40351563 6.66132813 9.18984375 7 10 C6.67 10.66 6.34 11.32 6 12 C3 7.25 3 7.25 3 5 C2.01 4.67 1.02 4.34 0 4 C0 2.68 0 1.36 0 0 Z " fill="#B57E3B" transform="translate(424,253)"/>
<path d="M0 0 C0.99 0.33 1.98 0.66 3 1 C1.68 2.32 0.36 3.64 -1 5 C-4.875 3.25 -4.875 3.25 -6 1 C-3.03 1.495 -3.03 1.495 0 2 C0 1.34 0 0.68 0 0 Z " fill="#BC9056" transform="translate(302,338)"/>
<path d="M0 0 C0.99 0.33 1.98 0.66 3 1 C0.69 3.31 -1.62 5.62 -4 8 C-4.33 7.34 -4.66 6.68 -5 6 C-3.42105792 3.63158688 -2.0245738 1.93254772 0 0 Z " fill="#BA8C52" transform="translate(325,316)"/>
<path d="M0 0 C0.66 0.33 1.32 0.66 2 1 C-1.465 3.97 -1.465 3.97 -5 7 C-5 5.35 -5 3.7 -5 2 C-2.625 0.9375 -2.625 0.9375 0 0 Z " fill="#BA8849" transform="translate(333,309)"/>
<path d="M0 0 C0.33 0.66 0.66 1.32 1 2 C-1.3125 4.5 -1.3125 4.5 -4 7 C-4.99 7 -5.98 7 -7 7 C-4.69 4.69 -2.38 2.38 0 0 Z " fill="#BC925B" transform="translate(293,127)"/>
<path d="M0 0 C0.33 0.99 0.66 1.98 1 3 C-0.65 4.32 -2.3 5.64 -4 7 C-4.66 6.67 -5.32 6.34 -6 6 C-4.02 4.02 -2.04 2.04 0 0 Z " fill="#BA8C53" transform="translate(324,381)"/>
<path d="M0 0 C0.33 0.66 0.66 1.32 1 2 C-3.75 6.875 -3.75 6.875 -6 8 C-4.55746343 4.63408134 -2.66735273 2.48952921 0 0 Z " fill="#BE9259" transform="translate(285,285)"/>
<path d="M0 0 C0.66 0.66 1.32 1.32 2 2 C1.34 2 0.68 2 0 2 C0 1.34 0 0.68 0 0 Z " fill="#B68B4F" transform="translate(292,205)"/>
<path d="M0 0 C2 1 2 1 2 1 Z " fill="#B6884B" transform="translate(280,465)"/>
<path d="" fill="#BF8C4A" transform="translate(0,0)"/>
<path d="" fill="#BF9A63" transform="translate(0,0)"/>
<path d="M0 0 C2 1 2 1 2 1 Z " fill="#C59A60" transform="translate(160,335)"/>
<path d="" fill="#C3975E" transform="translate(0,0)"/>
<path d="" fill="#BA945C" transform="translate(0,0)"/>
<path d="M0 0 C2 1 2 1 2 1 Z " fill="#B48B52" transform="translate(278,221)"/>
<path d="M0 0 C2 1 2 1 2 1 Z " fill="#C08540" transform="translate(313,220)"/>
<path d="" fill="#B58144" transform="translate(0,0)"/>
<path d="" fill="#B78649" transform="translate(0,0)"/>
<path d="" fill="#B88C50" transform="translate(0,0)"/>
<path d="" fill="#B4864D" transform="translate(0,0)"/>
<path d="" fill="#C68C45" transform="translate(0,0)"/>
<path d="" fill="#B68244" transform="translate(0,0)"/>
<path d="" fill="#B28347" transform="translate(0,0)"/>
<path d="" fill="#B68649" transform="translate(0,0)"/>
<path d="" fill="#BE8948" transform="translate(0,0)"/>
<path d="" fill="#B7884D" transform="translate(0,0)"/>
<path d="" fill="#B98C50" transform="translate(0,0)"/>
<path d="" fill="#B37C3C" transform="translate(0,0)"/>
<path d="" fill="#B58346" transform="translate(0,0)"/>
<path d="" fill="#C5883F" transform="translate(0,0)"/>
<path d="" fill="#B8884D" transform="translate(0,0)"/>
<path d="" fill="#C39153" transform="translate(0,0)"/>
<path d="" fill="#CB9753" transform="translate(0,0)"/>
<path d="" fill="#C39153" transform="translate(0,0)"/>
<path d="" fill="#B07D3D" transform="translate(0,0)"/>
<path d="" fill="#B48040" transform="translate(0,0)"/>
<path d="" fill="#B98B50" transform="translate(0,0)"/>
<path d="" fill="#C09B64" transform="translate(0,0)"/>
<path d="" fill="#AF7C3C" transform="translate(0,0)"/>
<path d="" fill="#BA935A" transform="translate(0,0)"/>
<path d="" fill="#BD9962" transform="translate(0,0)"/>
<path d="" fill="#CD9C5A" transform="translate(0,0)"/>
<path d="" fill="#CA914B" transform="translate(0,0)"/>
<path d="" fill="#B58B4E" transform="translate(0,0)"/>
<path d="" fill="#CD9B5A" transform="translate(0,0)"/>
<path d="" fill="#CD9D5C" transform="translate(0,0)"/>
<path d="" fill="#AD7B39" transform="translate(0,0)"/>
<path d="" fill="#B88F57" transform="translate(0,0)"/>
<path d="" fill="#CD9D5C" transform="translate(0,0)"/>
<path d="" fill="#AF7B3A" transform="translate(0,0)"/>
<path d="" fill="#BF9B66" transform="translate(0,0)"/>
<path d="" fill="#B37D3D" transform="translate(0,0)"/>
<path d="" fill="#C19E66" transform="translate(0,0)"/>
<path d="" fill="#B0732F" transform="translate(0,0)"/>
<path d="" fill="#BB9158" transform="translate(0,0)"/>
<path d="" fill="#C09558" transform="translate(0,0)"/>
<path d="" fill="#C19E68" transform="translate(0,0)"/>
<path d="" fill="#BB9058" transform="translate(0,0)"/>
<path d="" fill="#B17A37" transform="translate(0,0)"/>
<path d="" fill="#BB813E" transform="translate(0,0)"/>
<path d="" fill="#AF722E" transform="translate(0,0)"/>
<path d="" fill="#BB9159" transform="translate(0,0)"/>
<path d="" fill="#AB7634" transform="translate(0,0)"/>
<path d="" fill="#AE7836" transform="translate(0,0)"/>
<path d="" fill="#BB945A" transform="translate(0,0)"/>
<path d="" fill="#B07A3B" transform="translate(0,0)"/>
<path d="" fill="#B17B3B" transform="translate(0,0)"/>
<path d="" fill="#C3843A" transform="translate(0,0)"/>
<path d="" fill="#C4985F" transform="translate(0,0)"/>
<path d="" fill="#AF712D" transform="translate(0,0)"/>
<path d="" fill="#AC7B3D" transform="translate(0,0)"/>
<path d="" fill="#CC9F61" transform="translate(0,0)"/>
<path d="" fill="#AD7936" transform="translate(0,0)"/>
<path d="" fill="#B08A54" transform="translate(0,0)"/>
<path d="" fill="#BB9660" transform="translate(0,0)"/>
<path d="" fill="#B9782F" transform="translate(0,0)"/>
<path d="" fill="#BE8645" transform="translate(0,0)"/>
<path d="" fill="#B9782F" transform="translate(0,0)"/>
<path d="" fill="#C68B45" transform="translate(0,0)"/>
<path d="" fill="#B5874D" transform="translate(0,0)"/>
<path d="" fill="#B58245" transform="translate(0,0)"/>
<path d="" fill="#B6762E" transform="translate(0,0)"/>
<path d="" fill="#B17634" transform="translate(0,0)"/>
<path d="" fill="#CD9D5C" transform="translate(0,0)"/>
<path d="" fill="#CC9F62" transform="translate(0,0)"/>
<path d="" fill="#B37D3E" transform="translate(0,0)"/>
<path d="" fill="#B27C3B" transform="translate(0,0)"/>
<path d="" fill="#CA9D62" transform="translate(0,0)"/>
<path d="" fill="#AF7837" transform="translate(0,0)"/>
<path d="" fill="#C29D67" transform="translate(0,0)"/>
<path d="" fill="#BA803D" transform="translate(0,0)"/>
<path d="" fill="#C3975D" transform="translate(0,0)"/>
<path d="" fill="#BD823F" transform="translate(0,0)"/>
<path d="" fill="#B38345" transform="translate(0,0)"/>
<path d="" fill="#BE7D34" transform="translate(0,0)"/>
<path d="" fill="#B28244" transform="translate(0,0)"/>
<path d="" fill="#B5884D" transform="translate(0,0)"/>
<path d="" fill="#BE955D" transform="translate(0,0)"/>
<path d="" fill="#BA7A33" transform="translate(0,0)"/>
<path d="" fill="#B38244" transform="translate(0,0)"/>
<path d="" fill="#B77933" transform="translate(0,0)"/>
<path d="" fill="#B28143" transform="translate(0,0)"/>
<path d="" fill="#BA7F3D" transform="translate(0,0)"/>
<path d="" fill="#B38345" transform="translate(0,0)"/>
<path d="" fill="#B5752E" transform="translate(0,0)"/>
<path d="" fill="#A8722D" transform="translate(0,0)"/>
<path d="" fill="#BD7D30" transform="translate(0,0)"/>
<path d="" fill="#AF7330" transform="translate(0,0)"/>
<path d="" fill="#B5752E" transform="translate(0,0)"/>
<path d="" fill="#AF7330" transform="translate(0,0)"/>
<path d="" fill="#B08041" transform="translate(0,0)"/>
<path d="" fill="#B8772E" transform="translate(0,0)"/>
<path d="" fill="#AE7E40" transform="translate(0,0)"/>
<path d="" fill="#B8772E" transform="translate(0,0)"/>
<path d="" fill="#BD7A2F" transform="translate(0,0)"/>
<path d="" fill="#AF7330" transform="translate(0,0)"/>
<path d="" fill="#BF7D31" transform="translate(0,0)"/>
<path d="" fill="#B37F42" transform="translate(0,0)"/>
<path d="" fill="#A97431" transform="translate(0,0)"/>
<path d="" fill="#B87B36" transform="translate(0,0)"/>
<path d="" fill="#B87B36" transform="translate(0,0)"/>
<path d="" fill="#B7894C" transform="translate(0,0)"/>
<path d="" fill="#AF7330" transform="translate(0,0)"/>
<path d="" fill="#BF7D33" transform="translate(0,0)"/>
<path d="" fill="#C28844" transform="translate(0,0)"/>
<path d="" fill="#B28345" transform="translate(0,0)"/>
<path d="" fill="#BC7B30" transform="translate(0,0)"/>
<path d="" fill="#C18037" transform="translate(0,0)"/>
<path d="" fill="#AE7B39" transform="translate(0,0)"/>
<path d="" fill="#C29F6A" transform="translate(0,0)"/>
<path d="" fill="#B9915B" transform="translate(0,0)"/>
<path d="" fill="#AB7735" transform="translate(0,0)"/>
<path d="" fill="#B6772D" transform="translate(0,0)"/>
<path d="" fill="#BC9763" transform="translate(0,0)"/>
<path d="" fill="#AF7A3B" transform="translate(0,0)"/>
<path d="" fill="#BB955D" transform="translate(0,0)"/>
<path d="" fill="#A77130" transform="translate(0,0)"/>
<path d="" fill="#AB7839" transform="translate(0,0)"/>
<path d="" fill="#C48640" transform="translate(0,0)"/>
<path d="" fill="#BB813F" transform="translate(0,0)"/>
<path d="" fill="#BB813F" transform="translate(0,0)"/>
<path d="" fill="#BB9159" transform="translate(0,0)"/>
<path d="" fill="#BD7D36" transform="translate(0,0)"/>
<path d="" fill="#B67934" transform="translate(0,0)"/>
<path d="" fill="#AE7432" transform="translate(0,0)"/>
<path d="" fill="#BB9059" transform="translate(0,0)"/>
<path d="" fill="#B38549" transform="translate(0,0)"/>
<path d="" fill="#C8914D" transform="translate(0,0)"/>
<path d="" fill="#C09C68" transform="translate(0,0)"/>
<path d="" fill="#BE8340" transform="translate(0,0)"/>
<path d="" fill="#B58C52" transform="translate(0,0)"/>
<path d="" fill="#BA8E56" transform="translate(0,0)"/>
<path d="" fill="#C1833A" transform="translate(0,0)"/>
<path d="" fill="#B68E54" transform="translate(0,0)"/>
<path d="" fill="#B07A3A" transform="translate(0,0)"/>
<path d="" fill="#BA8E56" transform="translate(0,0)"/>
<path d="" fill="#C18841" transform="translate(0,0)"/>
<path d="" fill="#B37D3E" transform="translate(0,0)"/>
<path d="" fill="#C88F49" transform="translate(0,0)"/>
<path d="" fill="#B78E54" transform="translate(0,0)"/>
<path d="" fill="#B68D52" transform="translate(0,0)"/>
<path d="" fill="#BF9963" transform="translate(0,0)"/>
<path d="" fill="#B58649" transform="translate(0,0)"/>
<path d="" fill="#B38448" transform="translate(0,0)"/>
<path d="" fill="#BC8545" transform="translate(0,0)"/>
<path d="" fill="#B47F41" transform="translate(0,0)"/>
<path d="" fill="#C89758" transform="translate(0,0)"/>
<path d="" fill="#C09860" transform="translate(0,0)"/>
<path d="" fill="#B17737" transform="translate(0,0)"/>
<path d="" fill="#B9884B" transform="translate(0,0)"/>
<path d="" fill="#B98A51" transform="translate(0,0)"/>
<path d="" fill="#B97D3A" transform="translate(0,0)"/>
<path d="" fill="#C39251" transform="translate(0,0)"/>
<path d="" fill="#B97D3A" transform="translate(0,0)"/>
<path d="" fill="#AB7635" transform="translate(0,0)"/>
<path d="" fill="#BF8E4D" transform="translate(0,0)"/>
<path d="" fill="#B37A34" transform="translate(0,0)"/>
<path d="" fill="#B97E3B" transform="translate(0,0)"/>
<path d="" fill="#C08E51" transform="translate(0,0)"/>
<path d="" fill="#B27939" transform="translate(0,0)"/>
<path d="" fill="#C08E51" transform="translate(0,0)"/>
<path d="" fill="#B18143" transform="translate(0,0)"/>
<path d="" fill="#BB9056" transform="translate(0,0)"/>
<path d="" fill="#B27B3C" transform="translate(0,0)"/>
<path d="" fill="#B68549" transform="translate(0,0)"/>
<path d="" fill="#C58E4D" transform="translate(0,0)"/>
<path d="" fill="#B57E3B" transform="translate(0,0)"/>
<path d="" fill="#B27C39" transform="translate(0,0)"/>
<path d="" fill="#B37D3E" transform="translate(0,0)"/>
<path d="" fill="#B6874A" transform="translate(0,0)"/>
<path d="" fill="#B57F3D" transform="translate(0,0)"/>
<path d="" fill="#C48B47" transform="translate(0,0)"/>
<path d="" fill="#C48B47" transform="translate(0,0)"/>
<path d="" fill="#B47E40" transform="translate(0,0)"/>
<path d="" fill="#B98A4D" transform="translate(0,0)"/>
<path d="" fill="#BB8744" transform="translate(0,0)"/>
<path d="" fill="#B47F42" transform="translate(0,0)"/>
<path d="" fill="#B2894F" transform="translate(0,0)"/>
<path d="" fill="#B47F42" transform="translate(0,0)"/>
<path d="" fill="#B47F42" transform="translate(0,0)"/>
</svg>
