<?xml version="1.0" encoding="utf-8"?>
<!-- Generator: Adobe Illustrator 25.0.0, SVG Export Plug-In . SVG Version: 6.00 Build 0)  -->
<svg version="1.1" id="Calque_1" xmlns="http://www.w3.org/2000/svg" xmlns:xlink="http://www.w3.org/1999/xlink" x="0px" y="0px"
	 viewBox="0 0 78 48" style="enable-background:new 0 0 78 48;" xml:space="preserve">
<style type="text/css">
	.st0{fill:none;}
	.st1{fill:url(#SVGID_1_);}
	.st2{fill:url(#SVGID_2_);}
	.st3{fill:url(#SVGID_3_);}
	.st4{fill:url(#SVGID_4_);}
	.st5{fill:url(#SVGID_5_);}
	.st6{fill:url(#SVGID_6_);}
</style>
<rect class="st0" width="78" height="48"/>
<g id="svg2575">
	<g id="Group_28648">
		
			<linearGradient id="SVGID_1_" gradientUnits="userSpaceOnUse" x1="45.0895" y1="33.5638" x2="54.5576" y2="33.5638" gradientTransform="matrix(1 0 0 -1 0 50)">
			<stop  offset="0" style="stop-color:#FFE89C"/>
			<stop  offset="0.17" style="stop-color:#FEE091"/>
			<stop  offset="0.45" style="stop-color:#FDCE77"/>
			<stop  offset="0.82" style="stop-color:#F8AF4D"/>
			<stop  offset="1" style="stop-color:#F59D38"/>
		</linearGradient>
		<path class="st1" d="M45.1,5.3c0.1-0.3,0.3-0.7,0.7-1.1c0.5-0.5,1.1-0.9,4.4-1.9c1.1-0.3,1.9-0.6,2.6-0.7c0.7-0.2,1.3-0.3,1.8-0.4
			c0,8.6,0,17.3,0,25.9c-0.1,0.2-0.2,0.5-0.4,0.8c-0.3,0.4-0.7,0.6-1.3,0.9c-0.3,0.2-0.4,0.2-1.1,0.5c-0.7,0.3-1,0.4-1.3,0.6
			c-0.7,0.3-1.3,0.5-2.5,0.9c-0.7,0.2-1.6,0.5-2.7,0.8C45.2,22.8,45.1,14,45.1,5.3z"/>
		
			<linearGradient id="SVGID_2_" gradientUnits="userSpaceOnUse" x1="33.4918" y1="27.4638" x2="43.0919" y2="27.4638" gradientTransform="matrix(1 0 0 -1 0 50)">
			<stop  offset="0" style="stop-color:#FFE89C"/>
			<stop  offset="0.17" style="stop-color:#FEE091"/>
			<stop  offset="0.45" style="stop-color:#FDCE77"/>
			<stop  offset="0.82" style="stop-color:#F8AF4D"/>
			<stop  offset="1" style="stop-color:#F59D38"/>
		</linearGradient>
		<path class="st2" d="M33.5,13.9c0.1-0.4,0.4-1.1,0.9-1.7c0.1-0.1,0.5-0.5,1.4-1s1.2-0.5,2.9-1.1c1.1-0.4,1.2-0.5,2.2-0.8
			c0.8-0.3,1.5-0.5,2-0.6c0.1,7.7,0.1,15.3,0.2,23c0,0.1-0.1,0.1-0.1,0.2c0,0-0.1,0.2-0.3,0.5c-0.8,0.9-3.7,1.9-3.7,1.9
			c-1,0.3-0.2,0.1-2.4,0.9c-1.2,0.5-2.3,0.8-3,1.1C33.5,28.9,33.5,21.4,33.5,13.9z"/>
		
			<linearGradient id="SVGID_3_" gradientUnits="userSpaceOnUse" x1="22.2091" y1="19.4638" x2="31.3091" y2="19.4638" gradientTransform="matrix(1 0 0 -1 0 50)">
			<stop  offset="0" style="stop-color:#FFE89C"/>
			<stop  offset="0.17" style="stop-color:#FEE091"/>
			<stop  offset="0.45" style="stop-color:#FDCE77"/>
			<stop  offset="0.82" style="stop-color:#F8AF4D"/>
			<stop  offset="1" style="stop-color:#F59D38"/>
		</linearGradient>
		<path class="st3" d="M22.2,24.7c0.2-0.3,0.5-0.8,1.1-1.2c0.6-0.5,1-0.6,3.3-1.4c1.9-0.6,2.4-0.8,2.7-0.9c0.8-0.3,1.5-0.5,2-0.6
			c0,4.9,0,9.9,0,14.8c-0.1,0.4-0.2,0.9-0.6,1.5c-0.3,0.5-0.8,0.9-3.6,1.9c-1.5,0.6-2.4,0.9-2.7,1c-0.9,0.3-1.6,0.5-2.1,0.6
			C22.3,35.2,22.3,29.9,22.2,24.7z"/>
		
			<linearGradient id="SVGID_4_" gradientUnits="userSpaceOnUse" x1="45.0922" y1="12.7638" x2="54.4822" y2="12.7638" gradientTransform="matrix(1 0 0 -1 0 50)">
			<stop  offset="0" style="stop-color:#FFE89C"/>
			<stop  offset="0.17" style="stop-color:#FEE091"/>
			<stop  offset="0.45" style="stop-color:#FDCE77"/>
			<stop  offset="0.82" style="stop-color:#F8AF4D"/>
			<stop  offset="1" style="stop-color:#F59D38"/>
		</linearGradient>
		<path class="st4" d="M45.1,33.7c0.2-0.5,0.5-1.1,1.1-1.5c0,0,0.1-0.1,0.3-0.2c1-0.5,6.4-2.3,8-2.9c0,3.8,0,7.5,0,11.3
			c-0.1,0.4-0.3,1-0.8,1.5c-0.5,0.6-1.2,0.8-1.5,0.9c-1.3,0.5-3.8,1.4-7.1,2.5C45.2,41.5,45.1,37.6,45.1,33.7z"/>
		
			<linearGradient id="SVGID_5_" gradientUnits="userSpaceOnUse" x1="33.3691" y1="10.5638" x2="42.8719" y2="10.5638" gradientTransform="matrix(1 0 0 -1 0 50)">
			<stop  offset="0" style="stop-color:#FFE89C"/>
			<stop  offset="0.17" style="stop-color:#FEE091"/>
			<stop  offset="0.45" style="stop-color:#FDCE77"/>
			<stop  offset="0.82" style="stop-color:#F8AF4D"/>
			<stop  offset="1" style="stop-color:#F59D38"/>
		</linearGradient>
		<path class="st5" d="M33.4,38.7c0.1-0.3,0.2-0.7,0.5-1.1c0,0,0.3-0.4,0.7-0.7c1.2-1,4.4-2,6.2-2.6c0.5-0.2,1.2-0.4,2.1-0.8
			c0,2.3,0,4.6,0.1,6.9c-0.1,0.5-0.4,1.2-1,1.8c-0.5,0.5-1,0.6-2.7,1.1c0,0-1.5,0.5-3,1c-0.7,0.2-1.7,0.6-2.8,1
			C33.4,43.1,33.4,40.9,33.4,38.7z"/>
		
			<linearGradient id="SVGID_6_" gradientUnits="userSpaceOnUse" x1="22.0805" y1="8.5138" x2="31.3082" y2="8.5138" gradientTransform="matrix(1 0 0 -1 0 50)">
			<stop  offset="0" style="stop-color:#FFE89C"/>
			<stop  offset="0.17" style="stop-color:#FEE091"/>
			<stop  offset="0.45" style="stop-color:#FDCE77"/>
			<stop  offset="0.82" style="stop-color:#F8AF4D"/>
			<stop  offset="1" style="stop-color:#F59D38"/>
		</linearGradient>
		<path class="st6" d="M22.2,41.9c0.1-0.2,0.2-0.4,0.5-0.6C23,41,23.3,41,24,40.7c0.3-0.1,0.7-0.3,1-0.4c0.7-0.3,0.3-0.1,2.9-1.2
			c1-0.4,2.1-0.8,3.5-1.4c0,0.9-0.1,1.8-0.1,2.7c-0.1,0.4-0.3,1-0.8,1.6c-0.5,0.5-1,0.7-2.2,1.1c-1.1,0.4-2.3,0.8-3.4,1.2
			c-0.6,0.2-1.5,0.5-2.7,0.9C22.1,44.1,22.1,43,22.2,41.9z"/>
	</g>
</g>
</svg>
