<svg id="Layer_1" data-name="Layer 1" xmlns="http://www.w3.org/2000/svg" xmlns:xlink="http://www.w3.org/1999/xlink" viewBox="0 0 490.82 108.26"><defs><style>.cls-1{fill:url(#linear-gradient);}.cls-2{fill:#fff;}</style><linearGradient id="linear-gradient" x1="3.62" y1="55.27" x2="103.58" y2="55.27" gradientTransform="matrix(1, 0, 0, -1, 0, 110)" gradientUnits="userSpaceOnUse"><stop offset="0" stop-color="#ff992b"/><stop offset="1" stop-color="#d0823d"/></linearGradient></defs><circle class="cls-1" cx="53.6" cy="54.73" r="49.98"/><path d="M45.16.53c-32.3,5.8-52.9,39.8-42.4,70.3,3.3,9.4,7,15.3,14.2,22.2,30.8,29.7,81.6,13.7,90.5-28.5,5.5-26.2-10.2-53.1-36.2-61.9C64.06.23,52.26-.67,45.16.53Zm32.2,56.8c-.4,1.2-6.3,4.2-11.2,5.7l-2.3.6v-43l5.3-1.9c2.8-1.1,5.9-2.1,6.7-2.4,1.3-.4,1.5,2.3,1.8,19.6C77.76,46.93,77.66,56.53,77.36,57.33Zm-17.5-11.1c0,9.8-.4,18.4-.8,19-.7,1.1-12.1,6.3-13.7,6.3-.3,0-.5-8.3-.5-18.3,0-20.6-.1-20.3,7.6-23.1S59.86,26.43,59.86,46.23Zm-19,12.6c0,13.9-.1,14.1-7.8,17-7,2.8-6.8,3.2-6.2-11.5l.5-13.1,6-2.3a46.49,46.49,0,0,1,6.8-2.3C40.56,46.53,40.86,52.13,40.86,58.83Zm36.8,12.4-.3,9.6-6.8,2.8-6.8,2.8.3-10.2.3-10.2,6-2.2a59.88,59.88,0,0,1,6.8-2.2C77.56,61.53,77.76,65.93,77.66,71.23Zm-18.3,3c-.2,3.1-1,6.2-1.7,6.8a39.33,39.33,0,0,1-7,3.3l-5.8,2.1v-5.8c0-6.6.4-7.1,7.5-9.9C59.86,67.73,59.86,67.73,59.36,74.23Zm-18.5,3c0,3-1.4,4.2-7.9,6.7l-6.2,2.5.3-3.1c.3-2.8.9-3.5,5.8-5.4C39.56,75.13,40.86,75,40.86,77.23Z" transform="translate(0 0)"/><path class="cls-2" d="M122.42,35.83h6.38V69.68h-6.38Zm2.31,0H145.1V42H124.73Zm0,14h17.81v6.14H124.73Zm0,13.73H145.1v6.15H124.73Z" transform="translate(0 0)"/><path class="cls-2" d="M156.82,69.54a20.93,20.93,0,0,1-4.35-1.43,16.91,16.91,0,0,1-3.65-2.27l3-5.26a14.23,14.23,0,0,0,4.52,2.47,16,16,0,0,0,5.26.88,9.32,9.32,0,0,0,4.84-1.06,3.32,3.32,0,0,0,1.72-3v0a2.91,2.91,0,0,0-.77-2.14,4.49,4.49,0,0,0-2-1.16,23.69,23.69,0,0,0-3.16-.68l-.13,0-.13,0-.51-.07a32.19,32.19,0,0,1-5.64-1.34A8.34,8.34,0,0,1,152,51.6a9.16,9.16,0,0,1-1.56-5.72v0a10.28,10.28,0,0,1,1.47-5.61,9.22,9.22,0,0,1,4.26-3.55,16.86,16.86,0,0,1,6.75-1.22,17.09,17.09,0,0,1,3.71.42,19.85,19.85,0,0,1,3.71,1.21A20.34,20.34,0,0,1,173.78,39l-2.7,5.4a17.23,17.23,0,0,0-4.09-2.1,12.51,12.51,0,0,0-4.08-.74,8.89,8.89,0,0,0-4.54,1,3,3,0,0,0-1.61,2.72v0a3.16,3.16,0,0,0,.84,2.32,5,5,0,0,0,2.07,1.24,32.46,32.46,0,0,0,3.47.84.63.63,0,0,0,.19,0l.18,0a1.81,1.81,0,0,1,.27.06l.27.06a27.68,27.68,0,0,1,5.37,1.52A8.36,8.36,0,0,1,173,54.28a9.09,9.09,0,0,1,1.45,5.43v0a9.86,9.86,0,0,1-1.52,5.54,9.48,9.48,0,0,1-4.41,3.52,18.19,18.19,0,0,1-7,1.21A23.24,23.24,0,0,1,156.82,69.54Z" transform="translate(0 0)"/><path class="cls-2" d="M186,69.68h-6.62V35.83H186Z" transform="translate(0 0)"/><path class="cls-2" d="M192.94,35.8h6.38V69.68h-6.38Zm2.54,14.11h11.78a3,3,0,0,0,1.72-.49A3.11,3.11,0,0,0,210.13,48a5.14,5.14,0,0,0,.43-2.1,5.06,5.06,0,0,0-.4-2.09,3.16,3.16,0,0,0-1.16-1.4,3,3,0,0,0-1.74-.49H195.48V35.8h12.29a9.42,9.42,0,0,1,4.91,1.26A8.5,8.5,0,0,1,216,40.61a11.68,11.68,0,0,1,1.16,5.32A11.68,11.68,0,0,1,216,51.25a8.52,8.52,0,0,1-3.3,3.55,9.43,9.43,0,0,1-4.9,1.26H195.48ZM202.6,55l6.82-1.07,9.13,15.74h-7.73Z" transform="translate(0 0)"/><path class="cls-2" d="M222.51,63.3h6.38v6.38h-6.38Z" transform="translate(0 0)"/><path class="cls-2" d="M241,69.68h-6.61V35.83H241Z" transform="translate(0 0)"/><path class="cls-2" d="M247.49,45.51h6.38V69.68h-6.38Zm14,9.52a3.61,3.61,0,0,0-1-2.74,4,4,0,0,0-2.87-1,3.67,3.67,0,0,0-2.74,1,3.83,3.83,0,0,0-1,2.78l-.49-5.35A9.06,9.06,0,0,1,256,46.3a6.2,6.2,0,0,1,3.83-1.14,7.19,7.19,0,0,1,5.91,2.58c1.4,1.71,2.09,4.14,2.09,7.27V69.68h-6.37Z" transform="translate(0 0)"/><path class="cls-2" d="M287.18,45.51h6.36l-9.08,24.17h-4.52l-9.08-24.17h6.36l5,15.16Z" transform="translate(0 0)"/><path class="cls-2" d="M301.18,68.76a8.72,8.72,0,0,1-3.78-3.7,12.28,12.28,0,0,1-1.3-5.86V56.48a13.85,13.85,0,0,1,1.24-6.13A8.62,8.62,0,0,1,301,46.49a11.73,11.73,0,0,1,5.76-1.33,9.16,9.16,0,0,1,5.42,1.59,9.72,9.72,0,0,1,3.44,4.59,20.17,20.17,0,0,1,1.17,7.28V60.2H300.24V55.9H311l-.07-.56a5.67,5.67,0,0,0-1.31-3.24A3.68,3.68,0,0,0,306.74,51a4.66,4.66,0,0,0-3.58,1.37,5.57,5.57,0,0,0-1.27,3.89v3.07a5.1,5.1,0,0,0,1.39,3.82,5.33,5.33,0,0,0,3.88,1.35,7.42,7.42,0,0,0,2.53-.45A7.73,7.73,0,0,0,312,62.72l4.16,3.7a13.68,13.68,0,0,1-4.23,2.66,12.69,12.69,0,0,1-4.75,1A13.1,13.1,0,0,1,301.18,68.76Z" transform="translate(0 0)"/><path class="cls-2" d="M327.39,69.64a18.42,18.42,0,0,1-3.84-1.13,13.83,13.83,0,0,1-3.17-1.79l3.93-4.91A15.63,15.63,0,0,0,328,63.53a11.8,11.8,0,0,0,3.63.61,9.62,9.62,0,0,0,3.47-.5c.82-.34,1.23-.8,1.23-1.39a1.46,1.46,0,0,0-.53-1.23,3.38,3.38,0,0,0-1.37-.6,23.62,23.62,0,0,0-2.36-.31l-.85-.09-.87-.1-.2,0h-.2a26,26,0,0,1-4.33-.87,5.53,5.53,0,0,1-2.75-2,6.75,6.75,0,0,1-1.13-4.23,6.83,6.83,0,0,1,4.54-6.76,14.19,14.19,0,0,1,5.35-.9,18.22,18.22,0,0,1,3.67.38,18,18,0,0,1,3.5,1.07,16.72,16.72,0,0,1,3.1,1.67l-3.8,4.64a15.37,15.37,0,0,0-3.3-1.38,12.35,12.35,0,0,0-3.31-.49,8,8,0,0,0-3,.45c-.72.29-1.07.7-1.07,1.23a1,1,0,0,0,.57.94,4.08,4.08,0,0,0,1.42.49c.56.1,1.39.21,2.48.34l.42,0,.42,0a.66.66,0,0,0,.21,0,.65.65,0,0,1,.2,0,28.31,28.31,0,0,1,4.59.84,5.93,5.93,0,0,1,3,2.05A7,7,0,0,1,342,62a7.11,7.11,0,0,1-4.75,7,14.89,14.89,0,0,1-5.61,1A22.43,22.43,0,0,1,327.39,69.64Z" transform="translate(0 0)"/><path class="cls-2" d="M345.22,45.51h11.83V51H345.22Zm4,22.67a6.92,6.92,0,0,1-1.48-4.79V38.48h6.38V61.81a2.3,2.3,0,0,0,.35,1.36,1.18,1.18,0,0,0,1,.48h1.59v6.14h-3.22A6,6,0,0,1,349.19,68.18Z" transform="translate(0 0)"/><path class="cls-2" d="M362.64,45.51H369V69.68h-6.37Zm14.08,10.22a4.69,4.69,0,0,0-1.05-3.27,3.78,3.78,0,0,0-2.95-1.15,3.65,3.65,0,0,0-2.74,1,3.84,3.84,0,0,0-1,2.78l-.48-5.35a8.67,8.67,0,0,1,2.67-3.4A6.23,6.23,0,0,1,375,45.16,7.25,7.25,0,0,1,382.14,50a15.17,15.17,0,0,1,1,5.7v14h-6.38Zm14.08,0a4.78,4.78,0,0,0-1-3.27,4.16,4.16,0,0,0-5.7,0,4.52,4.52,0,0,0-1,3.13L381.91,50a9,9,0,0,1,3-3.55,7.06,7.06,0,0,1,4.06-1.25,7.79,7.79,0,0,1,4.46,1.24A7.68,7.68,0,0,1,396.22,50a15.17,15.17,0,0,1,1,5.7v14H390.8Z" transform="translate(0 0)"/><path class="cls-2" d="M407.86,68.76a8.74,8.74,0,0,1-3.79-3.7,12.4,12.4,0,0,1-1.3-5.86V56.48A13.85,13.85,0,0,1,404,50.35a8.65,8.65,0,0,1,3.63-3.86,11.73,11.73,0,0,1,5.76-1.33,9.16,9.16,0,0,1,5.42,1.59,9.72,9.72,0,0,1,3.44,4.59,20.17,20.17,0,0,1,1.17,7.28V60.2H406.92V55.9h10.7l-.07-.56a5.6,5.6,0,0,0-1.31-3.24A3.68,3.68,0,0,0,413.41,51a4.62,4.62,0,0,0-3.57,1.37,5.52,5.52,0,0,0-1.27,3.89v3.07A5.1,5.1,0,0,0,410,63.11a5.34,5.34,0,0,0,3.88,1.35,7.52,7.52,0,0,0,2.54-.45,7.68,7.68,0,0,0,2.28-1.29l4.17,3.7a13.72,13.72,0,0,1-4.24,2.66,12.66,12.66,0,0,1-4.75,1A13,13,0,0,1,407.86,68.76Z" transform="translate(0 0)"/><path class="cls-2" d="M429,45.51h6.38V69.68H429ZM443,55a3.64,3.64,0,0,0-1-2.74,4,4,0,0,0-2.88-1,3.63,3.63,0,0,0-2.73,1,3.8,3.8,0,0,0-1,2.78l-.49-5.35a9.06,9.06,0,0,1,2.62-3.43,6.22,6.22,0,0,1,3.83-1.14,7.16,7.16,0,0,1,5.91,2.58c1.4,1.71,2.1,4.14,2.1,7.27V69.68H443Z" transform="translate(0 0)"/><path class="cls-2" d="M453.8,45.51h11.83V51H453.8Zm4,22.67a6.92,6.92,0,0,1-1.48-4.79V38.48h6.38V61.81a2.3,2.3,0,0,0,.35,1.36,1.19,1.19,0,0,0,1,.48h1.58v6.14h-3.21A6.06,6.06,0,0,1,457.77,68.18Z" transform="translate(0 0)"/><path class="cls-2" d="M476.25,69.64a18.7,18.7,0,0,1-3.85-1.13,13.76,13.76,0,0,1-3.16-1.79l3.93-4.91a15.44,15.44,0,0,0,3.66,1.72,11.8,11.8,0,0,0,3.63.61,9.65,9.65,0,0,0,3.47-.5c.82-.34,1.23-.8,1.23-1.39a1.48,1.48,0,0,0-.53-1.23,3.36,3.36,0,0,0-1.38-.6,23.35,23.35,0,0,0-2.35-.31l-.85-.09-.87-.1-.2,0h-.2a26,26,0,0,1-4.33-.87,5.59,5.59,0,0,1-2.76-2,6.81,6.81,0,0,1-1.13-4.23,6.87,6.87,0,0,1,4.54-6.76,14.24,14.24,0,0,1,5.36-.9,19,19,0,0,1,7.17,1.45,16.72,16.72,0,0,1,3.1,1.67l-3.8,4.64a15.45,15.45,0,0,0-3.31-1.38,12.28,12.28,0,0,0-3.3-.49,8,8,0,0,0-3,.45c-.72.29-1.07.7-1.07,1.23a1,1,0,0,0,.57.94,4.08,4.08,0,0,0,1.42.49c.56.1,1.39.21,2.47.34l.42,0,.42,0a.71.71,0,0,0,.21,0,.68.68,0,0,1,.21,0,28.31,28.31,0,0,1,4.59.84,5.9,5.9,0,0,1,3,2.05A7,7,0,0,1,490.82,62a7.11,7.11,0,0,1-4.75,7,14.89,14.89,0,0,1-5.61,1A22.43,22.43,0,0,1,476.25,69.64Z" transform="translate(0 0)"/></svg>