<?xml version="1.0" encoding="utf-8"?>
<!-- Generator: Adobe Illustrator 25.0.0, SVG Export Plug-In . SVG Version: 6.00 Build 0)  -->
<svg version="1.1" id="Calque_1" xmlns="http://www.w3.org/2000/svg" xmlns:xlink="http://www.w3.org/1999/xlink" x="0px" y="0px"
	 viewBox="0 0 715 222" style="enable-background:new 0 0 715 222;" xml:space="preserve">
<style type="text/css">
	.st0{clip-path:url(#SVGID_2_);}
	.st1{fill:url(#SVGID_3_);fill-opacity:0.3;}
	.st2{fill:url(#SVGID_4_);fill-opacity:0.3;}
</style>
<g>
	<g>
		<defs>
			<path id="SVGID_1_" d="M28,0h659c15.5,0,28,12.5,28,28v166c0,15.5-12.5,28-28,28H28c-15.5,0-28-12.5-28-28V28C0,12.5,12.5,0,28,0
				z"/>
		</defs>
		<clipPath id="SVGID_2_">
			<use xlink:href="#SVGID_1_"  style="overflow:visible;"/>
		</clipPath>
		<g class="st0">
			<g>
				
					<radialGradient id="SVGID_3_" cx="107.8231" cy="360.9845" r="1" gradientTransform="matrix(209.7106 95.951 69.8263 -152.6124 -47189.8047 44988.0547)" gradientUnits="userSpaceOnUse">
					<stop  offset="0.4001" style="stop-color:#FFE494"/>
					<stop  offset="0.6029" style="stop-color:#FEFFE9"/>
					<stop  offset="0.7596" style="stop-color:#FFBE2A"/>
				</radialGradient>
				<path class="st1" d="M431.8,121.1c34.4-109.9,143.7-173.5,244.1-142c100.4,31.5,153.9,146,119.4,255.9S651.6,408.5,551.2,377
					C450.8,345.6,397.3,231,431.8,121.1z"/>
			</g>
			<g>
				
					<radialGradient id="SVGID_4_" cx="108.3181" cy="360.5455" r="1" gradientTransform="matrix(105.6378 211.871 97.3531 -48.5398 -46580.8945 -5183.7939)" gradientUnits="userSpaceOnUse">
					<stop  offset="0.4001" style="stop-color:#FFD394"/>
					<stop  offset="0.6029" style="stop-color:#FBFF94"/>
					<stop  offset="0.7596" style="stop-color:#FFB855"/>
				</radialGradient>
				<path class="st2" d="M-125.2,47.9C-61.5,9.6,35.4,54,91.3,147c55.9,93,49.6,199.4-14,237.7c-63.7,38.3-160.6-6.1-216.5-99.1
					C-195.1,192.6-188.9,86.1-125.2,47.9z"/>
			</g>
		</g>
	</g>
</g>
</svg>
