<svg width="211" height="36" viewBox="0 0 211 36" fill="none" xmlns="http://www.w3.org/2000/svg">
<path d="M30.954 21.5122C30.3239 21.9091 29.5819 21.9582 29.0179 21.6413C28.3014 21.2382 27.9075 20.2943 27.9075 18.9817V15.0541C27.9075 13.1576 27.1549 11.808 25.8964 11.4436C23.7637 10.8246 22.1598 13.4245 21.557 14.4009L17.7957 20.477V13.0504C17.7534 11.3418 17.1964 10.3197 16.1389 10.0115C15.4391 9.80781 14.3922 9.88946 13.3752 11.4401L4.94838 24.9217C3.82024 22.7878 3.23213 20.4118 3.23518 18C3.23518 9.87893 9.76722 3.27249 17.7957 3.27249C25.8241 3.27249 32.3553 9.87893 32.3553 18C32.3553 18.014 32.3588 18.0263 32.3597 18.0395C32.3597 18.0536 32.357 18.0659 32.3579 18.0799C32.4337 19.6525 31.9226 20.9037 30.954 21.5131V21.5122ZM35.5905 18.0009V18V17.9596L35.5896 17.9192C35.5446 8.02888 27.5805 0 17.7948 0C7.98351 0 0 8.07454 0 18C0 27.9246 7.98351 36 17.7957 36C22.2981 36 26.5952 34.2948 29.8939 31.1997C30.5495 30.5851 30.5883 29.5499 29.9802 28.8878C29.6911 28.5701 29.2858 28.3818 28.8557 28.3653C28.4256 28.3488 28.007 28.5055 27.6942 28.8C25.0205 31.3226 21.478 32.7282 17.7957 32.7275C13.4968 32.7275 9.62885 30.8318 6.96122 27.8254L14.5605 15.6679V21.2725C14.5605 23.9646 15.6083 24.8347 16.487 25.0894C17.3665 25.344 18.7104 25.1701 20.1214 22.8872L24.3013 16.1359C24.4352 15.9181 24.5586 15.7302 24.6714 15.5678V18.9817C24.6714 21.4981 25.6831 23.5106 27.4466 24.5019C29.0364 25.3958 31.0351 25.315 32.6637 24.2912C34.6378 23.0488 35.7015 20.7597 35.5905 18.0009ZM60.3658 11.851C60.7933 12.11 61.1634 12.686 61.1634 13.205C61.1634 14.04 60.4513 14.731 59.6538 14.731C59.4546 14.731 59.2554 14.674 59.0845 14.616C58.1441 13.925 56.9482 13.464 55.6951 13.464C52.734 13.464 50.6832 15.883 50.6832 18.878C50.6832 21.874 52.734 24.264 55.6951 24.264C57.1756 24.264 58.4861 23.659 59.4828 22.738C59.7403 22.5535 60.0487 22.4529 60.3658 22.45C61.1634 22.45 61.79 23.083 61.79 23.8899C61.79 24.408 61.4763 24.869 61.0779 25.128C59.6538 26.338 57.7176 27.144 55.7242 27.144C51.1679 27.144 47.4648 23.4 47.4648 18.792C47.4648 14.184 51.1671 10.44 55.7242 10.44C57.433 10.44 59.0554 10.958 60.3658 11.851ZM68.6975 15.336C71.8013 15.336 74.4214 17.957 74.4214 21.182C74.4214 24.408 71.8013 27.144 68.6975 27.144C65.4508 27.144 62.7453 24.408 62.7453 21.182C62.7453 17.957 65.4508 15.336 68.6975 15.336ZM68.6684 24.264C70.0361 24.264 71.2029 22.968 71.2029 21.211C71.2029 19.4549 70.0361 18.36 68.6684 18.36C67.1878 18.36 65.9629 19.426 65.9629 21.211C65.9629 22.968 67.1878 24.264 68.6684 24.264ZM76.3734 25.358V17.122C76.3734 16.229 77.0855 15.48 77.9685 15.48C78.8516 15.48 79.5918 16.229 79.5918 17.122V25.358C79.5918 26.251 78.8516 27 77.9685 27C77.0855 27 76.3734 26.251 76.3734 25.358ZM76.1178 12.37C76.1178 11.304 76.9427 10.44 77.9685 10.44C79.0216 10.44 79.8765 11.304 79.8765 12.37C79.8765 13.406 79.0216 14.242 77.9685 14.242C76.9427 14.242 76.1178 13.406 76.1178 12.37ZM85.759 20.894V25.358C85.759 26.251 85.0187 27 84.1348 27C83.2527 27 82.5397 26.251 82.5397 25.358V16.747C82.5397 16.056 83.1099 15.48 83.7938 15.48C84.4768 15.48 85.0187 16.056 85.0187 16.747C86.3283 15.538 87.4669 15.336 88.5491 15.336C91.7676 15.336 93.1917 17.755 93.1917 20.491V25.358C93.1917 26.251 92.4515 27 91.5684 27C90.6854 27 89.9733 26.251 89.9733 25.358V20.894C89.9733 19.483 89.8023 18.302 87.7807 18.302C86.3565 18.302 85.7581 19.483 85.7581 20.894H85.759ZM103.659 22.594C103.289 22.594 103.033 22.421 102.833 22.19L99.0734 18.13V25.358C99.0734 26.251 98.3331 27 97.4501 27C96.567 27 95.8549 26.251 95.8549 25.358V11.0459C95.9493 10.7988 96.189 10.6373 96.4542 10.642C96.738 10.642 96.9654 10.8729 97.1372 11.0459L103.118 17.7559C103.289 17.9579 103.516 18.0729 103.63 18.0729C103.744 18.0729 103.972 17.9579 104.142 17.7568L110.124 11.0459C110.295 10.8729 110.522 10.642 110.807 10.642C111.091 10.642 111.32 10.8149 111.405 11.0459V25.358C111.405 26.251 110.693 27 109.81 27C108.927 27 108.187 26.251 108.187 25.358V18.13L104.428 22.19C104.228 22.421 103.972 22.594 103.659 22.594ZM119.138 24.264C120.591 24.264 121.815 22.968 121.815 21.211C121.815 19.4549 120.562 18.302 119.138 18.302C117.714 18.302 116.575 19.483 116.575 21.211C116.575 22.91 117.714 24.264 119.138 24.264ZM122.556 25.733L122.498 25.358C121.872 26.5961 119.878 27.144 118.596 27.144C115.577 27.144 113.356 24.408 113.356 21.182C113.356 17.957 115.634 15.336 118.767 15.336C119.308 15.336 121.103 15.48 122.498 17.122L122.555 16.747C122.555 16.056 123.096 15.48 123.78 15.48C124.463 15.48 125.032 16.056 125.032 16.747V25.733C125.032 26.424 124.463 27 123.779 27C123.096 27 122.554 26.424 122.554 25.733H122.556ZM133.962 18.302H133.621C131.599 18.418 131.2 19.57 131.2 20.894V25.358C131.2 26.251 130.46 27 129.577 27C128.694 27 127.982 26.251 127.982 25.358V16.747C127.982 16.056 128.551 15.48 129.235 15.48C129.919 15.48 130.46 16.056 130.46 16.747C131.656 15.624 132.625 15.394 133.621 15.336H133.934C134.703 15.336 135.415 15.998 135.415 16.834C135.415 17.611 134.732 18.302 133.962 18.302ZM146.366 24.61C146.509 24.84 146.595 25.099 146.595 25.387C146.595 26.222 145.825 27 144.999 27C144.43 27 143.945 26.568 143.575 26.107L139.874 21.816V25.358C139.874 26.251 139.133 27 138.25 27C137.367 27 136.655 26.251 136.655 25.358V12.2839C136.655 11.39 137.367 10.642 138.25 10.642C139.133 10.642 139.873 11.39 139.873 12.2839V20.434L143.575 16.344C143.945 15.912 144.401 15.48 144.971 15.48C145.769 15.48 146.509 16.229 146.509 17.064C146.509 17.323 146.452 17.582 146.309 17.813L143.376 21.0091L146.366 24.6091V24.61ZM150.369 20.2704H155.011C155.011 18.6274 153.921 17.8119 152.69 17.8119C151.459 17.8119 150.369 18.6618 150.369 20.2704ZM156.891 22.219H150.369C150.369 24.149 152.22 24.437 153.046 24.437C153.645 24.437 154.499 24.322 155.154 24.0331C155.353 23.8899 155.695 23.774 155.979 23.774C156.691 23.774 157.289 24.3799 157.289 25.0999C157.289 25.589 156.976 26.021 156.578 26.251C155.581 26.971 154.299 27.144 153.075 27.144C149.828 27.144 147.122 25.3879 147.122 21.326C147.122 18.13 148.774 15.336 152.619 15.336C155.723 15.336 158.086 17.352 158.144 20.952C158.144 21.643 157.574 22.219 156.891 22.219ZM165.849 27.144H164.966C162.516 27.144 161.093 26.078 161.093 22.248V18.302H160.267C159.497 18.302 158.814 17.611 158.814 16.834C158.814 15.998 159.497 15.336 160.267 15.336H161.093V12.283C161.093 11.39 161.805 10.6411 162.688 10.6411C163.57 10.6411 164.311 11.39 164.311 12.283V15.336H165.649C166.418 15.336 167.102 15.998 167.102 16.834C167.102 17.611 166.418 18.302 165.649 18.302H164.311V21.614C164.311 23.803 164.425 24.264 165.393 24.264H165.849C166.617 24.264 167.272 24.898 167.272 25.704C167.272 26.482 166.617 27.144 165.849 27.144ZM181.442 11.851C181.869 12.11 182.24 12.686 182.24 13.205C182.24 14.04 181.528 14.731 180.73 14.731C180.531 14.731 180.331 14.674 180.161 14.616C179.22 13.925 178.025 13.464 176.771 13.464C173.81 13.464 171.759 15.883 171.759 18.878C171.759 21.874 173.809 24.264 176.771 24.264C178.252 24.264 179.562 23.659 180.559 22.738C180.817 22.5535 181.125 22.4529 181.442 22.45C182.24 22.45 182.865 23.083 182.865 23.8899C182.865 24.408 182.553 24.869 182.154 25.128C180.73 26.338 178.793 27.144 176.8 27.144C172.243 27.144 168.541 23.4 168.541 18.792C168.541 14.184 172.242 10.44 176.8 10.44C178.509 10.44 180.132 10.958 181.442 11.851ZM189.603 24.264C191.055 24.264 192.279 22.968 192.279 21.211C192.279 19.4549 191.026 18.302 189.602 18.302C188.179 18.302 187.039 19.483 187.039 21.211C187.039 22.91 188.179 24.264 189.602 24.264H189.603ZM193.019 25.733L192.963 25.358C192.336 26.5961 190.343 27.144 189.061 27.144C186.042 27.144 183.821 24.408 183.821 21.182C183.821 17.957 186.1 15.336 189.232 15.336C189.773 15.336 191.567 15.48 192.963 17.122L193.019 16.747C193.019 16.056 193.561 15.48 194.244 15.48C194.927 15.48 195.498 16.056 195.498 16.747V25.733C195.498 26.424 194.927 27 194.244 27C193.561 27 193.019 26.424 193.019 25.733ZM204.341 24.264C205.765 24.264 206.904 22.91 206.904 21.211C206.904 19.483 205.765 18.302 204.341 18.302C202.917 18.302 201.664 19.4541 201.664 21.211C201.664 22.968 202.889 24.264 204.341 24.264ZM201.664 26.194V30.283C201.664 31.176 200.924 31.925 200.041 31.925C199.158 31.925 198.446 31.176 198.446 30.283V16.747C198.446 16.056 199.016 15.48 199.7 15.48C200.383 15.48 200.925 16.056 200.925 16.862C202.12 15.624 203.601 15.336 204.711 15.336C207.844 15.336 210.122 17.957 210.122 21.182C210.122 24.408 207.902 27.144 204.882 27.144C203.943 27.144 202.547 26.856 201.664 26.194Z" fill="#0686CE"/>
</svg>
