<svg width="106" height="36" viewBox="0 0 106 36" fill="none" xmlns="http://www.w3.org/2000/svg">
<g clip-path="url(#clip0)">
<path d="M8.45915 34.4081C6.89949 34.4081 5.52638 34.0208 4.37794 33.2461C2.82085 32.2036 1.82023 30.5348 1.48454 28.4258C1.16887 26.4445 1.44968 24.105 2.29472 21.6603C3.13976 19.2156 4.53481 16.7218 6.3301 14.4301C8.98593 11.0415 12.286 8.37343 15.6216 6.91705C17.4105 6.13786 19.1122 5.74536 20.6821 5.74536C22.2418 5.74536 23.6149 6.1327 24.7634 6.90737C25.8976 7.66719 26.7446 8.77303 27.2468 10.1397C27.3425 9.96123 27.422 9.77456 27.4844 9.58191L28.0008 7.91766L28.2997 9.6342C28.9162 13.1803 27.9479 16.4042 26.8698 18.6888C27.1518 18.5203 27.416 18.324 27.6587 18.1026L28.9279 16.9103L28.341 18.55C27.3895 21.2078 25.7885 23.6189 23.5762 25.7312C24.0707 25.686 24.5781 25.5976 24.9783 25.4317L26.5877 24.7654L25.458 26.0914C22.7273 29.2985 18.9514 30.9505 16.2433 31.7723C15.3745 32.3291 14.4639 32.8177 13.5197 33.2339C11.7308 34.0098 10.0285 34.4081 8.45915 34.4081ZM20.677 8.51545C19.4995 8.51545 18.1729 8.83371 16.7339 9.46184C13.8115 10.7375 10.8936 13.1105 8.51661 16.1427C5.3495 20.1833 3.70526 24.7248 4.22558 27.9894C4.43991 29.3366 5.01123 30.3295 5.92276 30.9402C6.60898 31.3992 7.4637 31.6322 8.46432 31.6322C9.64182 31.6322 10.9684 31.314 12.4074 30.6859C15.3298 29.4102 18.2477 27.0372 20.6247 24.005C23.7918 19.9638 25.436 15.4249 24.9157 12.1583C24.7014 10.8111 24.1301 9.81819 23.2185 9.20749C22.5323 8.7485 21.6776 8.51545 20.677 8.51545Z" fill="#56A4CB"/>
<path d="M25.6221 15.2671C26.5065 14.0812 26.8377 12.5138 27.0203 11.4771C26.3212 12.3389 25.7835 12.7172 25.7835 12.7172C25.8642 13.4996 25.9126 14.2665 25.6221 15.2671Z" fill="#277DAD"/>
<path d="M13.9631 8.75342C21.329 4.08797 26.0009 9.09105 26.0738 10.3286C25.7749 8.37577 24.3954 7.00396 22.7595 6.23252C21.3386 5.49723 17.0683 6.51979 17.0683 6.51979L13.9631 8.75342Z" fill="#DDEDF5"/>
<path d="M11.4615 32.958C10.1433 33.8353 6.83612 33.4854 6.16797 33.2459C6.16797 32.4067 6.43975 31.512 6.43975 31.512H8.06268C8.06268 31.512 8.04202 32.1724 9.75275 31.7528C10.6772 32.2266 11.4615 32.958 11.4615 32.958Z" fill="#277DAD"/>
<path d="M1.60718 25.8545C3.09648 20.7301 8.19187 10.8776 17.8991 6.55233C16.3582 5.89967 9.77865 9.47154 6.33137 14.4281C2.09135 20.5286 2.09135 22.0457 1.60718 25.8545Z" fill="#DDEDF5"/>
<path d="M22.759 20.9592C22.759 20.9592 24.3975 20.4072 25.4058 19.6461C26.1805 18.3505 27.4936 15.2421 27.4936 12.5237C25.5995 16.9445 24.2658 17.4577 24.2658 17.4577C23.5628 19.5816 23.2974 19.8979 22.759 20.9592Z" fill="#277DAD"/>
<path d="M23.7918 26.6827C20.7577 29.0435 18.6874 29.9892 16.0096 30.8788L14.2924 31.8258L13.8909 30.1687C13.8909 30.1687 20.3626 26.7395 22.5142 21.3678C23.5562 21.8629 26.3547 20.5396 27.0202 19.5815C25.7291 21.9056 21.3393 26.6401 21.3393 26.6401L23.7918 26.6827Z" fill="#277DAD"/>
<path d="M20.6822 6.16174C22.1411 6.16174 23.4464 6.52454 24.5297 7.25015C25.8253 8.11778 26.7091 9.45537 27.1119 11.1409C27.4347 10.689 27.7355 10.179 27.8866 9.70004C28.5386 13.4501 27.3908 16.8444 26.1023 19.2788C26.0551 19.3957 26.0067 19.5132 25.957 19.63C26.6671 19.3072 27.4231 18.8934 27.946 18.4035C26.7536 21.7345 24.6536 24.2845 22.4432 26.187H22.5911C23.3431 26.187 24.3935 26.1224 25.1391 25.8138C22.5272 28.8802 18.9417 30.5167 16.0664 31.3837C15.2013 31.9413 14.2936 32.43 13.3518 32.8452C11.6088 33.6057 9.95492 33.9859 8.46045 33.9859C7.00149 33.9859 5.69617 33.6231 4.61293 32.8975C3.15526 31.9214 2.21726 30.3521 1.90158 28.3599C1.59688 26.4465 1.87124 24.1773 2.69497 21.7978C3.52129 19.4021 4.89439 16.9445 6.66193 14.6896C9.27515 11.3546 12.5178 8.7317 15.7908 7.30244C17.5338 6.54197 19.1877 6.16174 20.6822 6.16174ZM8.46432 32.0518C9.68443 32.0518 11.0775 31.7239 12.5752 31.07C15.5603 29.7672 18.5357 27.3502 20.9552 24.2638C24.1914 20.1323 25.8679 15.4707 25.3302 12.0925C25.0965 10.6251 24.4645 9.53736 23.4522 8.85888C22.6911 8.34953 21.7512 8.09583 20.6763 8.09583C19.4556 8.09583 18.0631 8.42377 16.5654 9.07708C13.5804 10.3805 10.6044 12.7974 8.18544 15.8838C4.94926 20.0154 3.27275 24.677 3.8105 28.0552C4.04419 29.5225 4.67619 30.6103 5.68843 31.2888C6.44889 31.7981 7.38947 32.0518 8.46432 32.0518ZM20.6822 5.32574C19.0541 5.32574 17.2956 5.73309 15.4531 6.53681C12.0549 8.02159 8.69737 10.7329 5.99958 14.175C4.17717 16.4991 2.75888 19.0438 1.89964 21.5234C1.03072 24.0327 0.745387 26.4426 1.06817 28.4916C1.42322 30.7207 2.48839 32.4857 4.14231 33.5915C5.36113 34.4081 6.81299 34.8219 8.45722 34.8219C10.0847 34.8219 11.8438 34.4146 13.6862 33.6109C14.633 33.1943 15.5466 32.7059 16.4189 32.15C18.0527 31.6569 19.6274 30.9858 21.1147 30.1487C24.3902 28.2844 25.5974 26.9661 27.8976 24.0269L24.8525 25.0191C27.9169 21.6874 28.6903 19.6675 29.6722 15.8522L27.9124 17.2815C29.8601 12.7387 28.5689 7.78402 28.1558 6.77824C27.8859 7.57422 27.4457 8.69232 27.2139 9.0306C26.6927 8.0331 25.9307 7.18148 24.9971 6.55294C23.7783 5.73631 22.3264 5.32251 20.6822 5.32251V5.32574ZM8.46432 31.2126C7.54828 31.2126 6.77167 31.0035 6.15645 30.5916C5.34563 30.048 4.83564 29.1507 4.64004 27.9235C4.13779 24.768 5.74975 20.3537 8.8465 16.4016C11.1815 13.423 14.0419 11.0951 16.9018 9.84658C18.2871 9.24169 19.5576 8.93505 20.677 8.93505C21.593 8.93505 22.369 9.14421 22.9849 9.55608C23.7957 10.0996 24.3057 10.997 24.5013 12.2242C25.0035 15.3797 23.3916 19.794 20.2948 23.7461C17.9598 26.726 15.0994 29.05 12.2395 30.3011C10.8535 30.906 9.58372 31.2126 8.46432 31.2126Z" fill="#083751"/>
<path d="M8.46441 31.2126C7.54837 31.2126 6.77176 31.0035 6.15654 30.5916C5.34572 30.048 4.83573 29.1507 4.64013 27.9235C4.13788 24.768 5.74984 20.3537 8.84658 16.4016C11.1816 13.423 14.042 11.0951 16.9019 9.84659C18.2872 9.2417 19.5577 8.93506 20.6771 8.93506C21.5931 8.93506 22.3691 9.14422 22.985 9.55609C23.7958 10.0996 24.3058 10.997 24.5014 12.2242C25.0036 15.3797 23.3917 19.794 20.2949 23.7461C17.9599 26.726 15.0995 29.05 12.2396 30.3011C10.8536 30.906 9.58381 31.2126 8.46441 31.2126Z" fill="#083751"/>
<path d="M4.21656 1.41078C4.17847 1.89172 4.21139 4.19443 5.08032 4.58628C4.47801 3.16605 5.11776 0.519259 8.13768 0.506348C7.58508 0.918214 7.16159 1.59411 6.97567 2.04536C6.77585 2.26325 6.5991 2.50122 6.44825 2.75547C6.66581 2.62636 7.37205 1.42691 10.0221 1.41852C10.7257 1.41852 11.4901 1.49534 12.1137 1.8504C11.042 1.58508 9.9007 2.17318 9.01112 2.77161C9.63796 2.5702 10.5501 1.9666 11.8335 2.21772C12.696 2.38621 13.0504 3.1809 13.7624 3.59083C14.3434 3.92587 15.1685 3.9007 15.5487 3.2758C15.6435 3.12062 15.6908 2.9411 15.6849 2.75935C15.8479 2.9317 15.9905 3.12233 16.1097 3.32744C16.3741 3.78529 16.4845 4.31595 16.4247 4.84128C15.7966 4.78124 15.1781 4.99815 14.5481 4.9252C13.9379 4.84405 13.3614 4.5986 12.8799 4.21508C13.2226 4.72829 13.7399 5.09967 14.3357 5.26024C15.0936 5.46359 15.8314 5.17955 16.5887 5.31382C17.4531 5.46618 18.5421 6.02975 19.5286 5.37386C19.7032 5.25487 19.8499 5.09936 19.9585 4.9181C20.1159 5.35153 20.1281 5.82438 19.9934 6.26538C19.9236 6.51334 19.7937 6.74022 19.6151 6.92579C19.453 7.08653 19.2548 7.1414 19.0689 7.25244C18.444 6.99421 17.7449 6.90706 17.0677 6.8651C17.6764 7.05877 18.3001 7.25244 18.8752 7.52809C19.4504 7.80374 19.8391 8.23821 20.2419 8.72237C20.5769 9.1252 20.9675 9.49188 21.4923 9.61647C21.8528 9.70232 22.2303 9.68396 22.5807 9.56354C22.6744 10.0897 22.187 10.9476 21.5072 11.0612C21.8361 11.2711 22.1903 11.4383 22.5614 11.559C22.3032 11.7914 21.6867 11.965 21.2903 11.9857C22.2431 12.4853 22.7228 13.8165 22.7008 14.8971C22.5478 14.5673 22.3722 14.187 21.9733 13.8991C22.0856 14.3607 22.0649 14.9243 21.9797 15.4485C21.7912 15.269 21.076 14.4401 20.7712 14.0392C20.9191 13.5776 20.8933 13.2594 20.7913 12.7894C20.6621 13.5641 20.1076 14.453 19.8229 14.8093C19.952 14.3271 19.9017 13.8081 19.8229 13.3246C19.7265 12.7796 19.5675 12.2476 19.3491 11.7391C18.8785 10.5906 18.8785 10.5906 18.4718 9.59065C18.2361 10.5454 18.0341 10.9909 17.721 11.3776C17.7371 11.0717 17.7163 10.765 17.659 10.4641C17.6371 10.3389 17.4415 9.35954 16.5254 8.04454C16.6048 8.65395 16.8482 9.37762 16.5596 10.0593C16.5409 9.54804 16.2033 8.06778 15.1801 7.47709C15.4667 7.9703 15.7185 9.51512 15.3737 9.91149C15.4067 9.05936 14.8134 8.27371 14.1665 7.75791C13.6875 7.37574 11.0317 5.89354 11.0356 5.89999C11.0395 5.90645 11.5281 8.03679 10.4598 8.20528C10.7864 7.4687 9.96525 5.91871 9.03952 5.63338C9.14798 5.1137 9.11893 4.4888 8.93946 4.01948C8.47982 4.5185 7.31524 4.5398 6.68453 5.08723C6.41339 5.32093 6.12483 5.67727 6.00798 6.09108L5.65809 6.57396C5.6508 6.53243 5.63545 6.49273 5.6129 6.45711L3.87054 4.80061C3.47352 4.0453 3.36507 2.22224 4.21656 1.41078Z" fill="#E61C3F"/>
<path d="M2.23804 3.82031L3.22703 4.81834C3.17345 4.91453 3.10179 5.0217 2.99592 5.04623C3.05775 5.06059 3.12241 5.05684 3.18217 5.03543C3.24193 5.01402 3.29426 4.97586 3.3329 4.92551L3.80029 5.39741C3.70539 5.61109 3.54916 5.87319 3.30643 5.91386C3.61695 6.00294 3.85451 5.8054 3.9649 5.56396L4.56011 6.16433C4.48135 6.44773 4.30898 6.80989 3.81255 6.87445C4.35159 7.00356 4.65694 6.69175 4.757 6.36187L5.17661 6.78536C5.31412 7.23725 4.53945 7.76273 4.07917 7.64201L2.23804 3.82031Z" fill="white"/>
<path d="M6.06232 31.8664C5.98743 32.8631 5.70662 34.7307 4.65758 35.2007C4.3348 35.0716 4.05205 34.6416 3.82739 34.1349C3.94359 33.3918 4.27928 33.1665 4.92484 32.6804C5.29862 32.3996 5.55556 31.9058 5.71372 31.512C5.8622 31.6682 5.98937 31.7947 6.06232 31.8664Z" fill="#9EA7AC"/>
<path d="M13.0322 29.6955C13.1465 29.9679 13.3001 30.3411 13.4544 30.7329C13.5513 30.9795 13.6481 31.2339 13.7352 31.4779C13.9657 32.1189 14.1329 32.6825 14.058 32.8123C13.9831 32.942 13.5558 32.9878 12.9877 32.9414C12.6468 32.4553 12.6572 32.0937 12.7295 31.4992C12.7392 31.4166 12.7508 31.3288 12.7624 31.2358C12.785 31.0078 12.768 30.7776 12.712 30.5554C12.6245 30.2109 12.4944 29.8787 12.3247 29.5664C12.5647 29.5822 12.8021 29.6256 13.0322 29.6955Z" fill="#9EA7AC"/>
<path d="M23.2974 18.8224C22.4954 20.554 21.4926 22.1853 20.3098 23.6828C19.8682 24.2483 19.4092 24.7893 18.9328 25.3057C19.089 24.1244 18.7482 22.8836 17.9922 22.2987C18.6933 23.7977 18.5087 25.0604 17.9193 26.0152C17.0394 27.4296 15.3945 28.0384 14.4042 28.0171C13.6537 27.9943 12.921 27.7827 12.2739 27.4019C12.2739 27.4019 9.5251 26.726 9.34499 27.3489C9.16488 27.9719 10.1158 29.5664 10.1158 29.5664C10.1158 29.5664 10.7723 29.5354 10.8311 30.008C11.0937 29.7903 11.4101 29.6473 11.7471 29.5942C12.008 29.7678 12.2031 30.024 12.301 30.3217C12.4792 30.8788 12.2887 31.4966 12.1874 31.9414C12.1668 32.0238 12.1508 32.1072 12.1396 32.1913C12.1262 32.2921 12.1303 32.3946 12.1519 32.494C12.1809 32.6213 12.2361 32.7411 12.3139 32.8459C12.0914 32.8029 11.8716 32.7473 11.6554 32.6793C11.4209 32.6062 11.1923 32.5152 10.9718 32.4069C10.6273 32.2465 10.3217 32.0135 10.0758 31.7239C9.06547 31.793 8.72009 32.0092 8.41087 31.4456C8.31818 31.264 8.24212 31.0742 8.18363 30.8788C7.7821 29.6355 6.87832 28.3715 6.50906 27.8576C6.1398 27.3438 6.60718 26.2631 7.49095 25.8745C8.37472 25.4859 11.9679 24.5653 12.4992 23.8558C13.0305 23.1464 12.7884 21.6351 15.37 20.6726C14.6321 20.4331 12.4979 21.495 11.9679 23.3736C10.9666 24.0295 8.407 24.7732 7.71044 24.9797C6.55941 25.3206 5.91321 26.1534 5.72664 26.6801C5.1579 26.8816 4.23024 27.2024 4.22184 27.6485C4.21216 28.1475 4.56722 28.8692 4.54462 29.9034C4.54462 30.0661 4.7086 30.3385 4.93648 30.6316C5.07979 30.8169 5.24764 31.0105 5.41096 31.19C5.37266 31.5379 5.2096 31.8601 4.95197 32.097C4.76759 32.27 4.56424 32.4216 4.34579 32.5489C4.12953 32.6819 3.92618 32.791 3.78674 32.8956C3.66603 32.9869 3.57069 33.1075 3.50979 33.2461C3.40591 32.8973 3.33587 32.5393 3.30063 32.1771C2.74481 31.4172 2.5421 31.2087 2.43946 30.8859C2.43137 30.857 2.42597 30.8274 2.42332 30.7975C2.382 30.4179 2.48013 29.2824 2.5421 28.6258C2.61892 28.6168 2.78096 28.7266 3.09212 28.9021L3.15667 28.9409L3.0734 28.8118C2.62151 28.1184 2.10958 27.3541 2.33488 26.6601C2.45624 26.287 2.69316 26.0791 3.06823 25.8551C3.07034 25.8532 3.07274 25.8517 3.07533 25.8506C3.21929 25.7634 3.38456 25.6737 3.57177 25.5704C4.24702 25.1966 6.9674 24.3174 7.32117 23.597C7.52245 23.1968 7.74706 22.8088 7.99384 22.4349C8.05177 22.9607 8.16561 23.4788 8.3334 23.9804C8.29338 20.3653 9.60645 18.1007 10.1235 17.3486C10.1832 18.0703 10.1843 18.7957 10.1268 19.5177C10.8485 18.8405 10.8943 15.8561 9.97441 13.4359C9.89781 13.234 9.8141 13.0367 9.72329 12.8439C9.62646 12.638 9.52188 12.4385 9.40955 12.2474C9.59206 11.8514 9.67177 11.4158 9.6413 10.9808C9.62737 10.7753 9.59144 10.5718 9.53414 10.374C9.43679 10.0166 9.26325 9.68449 9.02544 9.40048C9.12744 9.85818 9.21911 10.2533 9.23008 10.6451C9.23922 10.9195 9.20167 11.1935 9.11905 11.4553C9.09581 11.5282 9.06869 11.6018 9.03771 11.6774C9.04287 11.6251 9.04675 11.5734 9.04804 11.5218C9.05565 11.303 9.03394 11.0841 8.98348 10.8711C8.95406 10.7463 8.91522 10.6239 8.86728 10.505C8.86018 10.4882 8.83436 10.5005 8.83823 10.5173C8.8714 10.66 8.89107 10.8054 8.89698 10.9518C8.90736 11.2192 8.87865 11.4867 8.81176 11.7458C8.78311 11.8612 8.74842 11.9749 8.70783 12.0867C8.64794 12.2514 8.57963 12.413 8.50319 12.5708C7.99513 13.1944 7.1856 13.39 6.76922 14.1305C6.73048 14.1143 6.68658 14.0963 6.6401 14.0776C6.4833 14.0161 6.32211 13.9664 6.15787 13.9291C5.86544 13.8645 5.53878 13.8413 5.26959 13.9497C5.1304 13.9932 4.99821 14.0564 4.87709 14.1376C4.76659 14.209 4.67421 14.3052 4.60724 14.4184C4.7654 14.2409 5.2528 14.0956 5.64014 14.1014C5.74733 14.1123 5.84976 14.1513 5.93709 14.2144C6.06434 14.3072 6.16244 14.4344 6.21985 14.5811C6.21912 14.5883 6.21715 14.5952 6.21404 14.6017C6.21694 14.597 6.21953 14.592 6.22178 14.5869V14.5921C6.31023 14.807 6.36058 15.1169 6.32249 15.5636C6.21339 16.0097 6.10946 16.4087 5.9584 16.5907C5.67048 16.9419 4.72603 17.5048 4.21862 17.6036C4.18035 17.6128 4.14154 17.6194 4.10242 17.6236C3.96764 17.6312 3.83261 17.614 3.70411 17.5726C3.65956 17.5603 3.61437 17.5448 3.56919 17.5274C3.65651 17.4586 3.7471 17.394 3.84097 17.3337C3.9402 17.2696 4.04325 17.2116 4.14954 17.1601C4.27392 17.1003 4.3912 17.0426 4.50137 16.9871C5.30251 16.5894 5.72793 16.3247 5.86092 16.0794C5.98293 15.8541 5.89126 15.541 5.70082 15.2693C5.61452 15.1436 5.5111 15.0306 5.39353 14.9336C5.33711 14.8868 5.27686 14.845 5.21342 14.8083C5.30499 14.7835 5.40094 14.7796 5.49424 14.7967C5.57801 14.8108 5.66097 14.8293 5.74278 14.8522C5.69436 14.798 5.44841 14.7386 5.37739 14.6973C5.14499 14.5604 4.93841 14.6192 4.78025 14.7973C4.57367 15.0298 4.29027 15.8535 3.8074 16.4177C3.47816 16.805 2.8552 16.9464 2.49239 16.9987C1.97595 16.6333 1.65317 16.1324 1.61121 15.7347C1.56408 15.2615 1.67576 14.623 2.15541 14.3287C2.51822 13.4585 3.16119 11.0757 3.20186 10.7052C3.24253 10.3346 2.79064 9.34174 2.83131 8.87758C2.86101 8.54835 3.33937 7.76206 3.46719 7.55677L3.62535 7.92151C3.62922 7.92538 3.64536 7.9441 3.67312 7.96928C3.43749 8.55028 3.4149 9.28816 3.56015 9.87432C3.59436 9.50313 3.6247 9.13645 3.72864 8.77688C3.79319 8.54899 3.87647 8.32886 3.95717 8.10808C4.18634 8.15778 4.54656 8.12357 5.07721 7.79046C5.30712 7.65792 5.49061 7.45776 5.60269 7.21721L5.99003 6.77371C6.01701 6.882 6.05734 6.98652 6.1101 7.08487C6.1101 6.79953 6.30377 6.32375 6.52907 5.96741C6.94868 5.29344 7.75369 5.09138 8.26498 4.84155C8.06098 5.03135 7.84794 5.21081 7.64976 5.40642C7.23079 5.81828 6.97709 6.3102 7.04422 6.90282C7.27598 6.27017 7.64072 5.80537 8.15975 5.38189C8.28886 5.27472 8.48253 5.13205 8.64715 4.96744C8.57613 5.43611 8.51803 5.90479 8.21139 6.30891C7.84859 6.79114 7.22434 7.2611 7.78533 7.88536C7.63039 7.46897 8.19332 7.07131 8.43088 6.81115C8.63966 6.58148 8.80521 6.31598 8.91957 6.02744C9.95246 6.64524 10.6335 8.20491 9.60709 8.49089C10.0461 8.74137 11.8898 8.88468 11.6174 6.79759C12.1338 7.12037 12.6845 7.38892 13.2313 7.69556L13.2745 7.71945C13.4376 7.81083 13.5959 7.91037 13.749 8.0177C14.2506 8.37017 14.5617 8.72781 14.7464 9.06673C14.8493 9.25077 14.9211 9.45058 14.9588 9.65806C15.0556 10.1984 14.8645 10.6038 14.7696 10.691C15.2744 10.678 15.8671 10.3107 15.8942 9.17389V9.03897L15.8981 9.04865C15.9103 9.08481 15.9219 9.11967 15.9342 9.15453C16.3125 10.3101 16.3164 10.966 16.3164 10.966C16.6392 10.6774 17.002 10.303 17.0497 9.59544C17.0723 9.71358 17.4074 10.882 17.3286 12.0628C17.5591 11.9847 18.1556 11.8517 18.4984 10.933C18.6062 11.2558 18.9438 11.9427 19.1594 12.7025C19.3027 13.2067 19.4099 13.7457 19.3873 14.2725C19.3505 15.1382 18.9354 15.5636 18.9025 15.6618C18.9322 15.6663 19.8973 15.7444 20.4893 14.7431C21.0625 15.7767 21.9502 17.3492 23.2974 18.8224Z" fill="#E5ECEF"/>
<path d="M5.23462 10.9685C5.45669 10.5696 5.82466 10.0092 6.30496 9.59863C6.43407 9.71161 6.51024 9.96466 6.53607 10.1248C6.63806 10.7368 6.09257 10.5186 5.23462 10.9685Z" fill="#FFCE55"/>
<path d="M1.49941 16.3537C1.49941 16.3537 1.61303 15.3267 2.54586 15.0943C2.42385 14.6088 2.78472 13.7095 3.43028 13.8955C3.57101 12.6366 3.91509 11.055 3.91509 11.055C3.91509 11.055 4.60455 11.2648 4.68976 10.8936C4.77497 10.5224 5.0771 9.34427 6.16034 9.02149C5.23655 9.02149 4.71236 9.90784 4.35794 10.5211C3.83052 10.505 3.40639 9.98853 3.57295 9.18159C3.7395 8.37464 3.83117 7.84205 3.83117 7.84205L3.43286 7.37402C3.43286 7.37402 2.44451 8.36108 2.61042 9.02149C2.77633 9.68189 3.22047 10.4992 2.99775 10.9672C2.77504 11.4352 1.94614 14.0814 1.94614 14.0814C1.24894 14.929 1.18696 15.5287 1.49941 16.3537Z" fill="white"/>
<path d="M16.089 20.9592C15.3092 20.9592 13.1362 22.4976 13.1362 24.1005C11.9387 24.617 8.96655 25.7041 8.96655 25.7041L13.5274 24.9507C13.5274 24.9507 14.845 25.4994 15.7281 24.9507C16.6113 24.402 16.3918 23.3317 16.3918 23.3317C15.3059 24.2729 13.5558 22.3795 16.089 20.9592Z" fill="white"/>
<path d="M11.9819 10.4404C13.4628 11.8645 16.5415 15.2996 15.3091 18.3337C14.9257 16.1659 13.5558 13.0401 11.9819 10.4404Z" fill="white"/>
<path d="M1.86548 16.634C1.86548 16.634 2.23022 16.9135 2.553 16.634C3.03394 16.2176 2.63498 15.144 2.94033 14.869C3.24568 14.594 3.87252 14.654 3.93643 14.7618C3.77052 14.31 3.62914 13.8148 3.73695 13.6211C3.84476 13.4275 4.22951 12.2655 5.02807 11.749C4.68721 12.3391 4.09459 13.7774 4.3554 14.4171C4.59748 14.0814 5.71623 13.767 6.21138 14.2538C6.70652 14.7405 6.73944 16.1007 6.21138 16.7547C5.68331 17.4086 4.30246 18.0968 3.93643 18C2.85125 17.5674 2.37289 17.2117 1.86548 16.634Z" fill="#9EA7AC"/>
<path d="M4.35596 14.4171C5.09318 13.2822 5.89174 13.7664 6.55085 12.2655C6.63598 12.4834 6.63598 12.7254 6.55085 12.9433C7.65992 12.4598 9.14858 10.3559 8.64634 8.37598C9.09823 8.99959 9.5017 10.9582 9.24348 11.8781C8.98525 12.798 7.82325 13.4436 7.5973 13.8148C7.37136 14.186 6.59798 14.767 6.59798 14.767C6.21323 14.0827 5.12482 14.2428 4.35596 14.4171Z" fill="#9EA7AC"/>
<path d="M4.77051 11.3616C4.77051 11.3616 5.97641 11.4978 6.59551 11.1841C7.2146 10.8703 7.54642 9.84456 7.54642 9.4895C7.36631 9.97367 6.75561 10.3048 6.75561 10.3048C6.53457 10.5312 6.2638 10.703 5.96479 10.8064C5.47933 10.9685 4.96418 11.1195 4.96418 11.1195L4.77051 11.3616Z" fill="#9EA7AC"/>
<path d="M4.35604 6.76196C4.35604 6.76196 4.65429 6.46306 4.58586 6.05572C4.47741 6.39076 4.2463 6.45532 4.14301 6.45532C4.03972 6.45532 3.63431 5.80976 3.63431 5.80976C3.63431 5.80976 4.07264 5.39531 3.93707 5.11901C3.80086 5.40112 3.43031 5.6516 3.43031 5.6516L2.99585 5.04994C2.99585 5.04994 3.5123 4.81237 3.43031 4.58643C3.26957 4.58643 5.10876 6.22937 5.10876 6.22937L5.47867 6.82974C5.47867 6.82974 5.47867 7.1848 4.92478 7.53082C4.49484 7.04342 4.35604 6.76196 4.35604 6.76196Z" fill="#9EA7AC"/>
<path d="M9.38619 11.0066C9.95687 10.7019 8.6438 8.84272 8.6438 8.37598C10.7419 10.2836 12.5494 13.3468 11.7425 16.0007C11.5488 15.4519 11.0001 14.3313 11.0001 14.3313C11.0001 14.3313 11.9374 16.8812 10.4036 18.6242C10.5482 16.3648 9.60891 12.9614 9.16025 12.5237C9.56372 11.8233 9.38619 11.0066 9.38619 11.0066Z" fill="#9EA7AC"/>
<path d="M14.732 20.6931C13.6991 20.604 11.8715 21.3354 11.3874 22.7879C11.4171 22.2508 11.3286 21.6369 12.0019 20.959C11.0982 20.959 9.93616 22.2501 9.93616 23.3315C8.41845 24.0416 3.80335 26.2416 3.43151 26.5644C3.05967 26.8872 3.1197 27.2287 3.73879 28.7051C3.35081 29.7922 2.77691 30.4358 4.23136 31.6966C4.83043 32.213 5.11061 32.2776 5.11061 32.2776L5.73034 31.0045C5.73034 31.0045 4.26557 28.2835 4.68777 27.5973C5.68386 26.9195 6.06216 26.8226 6.06216 26.8226C6.06216 26.8226 6.41657 25.7575 8.22414 25.241C10.0317 24.7246 12.3273 23.6594 12.3273 23.6594C12.8076 21.2708 14.2924 20.9694 14.732 20.6931Z" fill="#9EA7AC"/>
<path d="M18.5853 25.5961C18.5853 25.5961 18.8436 22.6911 17.4569 21.4968C17.8107 22.2392 17.9734 23.724 17.4569 24.4664C17.464 23.8062 17.235 23.1652 16.8114 22.6588C16.8114 22.6588 17.5111 25.2733 15.5532 25.9028C14.0096 26.2417 13.3899 25.5316 13.3899 25.5316C11.7437 26.1126 9.38745 26.3385 8.70962 26.4999C8.25773 27.5328 8.25773 29.6179 9.82385 31.1021C9.70867 30.7362 9.61681 30.3634 9.54884 29.9859C9.54884 29.9859 10.0479 30.7929 10.5882 30.6638C11.1285 30.5346 11.8974 29.7993 12.7721 30.9581C12.4248 29.76 12.0168 29.3081 12.0168 29.3081L10.9032 29.3726L10.1286 28.953L9.57983 27.5005L12.0168 27.7265C12.0168 27.7265 14.4196 29.0867 15.9386 28.1784C17.4576 27.2701 18.5853 25.5961 18.5853 25.5961Z" fill="#9EA7AC"/>
<path d="M5.01446 15.0575C5.0598 15.0566 5.10502 15.0622 5.14874 15.0743C5.13453 15.47 4.65424 15.9729 4.65424 15.9729C5.03189 15.7592 5.28818 15.5778 5.43795 15.2569C5.51709 15.3411 5.5751 15.4429 5.6072 15.5539C5.63929 15.6649 5.64457 15.782 5.62258 15.8954C5.55286 16.1982 4.31403 16.7088 3.73755 16.9444C4.5658 16.408 4.60776 15.0684 5.01446 15.0575Z" fill="white"/>
<path d="M21.1032 14.8793L20.5868 14.0813C20.5868 14.0813 19.9025 15.1058 19.457 15.2995C19.8599 13.5565 19.102 11.5198 18.4564 10.4404C18.4002 10.72 18.281 10.9831 18.108 11.2098C17.9349 11.4365 17.7126 11.6209 17.4577 11.7489C17.4577 11.7489 17.4758 10.6166 17.2189 9.71285C17.1537 9.45992 17.0485 9.21908 16.9071 8.99951C16.882 9.31467 16.82 9.62581 16.7224 9.92653C16.6681 10.1086 16.5891 10.2824 16.4875 10.443C16.4875 10.443 16.45 10.2977 16.39 10.084C16.3254 9.86004 16.2389 9.55985 16.1427 9.27193C16.0097 8.87039 15.8613 8.49339 15.7451 8.37848C15.7289 8.60894 15.7967 9.03436 15.7263 9.47593C15.6853 9.78291 15.5559 10.0713 15.3538 10.3061L15.31 10.2454C15.2857 10.078 15.2523 9.91209 15.2099 9.74835C15.0898 9.27645 14.8432 8.58635 14.3771 8.21192C14.3281 8.17254 14.2725 8.13058 14.2119 8.08798C13.9937 7.9324 13.709 7.75745 13.4062 7.58186C12.5347 7.07897 11.5102 6.57801 11.4644 6.55542C12.0305 6.91375 12.5557 7.33307 13.0305 7.80587C13.2298 8.0075 13.4142 8.22324 13.5824 8.45143C14.084 9.13701 14.279 9.76256 14.3184 10.2706C14.3355 10.4831 14.3244 10.6969 14.2854 10.9065C13.6935 10.3997 12.9698 9.85552 12.4249 9.68509C12.7174 9.9601 13.3933 10.7619 14.0188 11.5295L14.0092 11.5391C14.0369 11.5637 14.0634 11.5908 14.0905 11.6166C14.3984 11.9936 14.6915 12.3577 14.9181 12.6405C16.1046 14.4939 16.6985 17.322 16.0039 18.9489C16.7302 18.8359 17.5255 17.5519 17.4403 16.4635C17.3757 15.6242 17.04 14.5817 16.838 14.0103C21.0541 18.1555 21.4098 21.0837 21.5235 21.3697C20.9515 20.5757 18.9328 18.6861 18.8696 18.6274C18.9057 18.6919 20.4964 21.4865 21.029 22.7654C22.0999 21.2548 22.954 19.6996 23.557 18.1903L21.1032 14.8793Z" fill="#9EA7AC"/>
<path d="M7.70784 7.43985C8.19588 7.3159 8.85371 7.08479 9.0151 6.72973C9.40243 6.89112 10.2739 7.72906 10.0319 8.37591C10.5276 7.77747 10.0732 6.29721 8.8905 5.80981C8.8905 5.55159 8.77301 4.58325 8.77301 4.58325C8.77301 4.58325 6.38444 6.25267 7.19139 7.65998C7.3205 7.0396 7.7724 6.40695 7.7724 6.40695L7.70784 7.43985Z" fill="#9EA7AC"/>
<path d="M3.66012 4.87574C3.66012 4.87574 3.56781 3.22763 4.00098 2.68988C4.00098 3.18437 4.26889 4.11527 5.08035 4.58588C4.5497 3.46455 4.4348 0.938477 4.4348 0.938477C3.11463 2.1263 3.01134 3.28379 3.66012 4.87574Z" fill="#F0ABAB"/>
<path d="M4.7479 4.08813C4.7479 4.08813 4.38639 1.42004 6.43991 0.709921C8.49342 -0.000192493 8.64384 0.279334 8.64384 0.279334C8.64384 0.279334 6.68457 2.22698 6.15844 3.2489C6.15844 2.71115 6.35986 1.68665 7.02478 1.18312C5.89183 1.31223 4.85765 2.93064 4.7479 4.08813Z" fill="#F0ABAB"/>
<path d="M7.16406 2.01714C8.06268 1.79765 9.75727 1.59753 11.0103 2.04425C9.59007 2.30248 8.71857 2.8512 8.43387 3.32439C9.87024 2.67884 11.6068 2.46257 12.4492 3.1417C13.2917 3.82083 14.2678 5.14293 15.7267 3.82083C15.7267 4.30371 15.8597 4.66909 15.7267 5.07838C16.5124 5.30497 16.799 5.07838 16.799 5.07838C16.799 5.07838 16.8842 2.99064 15.6157 2.47419C15.6028 3.17592 14.8191 3.6362 14.1735 3.46384C13.528 3.29147 12.4247 2.06556 12.4247 2.06556C12.4247 2.06556 12.3421 0.888058 9.58942 1.11852C8.06268 1.08883 7.16406 2.01714 7.16406 2.01714Z" fill="#F0ABAB"/>
<path d="M12.8818 4.21851C13.1401 4.83953 13.6565 5.73621 14.5726 5.89696C15.4886 6.0577 16.3298 5.63163 16.8023 5.89696C17.2749 6.16228 18.7164 6.6471 19.3845 6.05706C19.6215 6.32754 19.0185 7.31718 18.524 7.21002C17.1683 6.86013 17.4976 6.88014 16.1354 6.86529C17.6125 7.35915 18.7564 8.04796 19.1437 8.65026C19.5311 9.25257 20.1179 10.4404 21.4678 10.3048C21.3173 10.6728 21.0591 10.8587 20.4136 10.8064C20.6072 11.1247 21.145 11.5714 21.6614 11.5714C21.3612 11.7489 20.564 11.7489 20.564 11.7489C20.564 11.7489 21.8609 13.0401 22.0268 13.9974C22.42 15.0471 22.8299 15.2421 22.8299 15.2421C22.8299 15.2421 23.3186 13.3467 22.1133 12.1576C23.0604 11.7489 23.1895 11.5876 23.1895 11.5876L22.0062 10.9685C22.0062 10.9685 23.4645 10.1635 22.8454 9.23126C21.7479 9.48949 21.4142 9.49336 20.6763 8.93495C19.9384 8.37655 19.3594 7.52764 19.3594 7.52764C19.3594 7.52764 21.0159 6.71359 19.941 4.58325C19.1231 5.32241 18.6086 5.48251 17.4453 5.1791C16.282 4.87568 14.8411 5.32306 14.4964 5.1791C14.1516 5.03514 12.8818 4.21851 12.8818 4.21851Z" fill="#F0ABAB"/>
<path d="M8.85869 23.1968C8.64372 21.7766 9.10013 19.5972 9.75279 18.6243C9.75279 19.3667 10.2299 20.4855 10.2299 20.4855C10.2299 20.4855 11.9645 18.4365 11.7424 16.9446C12.3273 18.3338 11.2453 20.572 10.2834 21.4971C9.32156 22.4221 8.85869 23.1968 8.85869 23.1968Z" fill="white"/>
<path d="M7.99824 26.0479C7.36624 26.1124 6.5509 27.0485 6.83624 27.694C7.12157 28.3396 7.99824 29.6953 7.99824 29.6953L7.39981 27.8716C7.39981 27.8716 7.99824 27.4842 7.99824 26.9839C7.99824 26.4836 8.6296 25.9833 7.99824 26.0479Z" fill="white"/>
<path d="M14.0083 11.5374C15.4931 13.5018 16.0141 15.0414 16.1419 16.0601C16.2064 16.5869 16.2219 17.3422 16.2678 17.6514C16.5329 17.2177 16.6496 16.7094 16.6002 16.2034C16.353 13.4327 14.1084 11.6071 14.0083 11.5374Z" fill="#083751"/>
<path d="M2.98862 14.6126C2.6949 14.7488 2.77301 15.3227 2.81497 15.7372L2.87113 15.6726C2.93892 15.0845 3.03962 14.7604 3.35078 14.7249C3.35078 14.7224 3.283 14.4764 2.98862 14.6126Z" fill="#083751"/>
<path d="M6.68461 11.0878C6.33988 11.2608 5.80471 11.3183 5.48193 11.3931C5.88541 11.5513 6.47674 11.4655 6.79435 11.3002C7.21074 11.0878 7.38375 10.6004 7.40247 10.1382C7.17523 10.5223 7.0629 10.8967 6.68461 11.0878Z" fill="#082E44"/>
<path d="M22.2876 16.0781C22.3392 15.8967 22.4683 15.6262 22.4057 15.1323C22.5547 15.4146 22.6474 15.723 22.6788 16.0406C23.8814 14.5804 22.6981 12.4901 22.5296 12.3435C22.9899 12.2144 23.3043 11.8406 23.6271 11.3106C23.1752 11.3248 22.9092 11.2984 22.5064 11.155C23.3224 10.7303 23.1429 9.56955 22.9899 8.92206C22.5077 9.25646 21.7104 9.1693 21.1998 8.8575C20.5846 8.48049 20.4858 8.0073 19.7357 7.53669C19.9591 7.45093 20.1515 7.29973 20.2876 7.10287C20.4366 6.88284 20.5337 6.63187 20.5717 6.36887C20.693 5.63552 20.4768 4.74271 20.0075 4.15784C19.094 5.39473 17.2509 4.92153 17.1212 4.8899C17.2335 4.08618 16.6506 2.114 15.28 2.08947C15.4156 3.1824 14.5841 3.5168 13.812 2.94483C13.5144 2.29282 13.0955 1.68147 12.4835 1.31673C11.7798 0.896476 10.8567 0.813199 10.0542 0.839021C9.39835 0.857742 8.767 1.03656 8.25636 1.21474C8.41388 0.768655 9.00844 0.322575 9.11495 0.278677C7.56561 -0.508259 4.96853 0.446522 4.63091 2.19986C4.56635 1.34385 4.58184 0.616304 4.60573 0.524634C3.03767 1.18181 2.99829 3.25018 3.01701 3.9887L1.13715 2.19857L3.05316 6.62387C3.00345 6.76525 2.93632 6.93374 2.85949 7.11191C2.73038 7.41016 2.58513 7.73681 2.46054 8.0215C2.3559 8.2402 2.26639 8.46581 2.19263 8.69676C2.11904 9.03309 2.63549 10.2635 2.57997 10.6941C2.52241 11.1188 2.43942 11.5396 2.33143 11.9542C2.18424 12.5436 2.00155 13.133 1.84145 13.5856C1.77173 13.7831 1.70524 13.9548 1.64778 14.0885C1.00351 14.6159 0.989312 15.4809 0.981566 15.8857C0.968655 16.5597 1.99767 17.3272 2.39792 17.5712C2.46248 17.61 2.53736 17.6539 2.61935 17.7004C2.90056 17.8603 3.19339 17.9988 3.49537 18.1148C3.68909 18.193 3.89383 18.2405 4.10219 18.2555C4.73161 18.2678 6.27837 17.3408 6.48559 17.0755C6.69282 16.8101 6.88261 15.3583 7.10017 14.8431C7.4733 13.9568 7.74572 14.3267 8.93613 12.9652C9.17305 13.4222 9.70047 14.5733 9.98323 16.2291C8.51394 17.641 7.99104 19.4879 7.93875 21.1283C7.78864 21.2756 7.64806 21.4324 7.51784 21.5976C7.20455 21.9857 6.93804 22.4093 6.7238 22.8597C6.4417 23.4587 5.73287 23.8499 4.95562 24.1759C4.71483 24.2767 4.46693 24.3696 4.22356 24.4645C3.86463 24.602 3.51344 24.735 3.2068 24.877C2.18101 25.3528 1.75817 25.9474 1.58581 26.6252C1.45089 27.1578 1.74203 27.9363 1.87308 28.2462C1.79884 28.8466 1.60324 30.5792 1.7685 31.0118C1.96992 31.5385 2.01833 31.6528 2.72134 32.5069C2.97376 33.827 3.61803 35.5901 4.89623 36C6.01692 35.8231 6.71606 32.8787 6.73542 31.7283L6.64376 31.5295C6.64376 31.5295 5.33844 30.1035 5.27969 29.6245C5.22095 29.1455 5.29389 28.8014 4.92851 27.7336C5.1894 27.6147 5.46058 27.5199 5.73868 27.4502C5.77548 27.7627 5.91363 28.2823 6.37262 28.935C7.14277 30.0279 7.62113 32.084 8.13177 32.4068C8.6424 32.7296 9.61655 32.4346 9.61655 32.4346C9.61655 32.4346 12.293 34.7786 14.8139 33.4771C14.9114 32.8723 14.6971 31.9201 14.4221 31.0737C14.3362 30.8084 14.2433 30.5541 14.1529 30.323C13.9328 29.7626 13.7229 29.3462 13.6364 29.2707C13.6364 29.2707 12.8915 28.8085 11.2324 29.148C11.1226 29.0338 10.6411 28.9234 10.4577 28.8976C10.3054 28.6025 10.0162 27.7853 10.1575 27.7001C10.3086 27.609 11.1491 27.7646 11.7069 27.8873C12.3266 28.0228 13.0374 28.8111 14.3627 28.8356C15.7829 28.8627 17.8803 27.8459 18.5446 26.5761C19.2915 25.1514 19.0378 23.1011 17.9965 22.2941C18.697 23.7931 18.513 25.0558 17.9236 26.0106C17.0431 27.4276 15.3982 28.0357 14.4079 28.017C13.6574 27.9947 12.9246 27.7833 12.2775 27.4024C12.2775 27.4024 9.52488 26.7259 9.34412 27.3489C9.26343 27.6316 9.41385 28.1113 9.60235 28.5528C9.75421 28.9006 9.92667 29.2391 10.1188 29.5664C10.1188 29.5664 10.7753 29.5341 10.8341 30.0073C10.9957 29.8721 11.1793 29.7658 11.377 29.6929C11.4978 29.6482 11.6225 29.6149 11.7495 29.5935C11.9957 29.7589 12.1832 29.998 12.2853 30.2765C12.3976 30.5909 12.3866 30.9285 12.3369 31.2448C12.2795 31.6121 12.1684 31.9498 12.1387 32.1906C12.1081 32.4232 12.1708 32.6585 12.313 32.8451C11.477 32.6812 10.5565 32.3287 10.0749 31.7245C8.81735 31.8097 8.58689 32.1228 8.18341 30.8788C7.77994 29.6348 6.87809 28.3714 6.50883 27.8576C6.40127 27.6917 6.35874 27.4919 6.38941 27.2966C6.42759 27.016 6.53595 26.7495 6.70444 26.5219C6.90317 26.2385 7.17486 26.0141 7.49073 25.8725C8.37514 25.4851 11.9677 24.5626 12.4983 23.8538C13.029 23.145 12.7875 21.6331 15.3691 20.6699C14.6312 20.4304 12.4977 21.4924 11.9677 23.3716C10.9658 24.0268 8.40677 24.7712 7.71022 24.9771C7.11015 25.1501 6.57239 25.4918 6.16088 25.9616C5.97886 26.1681 5.83444 26.405 5.73416 26.6613C5.73416 26.6684 5.72835 26.6755 5.72642 26.6826C5.15704 26.8834 4.22937 27.2056 4.22098 27.651C4.21129 28.15 4.56635 28.8717 4.54376 29.9059C4.53859 30.1719 4.98919 30.7297 5.41009 31.1932C5.31713 32.1847 4.23131 32.5676 3.78974 32.8987C3.66813 32.9887 3.57147 33.1083 3.50893 33.246C3.40489 32.8973 3.33506 32.5393 3.30041 32.177C2.74459 31.4172 2.54123 31.2087 2.43859 30.8859C2.36241 30.6457 2.47345 29.3456 2.54123 28.6264C2.62387 28.6167 2.80398 28.7433 3.15968 28.9408C2.69229 28.2165 2.10096 27.3986 2.33724 26.6613C2.50637 26.1449 2.89758 25.9454 3.57413 25.5716C3.77231 25.4619 4.14738 25.3083 4.58701 25.1288C4.81876 25.0339 5.06795 24.9313 5.31907 24.8234C6.21317 24.4413 7.12663 23.9952 7.32417 23.5969C7.62371 22.9875 7.84062 22.6931 7.9962 22.4349C8.05456 22.9604 8.16861 23.4783 8.33641 23.9797C8.29574 20.3646 9.6088 18.0993 10.1272 17.3479C10.1857 18.0695 10.1857 18.7947 10.1272 19.5163C10.9748 18.7229 10.8922 14.7553 9.40997 12.2467C9.9587 11.0524 9.44031 9.85812 9.02264 9.39977C9.21114 10.248 9.36543 10.8846 9.03426 11.6767C9.07386 11.2781 9.01558 10.8759 8.86448 10.505C8.85802 10.4869 8.83155 10.4992 8.83543 10.5166C8.95873 11.044 8.88836 11.5792 8.70631 12.0859C8.64628 12.2499 8.5772 12.4126 8.50103 12.5701C7.99297 13.1937 7.18409 13.39 6.7677 14.1298C6.45461 13.9955 5.76321 13.7489 5.26613 13.949C5.12804 13.9929 4.99695 14.0564 4.87686 14.1375C4.76604 14.2088 4.67341 14.3049 4.60637 14.4183C4.76518 14.2408 5.25193 14.0956 5.63927 14.1014C5.70382 14.1059 6.03758 14.1517 6.22027 14.5817C6.2196 14.5886 6.21786 14.5953 6.21511 14.6017L6.22285 14.5862C6.31194 14.8018 6.36294 15.1136 6.32485 15.5629C6.21833 16.0064 6.11504 16.4073 5.96334 16.5913C5.67542 16.9425 4.73161 17.506 4.2242 17.6035C4.00426 17.6395 3.7786 17.6115 3.57413 17.5228C3.7535 17.3784 3.94836 17.2543 4.15513 17.1529C5.18802 16.6552 5.71738 16.3511 5.86715 16.0723C6.07115 15.694 5.67348 15.0678 5.22159 14.8063C5.40235 14.7508 5.60376 14.8134 5.75095 14.8502C5.54502 14.6185 4.95433 14.4893 4.73097 14.7056C4.18612 15.233 4.19193 16.4067 3.25522 16.7966C3.01273 16.8944 2.75902 16.9616 2.49992 16.9967L2.49475 16.9928C1.97185 16.6307 1.64907 16.1316 1.61163 15.7353C1.56967 15.3157 1.65424 14.7669 2.00671 14.4442C2.05252 14.4016 2.10248 14.3638 2.15584 14.3312C2.27139 14.0536 2.41406 13.6211 2.5606 13.1492C2.86724 12.1434 3.17453 10.9601 3.20229 10.7083C3.24296 10.3384 2.79042 9.3449 2.83238 8.88009C2.85368 8.63349 3.1274 8.13125 3.31784 7.80782C3.3824 7.70001 3.43533 7.61415 3.46761 7.55993L3.5496 7.74649L3.62577 7.92144C3.64067 7.93816 3.65663 7.9539 3.67354 7.96857C3.43727 8.54957 3.41532 9.28809 3.56057 9.87425C3.59478 9.50306 3.62513 9.13703 3.72842 8.7768C3.79297 8.54892 3.8756 8.32943 3.95759 8.10801C4.18676 8.15771 4.54698 8.1235 5.07763 7.79104C5.30147 7.66009 5.48125 7.46548 5.59408 7.23198C5.59596 7.22692 5.59811 7.22196 5.60053 7.21714L5.98787 6.77364C6.01422 6.88203 6.05436 6.98661 6.1073 7.0848C6.1073 6.86402 6.22414 6.52962 6.38101 6.22491C6.42685 6.13518 6.47656 6.04803 6.52691 5.96669C6.94846 5.29337 7.75282 5.09067 8.26411 4.84148C8.0614 5.03063 7.84708 5.2101 7.64954 5.40505C7.46351 5.58228 7.30935 5.79016 7.19377 6.01963C7.06541 6.2826 7.01224 6.57594 7.04013 6.86724V6.9021C7.04529 6.88919 7.05046 6.87564 7.05498 6.86272C7.18409 6.51716 7.37167 6.19638 7.60951 5.9144C7.77449 5.71998 7.95734 5.54145 8.15565 5.38117C8.28476 5.27401 8.47843 5.13134 8.64305 4.96737C8.61298 5.21026 8.56705 5.45092 8.50555 5.68781C8.44588 5.91134 8.34494 6.12175 8.20794 6.30819C8.12402 6.41923 8.02719 6.52897 7.93358 6.64065C7.62048 7.01443 7.34935 7.4037 7.78123 7.88529C7.62694 7.4689 8.18987 7.07059 8.42679 6.80979C8.53023 6.6977 8.62275 6.576 8.70309 6.44634C8.78599 6.31293 8.85706 6.17253 8.91547 6.02673C9.04686 6.10596 9.17049 6.19739 9.28473 6.2998C10.091 7.01637 10.5003 8.24035 9.60299 8.49018C10.0426 8.74001 11.8863 8.88332 11.6133 6.79688C12.1452 7.12547 12.7107 7.40241 13.2717 7.71873C15.5589 9.00985 14.9598 10.5082 14.7668 10.6941C15.291 10.6812 15.9095 10.2848 15.8914 9.04084C15.8914 9.04407 15.8946 9.04794 15.8959 9.05181C16.3097 10.2719 16.3136 10.9678 16.3136 10.9678C16.6402 10.6799 16.9998 10.3048 17.0469 9.59795C17.0702 9.71609 17.4046 10.8839 17.3265 12.0653C17.5563 11.9878 18.1528 11.8542 18.4956 10.9356C18.6034 11.2583 18.9416 11.9452 19.1573 12.705C19.3006 13.2092 19.4071 13.7482 19.3851 14.275C19.3477 15.1407 18.9332 15.5661 18.9003 15.6643C18.93 15.6688 19.8958 15.7469 20.4865 14.7463C21.0675 15.796 21.9764 17.406 23.3631 18.9011C23.4083 18.9502 23.4773 19.0212 23.5567 19.0999C23.6542 18.7836 23.7556 18.4686 23.8634 18.1555C23.3631 17.6978 22.7982 17.0277 22.2876 16.0781ZM12.3272 29.5664C12.5664 29.5824 12.8029 29.6257 13.0322 29.6955C13.1465 29.9679 13.3001 30.341 13.4544 30.7329C13.5512 30.9795 13.6481 31.2338 13.7352 31.4779C13.9657 32.1189 14.1329 32.6825 14.058 32.8122C13.9831 32.942 13.5557 32.9878 12.9877 32.9413C12.6468 32.4552 12.6571 32.0937 12.7294 31.4992C12.7391 31.4165 12.7507 31.3287 12.7624 31.2358C12.785 31.0078 12.7679 30.7776 12.712 30.5554C12.6253 30.211 12.496 29.8788 12.3272 29.5664ZM4.9227 32.6805C5.29648 32.3997 5.55341 31.9059 5.71157 31.5121C5.86198 31.6683 5.98916 31.7948 6.06211 31.8665C5.98722 32.8632 5.70641 34.7308 4.65737 35.2008C4.33459 35.0717 4.05184 34.6417 3.82719 34.135C3.94339 33.3919 4.27779 33.1666 4.9227 32.6805ZM5.01437 15.0568C5.0597 15.0559 5.10493 15.0615 5.14864 15.0736C5.13444 15.4693 4.65415 15.9722 4.65415 15.9722C5.0318 15.7585 5.28808 15.5771 5.43785 15.2563C5.51699 15.3405 5.575 15.4423 5.6071 15.5533C5.6392 15.6643 5.64447 15.7813 5.62248 15.8947C5.55276 16.1975 4.31394 16.7081 3.73745 16.9438C4.5657 16.4079 4.60767 15.0684 5.01437 15.0574V15.0568ZM4.86976 7.41339C4.63413 7.59479 4.31587 7.70389 4.08024 7.64191L4.06798 7.61545L3.72002 6.89436L2.23524 3.82021L3.22682 4.81824C3.17324 4.91443 3.10222 5.02159 2.99571 5.04677C3.0577 5.06095 3.12245 5.05705 3.1823 5.03554C3.24214 5.01403 3.29456 4.97581 3.33333 4.9254L3.80072 5.39795C3.70518 5.61099 3.5483 5.87308 3.30622 5.9144C3.61673 6.00349 3.8543 5.80595 3.96469 5.56451L4.55989 6.16552C4.49534 6.39792 4.36623 6.68197 4.0499 6.81108C3.97384 6.84278 3.89398 6.86448 3.81234 6.87564C4.1661 6.95956 4.41981 6.85433 4.58055 6.68197C4.66186 6.59113 4.72185 6.48328 4.75614 6.36629L4.97111 6.58255L5.17576 6.78978C5.24354 7.00475 5.09377 7.24231 4.86976 7.41403V7.41339ZM21.9771 15.4512C21.7885 15.2724 21.0733 14.4422 20.7686 14.042C20.9164 13.5804 20.8899 13.2615 20.7886 12.7915C20.6595 13.5662 20.1056 14.4558 19.8202 14.8128C19.9494 14.3299 19.899 13.8109 19.8202 13.3248C19.7242 12.7798 19.5654 12.2478 19.347 11.7393C18.8764 10.5902 18.8764 10.5902 18.4697 9.59085C18.2341 10.5456 18.0327 10.9911 17.719 11.3771C17.7358 11.0715 17.7156 10.765 17.6589 10.4643C17.6363 10.3384 17.442 9.35974 16.5247 8.0441C16.6054 8.65415 16.8474 9.37717 16.5595 10.0595C16.5402 9.54825 16.2032 8.06798 15.1806 7.4773C15.4666 7.9705 15.7184 9.51597 15.3743 9.9117C15.4079 9.05956 14.8146 8.27456 14.1677 7.75747C13.69 7.37594 11.0458 5.90084 11.0368 5.90084C11.0413 5.9073 11.5293 8.03699 10.4609 8.20549C10.6901 7.68904 10.3531 6.76847 9.81151 6.16875C9.58298 5.91504 9.31766 5.71686 9.04265 5.63358C9.04846 5.60582 9.05362 5.57806 9.05814 5.54966C9.14723 5.04741 9.11237 4.46383 8.94259 4.02162C8.47972 4.5187 7.31578 4.54001 6.68443 5.08744C6.40942 5.32178 6.1215 5.68071 6.00465 6.09128L5.80324 6.36952L5.65476 6.57416C5.64747 6.53263 5.63212 6.49294 5.60957 6.45731L5.57729 6.42633L3.87044 4.80081C3.47342 4.04551 3.36497 2.22245 4.21646 1.41099C4.17837 1.89193 4.21129 4.19592 5.08021 4.58326C4.47791 3.16303 5.11766 0.51947 8.13822 0.503331C7.58498 0.915843 7.16149 1.5911 6.97622 2.04299C6.77658 2.26118 6.59965 2.49911 6.44815 2.7531C6.66635 2.62399 7.37259 1.4239 10.0226 1.41615C10.7263 1.41615 11.4906 1.49297 12.1142 1.84803C11.0426 1.5827 9.9006 2.17081 9.01102 2.76924C9.6385 2.56783 10.55 1.96423 11.834 2.21535C12.6965 2.38384 13.0509 3.17852 13.763 3.5891C14.344 3.9235 15.169 3.89897 15.5492 3.27407C15.6435 3.11868 15.6909 2.93931 15.6854 2.75762C15.8484 2.93061 15.9907 3.1219 16.1096 3.32765C16.3739 3.78556 16.4845 4.3161 16.4253 4.84148C16.1221 4.82239 15.8177 4.83668 15.5176 4.88409C15.1948 4.92347 14.872 4.9622 14.5493 4.9254C14.0967 4.86891 13.6607 4.71898 13.2691 4.48513C13.1344 4.40498 13.005 4.31613 12.8818 4.21916C12.9555 4.32565 13.0364 4.42702 13.1239 4.52258C13.4478 4.88262 13.8698 5.1402 14.3382 5.26368C15.0954 5.46767 15.8339 5.18363 16.5905 5.31726C17.0792 5.40312 17.6389 5.62067 18.2115 5.67554C18.6531 5.7175 19.1017 5.66263 19.531 5.3773C19.705 5.25775 19.8514 5.10235 19.9603 4.92153C20.11 5.33314 20.1287 5.78095 20.0139 6.20361L19.9945 6.26817C19.9264 6.50656 19.803 6.72553 19.6343 6.90727L19.6156 6.92663C19.4523 7.08738 19.2547 7.14225 19.0688 7.25329C18.4439 6.99506 17.7448 6.90727 17.0676 6.86595C17.6757 7.05962 18.2993 7.25329 18.8751 7.5283C19.451 7.8033 19.8383 8.23841 20.2411 8.72258C20.5762 9.1267 20.9668 9.49273 21.4916 9.61732C21.8521 9.70285 22.2295 9.68449 22.58 9.56439C22.6743 10.0905 22.1862 10.9485 21.5064 11.0621C21.8355 11.2718 22.1897 11.439 22.5606 11.5598C22.3024 11.7929 21.6859 11.9659 21.2889 11.9865C22.2424 12.4862 22.7214 13.8173 22.7001 14.8986C22.5477 14.5681 22.3715 14.1885 21.9719 13.9C22.0855 14.3667 22.0648 14.9309 21.9796 15.4519L21.9771 15.4512Z" fill="#083751"/>
<path d="M6.85107 10.0703C6.80846 9.83662 6.72195 9.5784 6.55798 9.4041C6.79848 9.23338 7.07502 9.12029 7.36622 9.07357C6.64578 8.90056 6.16161 9.17298 5.61288 9.70622C5.27009 10.0393 4.8621 10.8766 4.77882 11.1219C4.68005 11.4124 4.00415 11.1749 4.00415 11.1749C4.14488 11.353 4.43732 11.5803 4.74848 11.5861C4.98153 11.5906 4.98734 11.4654 5.0945 11.2433C5.72908 10.9522 6.41531 10.9483 6.67483 10.7359C6.87301 10.5739 6.89432 10.3285 6.85107 10.0703ZM5.23717 10.9676C5.45924 10.5687 5.82721 10.0083 6.3075 9.59776C6.43662 9.71074 6.51279 9.9638 6.53861 10.1239C6.63803 10.7365 6.09253 10.5183 5.23459 10.9683L5.23717 10.9676Z" fill="#083751"/>
<path d="M2.94804 13.8256C2.32701 14.2807 2.33347 15.426 2.58975 15.8269C2.52197 15.2859 2.66593 14.1568 3.18302 14.1484C3.5213 14.1413 3.69237 14.2446 3.77113 14.3169L3.82794 14.3847C3.83514 14.3324 3.83252 14.2792 3.82019 14.2278C3.81373 13.5655 4.19784 12.9696 4.43476 12.3447C4.05002 12.7692 3.72628 13.2453 3.47288 13.7591C3.32763 13.681 3.14558 13.681 2.94804 13.8256Z" fill="#083751"/>
<path d="M33.7534 14.8621C33.3757 14.6399 33.0421 14.35 32.7694 14.007C32.4573 13.6309 32.3013 13.1092 32.3015 12.4422C32.3015 11.2377 33.0651 10.3558 34.5923 9.79635L38.5286 8.37671H39.6902C40.5937 8.37671 41.2981 8.63493 41.8036 9.15138C42.3091 9.66783 42.5618 10.3777 42.5618 11.2809V29.1878C42.2375 29.27 41.909 29.3346 41.5777 29.3815C41.1237 29.4486 40.6653 29.4809 40.2064 29.4783C39.1739 29.4783 38.4265 29.3062 37.964 28.9619C37.5016 28.6176 37.2704 27.9615 37.2703 26.9937V13.6682L33.7534 14.8621Z" fill="#111111"/>
<path d="M46.3044 9.18357C46.3044 8.36638 46.5787 7.67807 47.1271 7.11862C47.6756 6.55918 48.4016 6.27957 49.305 6.27979C50.2084 6.27979 50.9343 6.5594 51.4828 7.11862C52.0313 7.67785 52.3056 8.36617 52.3057 9.18357C52.3057 10.0013 52.0314 10.6896 51.4828 11.2485C50.9344 11.808 50.2084 12.0877 49.305 12.0877C48.4016 12.0877 47.6756 11.808 47.1271 11.2485C46.5786 10.6893 46.3044 10.001 46.3044 9.18357ZM46.5627 13.7652C46.8975 13.6815 47.2369 13.6168 47.579 13.5716C48.0547 13.5046 48.5345 13.4722 49.0148 13.4747C50.0901 13.4747 50.8645 13.6522 51.3379 14.0071C51.8113 14.3619 52.0479 15.0449 52.0477 16.0559V29.1877C51.7129 29.2714 51.3736 29.336 51.0314 29.3813C50.5558 29.4483 50.0759 29.4807 49.5956 29.4782C48.5197 29.4782 47.7454 29.3007 47.2727 28.9459C46.7999 28.591 46.5632 27.908 46.5625 26.897L46.5627 13.7652Z" fill="#111111"/>
<path d="M70.9545 29.1879C70.6197 29.2716 70.2804 29.3362 69.9382 29.3815C69.4626 29.4485 68.9827 29.4809 68.5024 29.4784C67.4264 29.4784 66.6521 29.3009 66.1794 28.946C65.7067 28.5912 65.47 27.9082 65.4693 26.8972V19.2826C65.4693 18.6161 65.2704 18.1267 64.8725 17.8145C64.4746 17.5024 63.953 17.3464 63.3076 17.3467C62.8987 17.3439 62.4915 17.3983 62.0977 17.5081C61.7252 17.6143 61.3634 17.7548 61.0168 17.9277V29.1881C60.6819 29.2717 60.3426 29.3364 60.0005 29.3817C59.5249 29.4487 59.045 29.481 58.5647 29.4786C57.4888 29.4786 56.7144 29.3011 56.2416 28.9462C55.7688 28.5914 55.5321 27.9084 55.5315 26.8974V17.1854C55.5315 16.6047 55.6552 16.1315 55.9026 15.7657C56.1772 15.3729 56.5218 15.0338 56.919 14.7655C57.6499 14.2491 58.5695 13.835 59.6776 13.5233C60.7858 13.2116 62.0172 13.0557 63.372 13.0554C65.8024 13.0554 67.6737 13.5878 68.986 14.6525C70.2982 15.7173 70.9542 17.2069 70.9541 19.1213L70.9545 29.1879Z" fill="#111111"/>
<path d="M83.1828 17.3789C82.6608 17.3763 82.1424 17.4636 81.6501 17.6371C81.1795 17.8011 80.7501 18.0653 80.3916 18.4114C80.0238 18.7745 79.733 19.2079 79.5365 19.6859C79.3213 20.1915 79.2137 20.7776 79.2137 21.4442C79.2137 22.7784 79.5902 23.7678 80.3431 24.4126C81.096 25.0574 82.0316 25.38 83.1501 25.3806C83.7293 25.3902 84.3064 25.3085 84.8602 25.1385C85.3003 24.9986 85.7313 24.8316 86.1508 24.6385C86.5591 24.9397 86.8656 25.2624 87.0703 25.6064C87.2745 25.9507 87.3767 26.3701 87.3769 26.8647C87.3769 27.7254 86.9521 28.4138 86.1024 28.9296C85.2528 29.4455 84.0428 29.7038 82.4726 29.7043C81.1174 29.7043 79.8967 29.5269 78.8105 29.172C77.7242 28.8171 76.7993 28.2901 76.0357 27.591C75.2606 26.8758 74.6592 25.9929 74.2773 25.0098C73.8685 23.9884 73.6641 22.8 73.6641 21.4445C73.6641 20.0249 73.8953 18.7881 74.3578 17.7341C74.8203 16.68 75.4494 15.8089 76.2453 15.1207C77.0526 14.4259 77.9905 13.8994 79.004 13.572C80.0716 13.2241 81.1882 13.0497 82.3111 13.0556C83.8599 13.0556 85.0537 13.3353 85.8925 13.8948C86.7314 14.4543 87.1509 15.1748 87.1509 16.0565C87.1529 16.4568 87.053 16.851 86.8604 17.2019C86.6796 17.5393 86.4514 17.849 86.1825 18.1214C85.7533 17.9253 85.3113 17.7582 84.8597 17.6213C84.3162 17.4559 83.7508 17.3742 83.1828 17.3789Z" fill="#111111"/>
<path d="M104.59 29.3813C104.115 29.4482 103.635 29.4806 103.155 29.4781C102.079 29.4781 101.304 29.3007 100.832 28.9458C100.359 28.5909 100.122 27.908 100.121 26.897V19.7341C100.121 18.8523 99.901 18.2339 99.4601 17.8788C99.0191 17.5237 98.476 17.3463 97.8306 17.3465C97.4323 17.3422 97.0354 17.3966 96.6529 17.5079C96.3103 17.6105 95.9802 17.7513 95.6689 17.9275V29.1879C95.334 29.2715 94.9947 29.3362 94.6525 29.3815C94.1769 29.4485 93.6971 29.4808 93.2168 29.4784C92.1409 29.4784 91.3665 29.3009 90.8937 28.946C90.4209 28.5912 90.1842 27.9082 90.1836 26.8972V8.18321C90.5184 8.09949 90.8578 8.03483 91.2 7.98954C91.6756 7.92261 92.1554 7.89025 92.6357 7.89271C93.7111 7.89271 94.4854 8.07015 94.9588 8.42503C95.4323 8.77992 95.6689 9.46288 95.6686 10.4739V13.6681C96.14 13.4838 96.6256 13.3381 97.1206 13.2326C97.6932 13.1108 98.2774 13.0512 98.8628 13.055C100.992 13.055 102.649 13.5874 103.832 14.6522C105.015 15.7169 105.606 17.3033 105.606 19.4113V29.1875C105.272 29.2712 104.932 29.3359 104.59 29.3813Z" fill="#111111"/>
</g>
<defs>
<clipPath id="clip0">
<rect width="104.668" height="36" fill="white" transform="translate(0.939209)"/>
</clipPath>
</defs>
</svg>
