<svg width="152" height="152" viewBox="0 0 152 152" fill="none" xmlns="http://www.w3.org/2000/svg">
<g filter="url(#filter0_d_0_1)">
<circle cx="76" cy="68" r="60" fill="url(#paint0_linear_0_1)"/>
<circle cx="76" cy="68" r="56" stroke="white" stroke-width="8"/>
</g>
<g clip-path="url(#clip0_0_1)">
<path d="M90.625 59H63.355C63.0293 59.0631 62.6937 59.0533 62.3722 58.9714C62.0507 58.8895 61.7513 58.7376 61.4954 58.5264C61.2395 58.3153 61.0335 58.0502 60.8921 57.7501C60.7507 57.4499 60.6774 57.1223 60.6775 56.7905V56.7478L89.5 55.625V52.9475C89.547 52.548 89.5026 52.1431 89.3701 51.7633C89.2377 51.3835 89.0207 51.0387 88.7355 50.7551C88.4503 50.4714 88.1044 50.2562 87.7239 50.1258C87.3434 49.9954 86.9382 49.9532 86.539 50.0023L60.9475 54.1625C60.0838 54.4814 59.3384 55.057 58.8115 55.8119C58.2846 56.5669 58.0014 57.4651 58 58.3858V82.6228C58 83.5179 58.3556 84.3763 58.9885 85.0093C59.6214 85.6422 60.4799 85.9978 61.375 85.9978H90.625C91.5201 85.9978 92.3786 85.6422 93.0115 85.0093C93.6444 84.3763 94 83.5179 94 82.6228V62.3503L94.0023 62.258C94.0023 61.3928 93.6585 60.5629 93.0467 59.9511C92.4348 59.3393 91.605 58.9955 90.7397 58.9955L90.6205 58.9978L90.625 59ZM87.25 74.75C86.3546 74.7497 85.496 74.3938 84.863 73.7604C84.2301 73.127 83.8747 72.2682 83.875 71.3728C83.8753 70.4774 84.2313 69.6188 84.8646 68.9858C85.498 68.3529 86.3568 67.9975 87.2523 67.9978C87.6956 67.9979 88.1346 68.0854 88.5442 68.2552C88.9537 68.425 89.3258 68.6738 89.6392 68.9874C89.9526 69.301 90.2012 69.6733 90.3707 70.083C90.5402 70.4926 90.6274 70.9317 90.6273 71.375C90.6271 71.8184 90.5396 72.2574 90.3698 72.6669C90.2 73.0765 89.9512 73.4486 89.6376 73.762C89.324 74.0754 88.9517 74.3239 88.5421 74.4935C88.1324 74.663 87.6934 74.7502 87.25 74.75Z" fill="white"/>
</g>
<defs>
<filter id="filter0_d_0_1" x="0" y="0" width="152" height="152" filterUnits="userSpaceOnUse" color-interpolation-filters="sRGB">
<feFlood flood-opacity="0" result="BackgroundImageFix"/>
<feColorMatrix in="SourceAlpha" type="matrix" values="0 0 0 0 0 0 0 0 0 0 0 0 0 0 0 0 0 0 127 0" result="hardAlpha"/>
<feOffset dy="8"/>
<feGaussianBlur stdDeviation="8"/>
<feComposite in2="hardAlpha" operator="out"/>
<feColorMatrix type="matrix" values="0 0 0 0 0 0 0 0 0 0 0 0 0 0 0 0 0 0 0.1 0"/>
<feBlend mode="normal" in2="BackgroundImageFix" result="effect1_dropShadow_0_1"/>
<feBlend mode="normal" in="SourceGraphic" in2="effect1_dropShadow_0_1" result="shape"/>
</filter>
<linearGradient id="paint0_linear_0_1" x1="76" y1="8" x2="76" y2="128" gradientUnits="userSpaceOnUse">
<stop stop-color="#0AA7F5"/>
<stop offset="1" stop-color="#3CE7FF"/>
</linearGradient>
<clipPath id="clip0_0_1">
<rect width="36" height="36" fill="white" transform="translate(58 50)"/>
</clipPath>
</defs>
</svg>
