<?xml version="1.0" standalone="no"?>
<svg xmlns:xlink="http://www.w3.org/1999/xlink" id="wave" style="transform:rotate(0deg); transition: 0.3s" viewBox="0 0 1440 190" version="1.1" xmlns="http://www.w3.org/2000/svg"><defs><linearGradient id="sw-gradient-0" x1="0" x2="0" y1="1" y2="0"><stop stop-color="rgba(255, 255, 255, 1)" offset="0%"/><stop stop-color="rgba(255, 255, 255, 1)" offset="100%"/></linearGradient></defs><path style="transform:translate(0, 0px); opacity:1" fill="url(#sw-gradient-0)" d="M0,171L60,164.7C120,158,240,146,360,139.3C480,133,600,133,720,114C840,95,960,57,1080,47.5C1200,38,1320,57,1440,79.2C1560,101,1680,127,1800,114C1920,101,2040,51,2160,25.3C2280,0,2400,0,2520,6.3C2640,13,2760,25,2880,41.2C3000,57,3120,76,3240,82.3C3360,89,3480,82,3600,95C3720,108,3840,139,3960,133C4080,127,4200,82,4320,79.2C4440,76,4560,114,4680,117.2C4800,120,4920,89,5040,82.3C5160,76,5280,95,5400,95C5520,95,5640,76,5760,63.3C5880,51,6000,44,6120,60.2C6240,76,6360,114,6480,133C6600,152,6720,152,6840,126.7C6960,101,7080,51,7200,53.8C7320,57,7440,114,7560,114C7680,114,7800,57,7920,44.3C8040,32,8160,63,8280,63.3C8400,63,8520,32,8580,15.8L8640,0L8640,190L8580,190C8520,190,8400,190,8280,190C8160,190,8040,190,7920,190C7800,190,7680,190,7560,190C7440,190,7320,190,7200,190C7080,190,6960,190,6840,190C6720,190,6600,190,6480,190C6360,190,6240,190,6120,190C6000,190,5880,190,5760,190C5640,190,5520,190,5400,190C5280,190,5160,190,5040,190C4920,190,4800,190,4680,190C4560,190,4440,190,4320,190C4200,190,4080,190,3960,190C3840,190,3720,190,3600,190C3480,190,3360,190,3240,190C3120,190,3000,190,2880,190C2760,190,2640,190,2520,190C2400,190,2280,190,2160,190C2040,190,1920,190,1800,190C1680,190,1560,190,1440,190C1320,190,1200,190,1080,190C960,190,840,190,720,190C600,190,480,190,360,190C240,190,120,190,60,190L0,190Z"/></svg>