<svg width="120" height="120" viewBox="0 0 120 120" fill="none" xmlns="http://www.w3.org/2000/svg">
<circle cx="60" cy="60" r="56" fill="url(#paint0_linear_713_7)" stroke="white" stroke-width="8"/>
<path d="M52 60.104C55.99 60.104 59 57.094 59 53.104C59 49.114 55.99 46.104 52 46.104C48.01 46.104 45 49.114 45 53.104C45 57.094 48.01 60.104 52 60.104ZM54 62H50C44.486 62 40 66.486 40 72V74H64V72C64 66.486 59.514 62 54 62ZM76.588 52.584L67.988 61.168L65.404 58.584L62.576 61.412L67.988 66.82L79.412 55.416L76.588 52.584Z" fill="white"/>
<defs>
<linearGradient id="paint0_linear_713_7" x1="60" y1="0" x2="60" y2="120" gradientUnits="userSpaceOnUse">
<stop stop-color="#0AA7F5"/>
<stop offset="1" stop-color="#3CE7FF"/>
</linearGradient>
</defs>
</svg>
