<svg width="120" height="120" viewBox="0 0 120 120" fill="none" xmlns="http://www.w3.org/2000/svg">
<circle cx="60" cy="60" r="56" fill="url(#paint0_linear_713_9)" stroke="white" stroke-width="8"/>
<path fill-rule="evenodd" clip-rule="evenodd" d="M60 43.5C50.8875 43.5 43.5 50.8875 43.5 60C43.5 69.1125 50.8875 76.5 60 76.5C69.1125 76.5 76.5 69.1125 76.5 60C76.5 50.8875 69.1125 43.5 60 43.5ZM67.152 57.21C67.2837 57.0595 67.384 56.8841 67.4469 56.6943C67.5098 56.5044 67.5341 56.3039 67.5184 56.1045C67.5027 55.9051 67.4473 55.7108 67.3554 55.5332C67.2635 55.3555 67.137 55.1981 66.9833 55.07C66.8297 54.942 66.652 54.8459 66.4606 54.7876C66.2693 54.7292 66.0683 54.7097 65.8693 54.7302C65.6704 54.7507 65.4775 54.8108 65.3021 54.9069C65.1267 55.0031 64.9723 55.1333 64.848 55.29L58.398 63.0285L55.0605 59.6895C54.7776 59.4163 54.3987 59.2651 54.0054 59.2685C53.6121 59.2719 53.2359 59.4297 52.9578 59.7078C52.6797 59.9859 52.5219 60.3621 52.5185 60.7554C52.5151 61.1487 52.6663 61.5276 52.9395 61.8105L57.4395 66.3105C57.5869 66.4578 57.7633 66.5728 57.9576 66.6481C58.1519 66.7234 58.3597 66.7574 58.5679 66.748C58.7761 66.7385 58.98 66.6858 59.1666 66.5932C59.3533 66.5005 59.5186 66.3701 59.652 66.21L67.152 57.21Z" fill="white"/>
<defs>
<linearGradient id="paint0_linear_713_9" x1="60" y1="0" x2="60" y2="120" gradientUnits="userSpaceOnUse">
<stop stop-color="#0AA7F5"/>
<stop offset="1" stop-color="#3CE7FF"/>
</linearGradient>
</defs>
</svg>
