<svg width="36" height="36" viewBox="0 0 36 36" fill="none" xmlns="http://www.w3.org/2000/svg">
<path d="M18 0C8.05982 0 0 8.05982 0 18C0 27.9402 8.05982 36 18 36C27.9402 36 36 27.9402 36 18C36 8.05982 27.9402 0 18 0ZM28.2857 10.1933L26.6464 11.7643C26.5018 11.8728 26.4335 12.0496 26.4616 12.2223V23.7817C26.4335 23.9585 26.5018 24.1353 26.6464 24.2397L28.2536 25.8107V26.1603H20.1857V25.8268L21.8451 24.2156C22.0098 24.0509 22.0098 24.0027 22.0098 23.7576V14.404L17.3893 26.1201H16.7665L11.3906 14.404V22.2589C11.3424 22.5884 11.4589 22.9219 11.692 23.1589L13.8536 25.7746V26.1241H7.71429V25.7746L9.87589 23.1589C9.98978 23.0413 10.0745 22.8986 10.1234 22.7423C10.1722 22.586 10.1838 22.4205 10.1571 22.2589V13.1786C10.1853 12.9254 10.0888 12.6804 9.89598 12.5076L7.97545 10.1933V9.84375H13.942L18.5464 19.9487L22.6004 9.85179H28.2857V10.1933Z" fill="white"/>
</svg>
