<svg width="36" height="36" viewBox="0 0 36 36" fill="none" xmlns="http://www.w3.org/2000/svg">
<g clip-path="url(#clip0_103_408)">
<path d="M17.916 4.90001e-05C13.1567 0.0222594 8.59985 1.92848 5.24234 5.30173C1.88484 8.67498 -5.18236e-05 13.2407 1.06865e-09 18C1.06866e-09 22.7739 1.89642 27.3523 5.27208 30.728C8.64773 34.1036 13.2261 36 18 36C22.7739 36 27.3523 34.1036 30.7279 30.728C34.1036 27.3523 36 22.7739 36 18C36 13.2262 34.1036 8.64778 30.7279 5.27213C27.3523 1.89647 22.7739 4.90001e-05 18 4.90001e-05C17.972 -1.63334e-05 17.944 -1.63334e-05 17.916 4.90001e-05ZM25.359 10.836C25.509 10.833 25.8405 10.8705 26.0565 11.046C26.2 11.1707 26.2916 11.3447 26.313 11.5335C26.337 11.673 26.367 11.9925 26.343 12.2415C26.073 15.0885 24.9 21.9945 24.303 25.182C24.051 26.532 23.5545 26.9835 23.073 27.027C22.029 27.1245 21.2355 26.337 20.223 25.674C18.639 24.6345 17.7435 23.988 16.206 22.974C14.4285 21.804 15.5805 21.159 16.593 20.109C16.8585 19.833 21.4635 15.6435 21.5535 15.264C21.564 15.216 21.5745 15.039 21.4695 14.946C21.3645 14.853 21.2085 14.8845 21.096 14.91C20.937 14.946 18.4065 16.62 13.5045 19.9275C12.7845 20.4225 12.135 20.6625 11.5515 20.6475C10.9095 20.6355 9.6735 20.286 8.754 19.9875C7.626 19.62 6.7305 19.4265 6.8085 18.804C6.849 18.48 7.296 18.1485 8.148 17.8095C13.395 15.5235 16.893 14.016 18.645 13.2885C23.643 11.2095 24.6825 10.848 25.359 10.836Z" fill="white"/>
</g>
<defs>
<clipPath id="clip0_103_408">
<rect width="36" height="36" fill="white"/>
</clipPath>
</defs>
</svg>
