<svg width="24" height="25" viewBox="0 0 24 25" fill="none" xmlns="http://www.w3.org/2000/svg">
<g opacity="0.3">
<path d="M17.001 20.5103H6.00098C5.47054 20.5103 4.96184 20.2995 4.58676 19.9245C4.21169 19.5494 4.00098 19.0407 4.00098 18.5103V7.51025C4.00098 6.97982 4.21169 6.47111 4.58676 6.09604C4.96184 5.72097 5.47054 5.51025 6.00098 5.51025H10.001V7.51025H6.00098V18.5103H17.001V14.5103H19.001V18.5103C19.001 19.0407 18.7903 19.5494 18.4152 19.9245C18.0401 20.2995 17.5314 20.5103 17.001 20.5103ZM11.701 14.2173L10.291 12.8033L16.584 6.51025H13.001V4.51025H20.001V11.5103H18.001V7.92525L11.701 14.2173Z" fill="black"/>
</g>
</svg>
