<svg width="152" height="152" viewBox="0 0 152 152" fill="none" xmlns="http://www.w3.org/2000/svg">
<g filter="url(#filter0_d_0_1)">
<circle cx="76" cy="68" r="60" fill="url(#paint0_linear_0_1)"/>
<circle cx="76" cy="68" r="56" stroke="white" stroke-width="8"/>
</g>
<path d="M68 68.104C71.99 68.104 75 65.094 75 61.104C75 57.114 71.99 54.104 68 54.104C64.01 54.104 61 57.114 61 61.104C61 65.094 64.01 68.104 68 68.104ZM70 70H66C60.486 70 56 74.486 56 80V82H80V80C80 74.486 75.514 70 70 70ZM92.588 60.584L83.988 69.168L81.404 66.584L78.576 69.412L83.988 74.82L95.412 63.416L92.588 60.584Z" fill="white"/>
<defs>
<filter id="filter0_d_0_1" x="0" y="0" width="152" height="152" filterUnits="userSpaceOnUse" color-interpolation-filters="sRGB">
<feFlood flood-opacity="0" result="BackgroundImageFix"/>
<feColorMatrix in="SourceAlpha" type="matrix" values="0 0 0 0 0 0 0 0 0 0 0 0 0 0 0 0 0 0 127 0" result="hardAlpha"/>
<feOffset dy="8"/>
<feGaussianBlur stdDeviation="8"/>
<feComposite in2="hardAlpha" operator="out"/>
<feColorMatrix type="matrix" values="0 0 0 0 0 0 0 0 0 0 0 0 0 0 0 0 0 0 0.1 0"/>
<feBlend mode="normal" in2="BackgroundImageFix" result="effect1_dropShadow_0_1"/>
<feBlend mode="normal" in="SourceGraphic" in2="effect1_dropShadow_0_1" result="shape"/>
</filter>
<linearGradient id="paint0_linear_0_1" x1="76" y1="8" x2="76" y2="128" gradientUnits="userSpaceOnUse">
<stop stop-color="#0AA7F5"/>
<stop offset="1" stop-color="#3CE7FF"/>
</linearGradient>
</defs>
</svg>
