<svg width="100" height="100" viewBox="0 0 100 100" fill="none" xmlns="http://www.w3.org/2000/svg">
<path d="M8 90.4901H20.2998C35.6176 90.4901 45.5253 86.9051 44.7431 72.565C43.7653 54.64 38.8767 55.2918 34.6399 54.9659C31.2504 54.7052 29.3167 55.7264 28.7735 56.2695C29.5339 55.2918 32.2933 53.206 37.2471 52.6845C43.4394 52.0327 46.3726 56.5954 51.9131 56.2695C57.2789 55.9539 58.1054 53.0104 58.4313 50.0773C58.7572 47.1441 58.1054 44.2109 56.1499 41.2777C54.1945 38.3445 57.4536 42.5813 59.0831 42.9072C60.7127 43.2332 62.6681 40.6259 62.6681 38.3445C62.6681 36.0631 63.0453 42.5595 62.3422 45.8404C61.3645 50.4032 58.1054 58.225 60.7127 60.8323C60.8645 60.9842 61.0242 61.1208 61.1904 61.2435M61.1904 61.2435C63.3066 62.8049 66.4725 62.0885 67.8827 61.4841C67.2308 63.4396 67.0821 66.3846 71.7936 66.6987C76.6822 67.0246 77.0082 63.2223 76.6822 61.81C78.5291 62.5705 81.913 63.4071 82.8745 61.4841C83.5263 60.1805 83.5263 58.225 83.5263 57.8991C84.83 58.4423 86.7777 58.9001 87.4373 56.9214C88.0891 54.9659 86.7854 53.6623 86.4595 53.3364C87.8718 53.0104 90.3704 51.772 89.0668 49.4254C87.7632 47.0789 86.3509 47.1441 85.8077 47.47C85.8077 46.3836 85.3514 44.1457 83.5263 43.885C81.7012 43.6242 80.5932 44.4281 80.2672 44.8627C79.0722 43.4504 76.6822 41.6036 74.4009 42.9072C72.1599 44.1878 72.554 45.8404 72.7713 46.1663C72.2281 45.7318 70.881 45.0582 69.8381 45.8404C68.7952 46.6226 69.4036 47.6872 69.8381 48.1218C68.5345 48.1218 65.9924 48.5129 66.2531 50.0773C66.5139 51.6416 68.7518 52.0327 69.8381 52.0327C69.1863 52.25 67.8827 53.2712 67.8827 55.6177C67.8827 58.5509 75.0527 57.2473 76.6822 54.3141C78.3118 51.3809 78.3118 58.225 71.1418 58.8768C67.5862 59.2001 64.0306 59.7637 61.1904 61.2435ZM61.1904 61.2435C58.3032 62.7477 56.1553 65.1986 55.4981 69.3059C54.1945 77.4537 59.0831 90.4901 75.3786 90.4901H92M51.2613 56.2695C48.1108 55.4004 41.9402 52.0979 42.4617 45.8404C42.9832 39.5829 46.1553 32.3695 47.6763 29.5449C46.5899 30.1967 45.069 31.1745 43.4394 34.1077C42.0871 36.5418 42.7876 40.2999 40.5062 38.3445C38.2249 36.389 35.9435 34.7595 37.899 37.3668C39.8544 39.974 41.484 42.9072 39.5285 44.8627C37.7734 46.6178 33.988 45.5145 33.3362 43.2331C32.8922 41.6789 33.0642 40.9178 33.2603 40.6886M33.2603 40.6886C33.2857 40.659 33.3114 40.6383 33.3362 40.6259C33.3114 40.6465 33.2861 40.6675 33.2603 40.6886ZM33.2603 40.6886C31.9317 41.7788 29.3552 43.4641 29.0994 41.9295C28.8387 40.3651 29.208 39.1049 29.4253 38.6704C27.9044 39.7568 25.0992 40.8922 23.233 39.6481C21.2776 38.3445 22.2553 35.8458 22.5812 35.0854C21.1689 34.7595 18.4096 33.2603 18.6703 29.8708C18.931 26.4814 22.9071 25.1995 24.8626 24.9822C23.8848 23.3526 21.6035 20.3543 24.2108 17.4863C26.818 14.6182 30.6203 15.9653 31.7067 17.4863C32.6844 16.2913 34.7702 12.7932 37.899 12.2717C41.0277 11.7503 43.3308 12.8149 43.7653 12.9235C43.9826 12.2717 45.1342 10.7725 46.6985 11.294C48.2629 11.8154 48.7626 13.7926 48.9799 14.5531C49.7404 12.5976 52.1086 8.75189 55.4981 9.01261C58.8876 9.27334 60.1695 12.1631 60.3867 13.5753C61.2558 13.3581 63.0592 13.3798 63.3199 15.2049C63.5807 17.03 63.8631 18.7899 63.9718 19.4417C64.8408 18.0295 67.1005 15.3353 69.1863 15.8567C71.2721 16.3782 71.1418 18.8985 70.8159 20.0935C72.0109 19.659 74.4661 19.2462 74.7268 21.0713C74.9875 22.8964 74.1836 24.6563 73.749 25.3081C75.9218 25.5254 80.2672 26.9377 80.2672 30.8486C80.2672 34.7595 77.8772 35.3027 76.6822 35.0854C77.8772 36.2804 78.6377 37.6927 76.6822 39.3222C74.5911 41.0649 72.2281 39.974 71.4677 39.6481C69.5122 41.3863 65.6013 42.2554 62.6681 38.0186M39.2026 55.9436C39.3112 57.03 39.1374 59.3983 37.5731 60.1805C36.0087 60.9627 34.7485 61.1582 34.314 61.1582C34.8571 61.9187 35.2127 63.1769 33.6621 64.4173C32.0326 65.7209 30.9462 64.9605 30.7289 64.7432C30.7289 65.9382 30.0771 68.3282 27.4698 68.3282C24.8626 68.3282 23.1244 65.9382 22.5812 64.7432C19.8653 66.2641 15.4112 68.0023 14.1075 62.7877C12.8412 57.7226 16.6062 56.2696 18.0185 56.2696C17.258 55.9436 15.6067 54.4444 16.3889 52.3586C17.1711 50.2728 18.7789 50.2945 19.3221 50.4032C19.1048 49.3168 19.3221 46.4922 21.9294 46.4922C24.4154 46.4922 25.1236 47.875 25.1841 48.3803M25.1841 48.3803C25.1871 48.4049 25.1885 48.4275 25.1885 48.4477C25.1869 48.4255 25.1854 48.4031 25.1841 48.3803ZM25.1841 48.3803C25.0949 46.8426 25.6214 44.0229 28.4476 44.5368C31.3156 45.0582 31.3808 46.9268 31.0549 47.7959C33.4449 47.47 35.9435 48.4477 35.6176 50.0773C35.0019 53.1559 37.4644 52.4673 39.5285 52.6845" stroke="url(#paint0_angular_807_132)" stroke-width="2" stroke-linecap="round" stroke-linejoin="round"/>
<defs>
<radialGradient id="paint0_angular_807_132" cx="0" cy="0" r="1" gradientUnits="userSpaceOnUse" gradientTransform="translate(50 49.745) rotate(90) scale(40.745 42)">
<stop stop-color="#1039A5"/>
<stop offset="0.286458" stop-color="#2FA3FF"/>
<stop offset="0.526042" stop-color="#00EFFF"/>
<stop offset="0.744792" stop-color="#2592FF"/>
<stop offset="1" stop-color="#163992"/>
</radialGradient>
</defs>
</svg>
