<svg width="100" height="100" viewBox="0 0 100 100" fill="none" xmlns="http://www.w3.org/2000/svg">
<path d="M90.6187 36.0897C90.7494 36.0608 90.872 36.037 90.9872 36.018C90.4391 58.1844 72.2983 75.9851 50 75.9851C27.5519 75.9851 9.31738 57.9445 9.0041 35.5708C9.6975 35.2689 10.6985 35.1225 12.0334 35.119C13.5148 35.115 15.2262 35.2818 17.0871 35.4633C17.2576 35.4799 17.4293 35.4966 17.6022 35.5134C19.6352 35.7102 21.8102 35.9044 23.8926 35.8618C25.9714 35.8193 28.0341 35.541 29.8261 34.7446C31.4172 34.0374 33.1496 32.7888 34.9699 31.4769C35.4478 31.1326 35.9316 30.7839 36.4206 30.4394C38.8363 28.7377 41.5092 27.0305 44.5961 25.9928C47.6635 24.9617 51.158 24.586 55.2281 25.5855C59.3122 26.5885 64.0334 28.9906 69.5157 33.6094C74.9579 38.1944 79.7751 38.6703 83.7286 38.0048C85.4772 37.7104 87.0478 37.1937 88.3592 36.7622C88.4976 36.7166 88.6332 36.672 88.7657 36.6288C89.4732 36.3977 90.0807 36.2086 90.6187 36.0897Z" stroke="url(#paint0_angular_807_123)" stroke-width="2" stroke-miterlimit="4.13357" stroke-linejoin="round"/>
<path d="M43.7 38.3339C41.012 40.3499 38.94 40.0139 38.24 39.5939C44.12 38.3339 46.22 29.0939 51.68 29.9339C56.048 30.6059 55.46 38.3339 54.62 42.1139C57 43.3739 61.676 48.4139 61.34 58.4939C61.004 68.5739 53.36 70.34 49.58 70.2C50 69.64 52.0448 67.4807 52.52 65.58C53.36 62.22 52.94 57.6539 51.68 58.4939C50.672 59.1659 47.9 64.6861 47.06 68.1C45.24 66.98 41.096 63.1139 40.76 56.3939C40.424 49.6739 47.34 44.0739 50.84 42.1139C51.68 40.8 52.52 37.3861 51.68 34.92C50.5967 31.7394 47.06 35.8139 43.7 38.3339Z" stroke="url(#paint1_angular_807_123)" stroke-width="2" stroke-linejoin="round"/>
<defs>
<radialGradient id="paint0_angular_807_123" cx="0" cy="0" r="1" gradientUnits="userSpaceOnUse" gradientTransform="translate(50 50.4926) rotate(90) scale(26.4926 42)">
<stop stop-color="#1039A5"/>
<stop offset="0.286458" stop-color="#2FA3FF"/>
<stop offset="0.526042" stop-color="#00EFFF"/>
<stop offset="0.744792" stop-color="#2592FF"/>
<stop offset="1" stop-color="#163992"/>
</radialGradient>
<radialGradient id="paint1_angular_807_123" cx="0" cy="0" r="1" gradientUnits="userSpaceOnUse" gradientTransform="translate(49.7986 50.0437) rotate(90) scale(20.1637 11.5586)">
<stop stop-color="#1039A5"/>
<stop offset="0.286458" stop-color="#2FA3FF"/>
<stop offset="0.526042" stop-color="#00EFFF"/>
<stop offset="0.744792" stop-color="#2592FF"/>
<stop offset="1" stop-color="#163992"/>
</radialGradient>
</defs>
</svg>
