<svg width="100" height="100" viewBox="0 0 100 100" fill="none" xmlns="http://www.w3.org/2000/svg">
<path d="M77.3 30.7625H77.6333L77.8279 30.6166C77.8544 30.6132 77.8982 30.6099 77.9634 30.6113C78.1459 30.6153 78.4019 30.6573 78.6913 30.7587C79.275 30.9633 79.8655 31.362 80.2225 31.957C81.4167 33.9473 81.7991 35.0971 82.1994 37.0986C82.3162 37.6826 82.704 38.051 83.099 38.2621C83.4613 38.4557 83.8811 38.549 84.252 38.6069C84.6358 38.6667 85.0668 38.7021 85.4901 38.7344C85.5477 38.7388 85.6054 38.7431 85.6632 38.7475C86.0427 38.7762 86.4267 38.8052 86.8212 38.8483C88.6039 39.0432 90.1673 39.4895 90.9993 40.9319C90.8651 63.4608 72.5605 81.6825 50 81.6825C27.4486 81.6825 9.14974 63.4755 9.00091 40.9592C9.40993 40.339 10.051 39.8222 10.9063 39.3482C11.8065 38.8494 12.8513 38.4459 13.9756 38.0118C14.0461 37.9846 14.117 37.9572 14.1881 37.9297C15.3581 37.4773 16.6112 36.9826 17.6792 36.3245C18.7585 35.6596 19.7335 34.7781 20.2631 33.5071C21.3185 30.974 22.0848 29.7133 22.7285 29.15C23.0136 28.9006 23.2396 28.821 23.4441 28.803C23.6732 28.7828 23.9793 28.8312 24.4286 29.0109C24.9409 29.2159 25.4835 29.4297 25.9893 29.5483C26.495 29.6668 27.1073 29.7269 27.7046 29.478C28.3303 29.2173 28.7469 28.7012 29.0234 28.0705C29.2926 27.4563 29.4644 26.6581 29.5739 25.6729C29.9313 22.4562 32.3483 21.1843 34.2956 21.5089C35.3808 21.6897 36.2361 21.1175 36.8141 20.6509C37.033 20.4742 37.259 20.272 37.464 20.0887C37.5351 20.0251 37.6037 19.9638 37.6685 19.9066C37.9393 19.6678 38.1803 19.4681 38.4188 19.3126C38.8697 19.0185 39.232 18.9284 39.6648 19.0585C40.1775 19.2128 40.9639 19.7278 42.0737 21.1403C42.9058 22.1994 43.5547 23.06 44.0852 23.7635C44.2874 24.0316 44.4724 24.277 44.6438 24.5018C45.2293 25.2699 45.7195 25.8899 46.1878 26.2501C46.4471 26.4495 46.7611 26.6206 47.1411 26.6729C47.5247 26.7257 47.8645 26.6421 48.1456 26.5254C48.412 26.4148 48.6701 26.2552 48.9044 26.1013C49.0198 26.0254 49.1662 25.9258 49.3194 25.8216C49.4514 25.7319 49.5883 25.6388 49.7147 25.5545C50.1148 25.2878 50.5579 24.9639 50.9978 24.6423C51.2606 24.4503 51.5222 24.259 51.7728 24.0813C52.4804 23.5796 53.1832 23.1225 53.8879 22.7936C54.5911 22.4655 55.2511 22.2868 55.8773 22.2967C56.4847 22.3064 57.1218 22.4938 57.8 23.0025C59.1675 24.0281 60.4691 25.5067 61.6388 26.8356C61.8183 27.0394 61.9946 27.2397 62.1676 27.4343C62.7838 28.1276 63.4014 28.7982 63.9425 29.204C64.2009 29.3978 64.5684 29.6313 64.9986 29.6882C65.2368 29.7198 65.5094 29.699 65.7781 29.5746C66.0452 29.4511 66.2382 29.2579 66.372 29.0572C66.7523 28.4868 67.8908 27.0838 69.2831 26.4101C69.9553 26.0849 70.6245 25.9589 71.2805 26.1103C71.932 26.2607 72.717 26.7184 73.56 27.8425C73.833 28.2065 74.0164 28.5259 74.1763 28.8212C74.1989 28.863 74.2225 28.9071 74.247 28.953C74.3773 29.1974 74.5339 29.4911 74.715 29.7325C74.9677 30.0694 75.2973 30.3571 75.7759 30.5394C76.2162 30.7072 76.7236 30.7625 77.3 30.7625Z" stroke="url(#paint0_angular_807_118)" stroke-width="2"/>
<path d="M27.32 51.18C27.32 51.8759 26.7559 52.44 26.06 52.44C25.3641 52.44 24.8 51.8759 24.8 51.18C24.8 50.4841 25.3641 49.92 26.06 49.92C26.7559 49.92 27.32 50.4841 27.32 51.18Z" stroke="url(#paint1_angular_807_118)" stroke-width="1.2"/>
<path d="M33.2 60.42C33.2 61.1159 32.6359 61.68 31.94 61.68C31.2441 61.68 30.68 61.1159 30.68 60.42C30.68 59.7241 31.2441 59.16 31.94 59.16C32.6359 59.16 33.2 59.7241 33.2 60.42Z" stroke="url(#paint2_angular_807_118)" stroke-width="1.2"/>
<path d="M41.6 57.06C41.6 57.7559 41.0359 58.32 40.34 58.32C39.6441 58.32 39.08 57.7559 39.08 57.06C39.08 56.3641 39.6441 55.8 40.34 55.8C41.0359 55.8 41.6 56.3641 41.6 57.06Z" stroke="url(#paint3_angular_807_118)" stroke-width="1.2"/>
<path d="M51.68 66.3C51.68 66.9959 51.1159 67.56 50.42 67.56C49.7241 67.56 49.16 66.9959 49.16 66.3C49.16 65.6041 49.7241 65.04 50.42 65.04C51.1159 65.04 51.68 65.6041 51.68 66.3Z" stroke="url(#paint4_angular_807_118)" stroke-width="1.2"/>
<path d="M64.28 57.06C64.28 57.7559 63.7159 58.32 63.02 58.32C62.3241 58.32 61.76 57.7559 61.76 57.06C61.76 56.3641 62.3241 55.8 63.02 55.8C63.7159 55.8 64.28 56.3641 64.28 57.06Z" stroke="url(#paint5_angular_807_118)" stroke-width="1.2"/>
<path d="M27.32 65.46C27.32 66.1559 26.7559 66.72 26.06 66.72C25.3641 66.72 24.8 66.1559 24.8 65.46C24.8 64.7641 25.3641 64.2 26.06 64.2C26.7559 64.2 27.32 64.7641 27.32 65.46Z" stroke="url(#paint6_angular_807_118)" stroke-width="1.2"/>
<path d="M55.04 76.38C55.04 77.0759 54.4759 77.64 53.78 77.64C53.0841 77.64 52.52 77.0759 52.52 76.38C52.52 75.6841 53.0841 75.12 53.78 75.12C54.4759 75.12 55.04 75.6841 55.04 76.38Z" stroke="url(#paint7_angular_807_118)" stroke-width="1.2"/>
<path d="M64.28 48.66C64.28 49.3559 63.7159 49.92 63.02 49.92C62.3241 49.92 61.76 49.3559 61.76 48.66C61.76 47.9641 62.3241 47.4 63.02 47.4C63.7159 47.4 64.28 47.9641 64.28 48.66Z" stroke="url(#paint8_angular_807_118)" stroke-width="1.2"/>
<path d="M53.36 54.54C53.36 55.2359 52.7959 55.8 52.1 55.8C51.4041 55.8 50.84 55.2359 50.84 54.54C50.84 53.8441 51.4041 53.28 52.1 53.28C52.7959 53.28 53.36 53.8441 53.36 54.54Z" stroke="url(#paint9_angular_807_118)" stroke-width="1.2"/>
<path d="M58.4 65.46C58.4 66.1559 57.8359 66.72 57.14 66.72C56.4441 66.72 55.88 66.1559 55.88 65.46C55.88 64.7641 56.4441 64.2 57.14 64.2C57.8359 64.2 58.4 64.7641 58.4 65.46Z" stroke="url(#paint10_angular_807_118)" stroke-width="1.2"/>
<path d="M76.04 64.62C76.04 65.7798 75.0998 66.72 73.94 66.72C72.7802 66.72 71.84 65.7798 71.84 64.62C71.84 63.4602 72.7802 62.52 73.94 62.52C75.0998 62.52 76.04 63.4602 76.04 64.62Z" stroke="url(#paint11_angular_807_118)" stroke-width="1.2"/>
<path d="M85.28 52.02C85.28 53.1798 84.3398 54.12 83.18 54.12C82.0202 54.12 81.08 53.1798 81.08 52.02C81.08 50.8602 82.0202 49.92 83.18 49.92C84.3398 49.92 85.28 50.8602 85.28 52.02Z" stroke="url(#paint12_angular_807_118)" stroke-width="1.2"/>
<path d="M44.12 73.86C44.12 75.0198 43.1798 75.96 42.02 75.96C40.8602 75.96 39.92 75.0198 39.92 73.86C39.92 72.7002 40.8602 71.76 42.02 71.76C43.1798 71.76 44.12 72.7002 44.12 73.86Z" stroke="url(#paint13_angular_807_118)" stroke-width="1.2"/>
<path d="M43.28 63.36C43.28 64.2878 42.5278 65.04 41.6 65.04C40.6722 65.04 39.92 64.2878 39.92 63.36C39.92 62.4322 40.6722 61.68 41.6 61.68C42.5278 61.68 43.28 62.4322 43.28 63.36Z" stroke="url(#paint14_angular_807_118)" stroke-width="1.2"/>
<path d="M18.08 49.92C18.08 50.8478 17.3278 51.6 16.4 51.6C15.4722 51.6 14.72 50.8478 14.72 49.92C14.72 48.9922 15.4722 48.24 16.4 48.24C17.3278 48.24 18.08 48.9922 18.08 49.92Z" stroke="url(#paint15_angular_807_118)" stroke-width="1.2"/>
<path d="M22.28 59.16C22.28 60.0878 21.5278 60.84 20.6 60.84C19.6722 60.84 18.92 60.0878 18.92 59.16C18.92 58.2322 19.6722 57.48 20.6 57.48C21.5278 57.48 22.28 58.2322 22.28 59.16Z" stroke="url(#paint16_angular_807_118)" stroke-width="1.2"/>
<path d="M34.88 69.24C34.88 69.7039 34.5039 70.08 34.04 70.08C33.5761 70.08 33.2 69.7039 33.2 69.24C33.2 68.7761 33.5761 68.4 34.04 68.4C34.5039 68.4 34.88 68.7761 34.88 69.24Z" stroke="url(#paint17_angular_807_118)" stroke-width="1.2"/>
<path d="M68.48 61.68C68.48 62.1439 68.1039 62.52 67.64 62.52C67.1761 62.52 66.8 62.1439 66.8 61.68C66.8 61.2161 67.1761 60.84 67.64 60.84C68.1039 60.84 68.48 61.2161 68.48 61.68Z" stroke="url(#paint18_angular_807_118)" stroke-width="1.2"/>
<path d="M65.96 70.92C65.96 71.3839 65.5839 71.76 65.12 71.76C64.6561 71.76 64.28 71.3839 64.28 70.92C64.28 70.4561 64.6561 70.08 65.12 70.08C65.5839 70.08 65.96 70.4561 65.96 70.92Z" stroke="url(#paint19_angular_807_118)" stroke-width="1.2"/>
<path d="M35.72 49.92C35.72 50.3839 35.3439 50.76 34.88 50.76C34.4161 50.76 34.04 50.3839 34.04 49.92C34.04 49.4561 34.4161 49.08 34.88 49.08C35.3439 49.08 35.72 49.4561 35.72 49.92Z" stroke="url(#paint20_angular_807_118)" stroke-width="1.2"/>
<path d="M72.68 55.8C72.68 56.2639 72.3039 56.64 71.84 56.64C71.3761 56.64 71 56.2639 71 55.8C71 55.3361 71.3761 54.96 71.84 54.96C72.3039 54.96 72.68 55.3361 72.68 55.8Z" stroke="url(#paint21_angular_807_118)" stroke-width="1.2"/>
<path d="M74.36 48.24C74.36 48.7039 73.9839 49.08 73.52 49.08C73.0561 49.08 72.68 48.7039 72.68 48.24C72.68 47.7761 73.0561 47.4 73.52 47.4C73.9839 47.4 74.36 47.7761 74.36 48.24Z" stroke="url(#paint22_angular_807_118)" stroke-width="1.2"/>
<defs>
<radialGradient id="paint0_angular_807_118" cx="0" cy="0" r="1" gradientUnits="userSpaceOnUse" gradientTransform="translate(50 50.3412) rotate(90) scale(32.3412 42)">
<stop stop-color="#1039A5"/>
<stop offset="0.286458" stop-color="#2FA3FF"/>
<stop offset="0.526042" stop-color="#00EFFF"/>
<stop offset="0.744792" stop-color="#2592FF"/>
<stop offset="1" stop-color="#163992"/>
</radialGradient>
<radialGradient id="paint1_angular_807_118" cx="0" cy="0" r="1" gradientUnits="userSpaceOnUse" gradientTransform="translate(50 62.52) rotate(90) scale(15.12 35.28)">
<stop stop-color="#1039A5"/>
<stop offset="0.286458" stop-color="#2FA3FF"/>
<stop offset="0.526042" stop-color="#00EFFF"/>
<stop offset="0.744792" stop-color="#2592FF"/>
<stop offset="1" stop-color="#163992"/>
</radialGradient>
<radialGradient id="paint2_angular_807_118" cx="0" cy="0" r="1" gradientUnits="userSpaceOnUse" gradientTransform="translate(50 62.52) rotate(90) scale(15.12 35.28)">
<stop stop-color="#1039A5"/>
<stop offset="0.286458" stop-color="#2FA3FF"/>
<stop offset="0.526042" stop-color="#00EFFF"/>
<stop offset="0.744792" stop-color="#2592FF"/>
<stop offset="1" stop-color="#163992"/>
</radialGradient>
<radialGradient id="paint3_angular_807_118" cx="0" cy="0" r="1" gradientUnits="userSpaceOnUse" gradientTransform="translate(50 62.52) rotate(90) scale(15.12 35.28)">
<stop stop-color="#1039A5"/>
<stop offset="0.286458" stop-color="#2FA3FF"/>
<stop offset="0.526042" stop-color="#00EFFF"/>
<stop offset="0.744792" stop-color="#2592FF"/>
<stop offset="1" stop-color="#163992"/>
</radialGradient>
<radialGradient id="paint4_angular_807_118" cx="0" cy="0" r="1" gradientUnits="userSpaceOnUse" gradientTransform="translate(50 62.52) rotate(90) scale(15.12 35.28)">
<stop stop-color="#1039A5"/>
<stop offset="0.286458" stop-color="#2FA3FF"/>
<stop offset="0.526042" stop-color="#00EFFF"/>
<stop offset="0.744792" stop-color="#2592FF"/>
<stop offset="1" stop-color="#163992"/>
</radialGradient>
<radialGradient id="paint5_angular_807_118" cx="0" cy="0" r="1" gradientUnits="userSpaceOnUse" gradientTransform="translate(50 62.52) rotate(90) scale(15.12 35.28)">
<stop stop-color="#1039A5"/>
<stop offset="0.286458" stop-color="#2FA3FF"/>
<stop offset="0.526042" stop-color="#00EFFF"/>
<stop offset="0.744792" stop-color="#2592FF"/>
<stop offset="1" stop-color="#163992"/>
</radialGradient>
<radialGradient id="paint6_angular_807_118" cx="0" cy="0" r="1" gradientUnits="userSpaceOnUse" gradientTransform="translate(50 62.52) rotate(90) scale(15.12 35.28)">
<stop stop-color="#1039A5"/>
<stop offset="0.286458" stop-color="#2FA3FF"/>
<stop offset="0.526042" stop-color="#00EFFF"/>
<stop offset="0.744792" stop-color="#2592FF"/>
<stop offset="1" stop-color="#163992"/>
</radialGradient>
<radialGradient id="paint7_angular_807_118" cx="0" cy="0" r="1" gradientUnits="userSpaceOnUse" gradientTransform="translate(50 62.52) rotate(90) scale(15.12 35.28)">
<stop stop-color="#1039A5"/>
<stop offset="0.286458" stop-color="#2FA3FF"/>
<stop offset="0.526042" stop-color="#00EFFF"/>
<stop offset="0.744792" stop-color="#2592FF"/>
<stop offset="1" stop-color="#163992"/>
</radialGradient>
<radialGradient id="paint8_angular_807_118" cx="0" cy="0" r="1" gradientUnits="userSpaceOnUse" gradientTransform="translate(50 62.52) rotate(90) scale(15.12 35.28)">
<stop stop-color="#1039A5"/>
<stop offset="0.286458" stop-color="#2FA3FF"/>
<stop offset="0.526042" stop-color="#00EFFF"/>
<stop offset="0.744792" stop-color="#2592FF"/>
<stop offset="1" stop-color="#163992"/>
</radialGradient>
<radialGradient id="paint9_angular_807_118" cx="0" cy="0" r="1" gradientUnits="userSpaceOnUse" gradientTransform="translate(50 62.52) rotate(90) scale(15.12 35.28)">
<stop stop-color="#1039A5"/>
<stop offset="0.286458" stop-color="#2FA3FF"/>
<stop offset="0.526042" stop-color="#00EFFF"/>
<stop offset="0.744792" stop-color="#2592FF"/>
<stop offset="1" stop-color="#163992"/>
</radialGradient>
<radialGradient id="paint10_angular_807_118" cx="0" cy="0" r="1" gradientUnits="userSpaceOnUse" gradientTransform="translate(50 62.52) rotate(90) scale(15.12 35.28)">
<stop stop-color="#1039A5"/>
<stop offset="0.286458" stop-color="#2FA3FF"/>
<stop offset="0.526042" stop-color="#00EFFF"/>
<stop offset="0.744792" stop-color="#2592FF"/>
<stop offset="1" stop-color="#163992"/>
</radialGradient>
<radialGradient id="paint11_angular_807_118" cx="0" cy="0" r="1" gradientUnits="userSpaceOnUse" gradientTransform="translate(50 62.52) rotate(90) scale(15.12 35.28)">
<stop stop-color="#1039A5"/>
<stop offset="0.286458" stop-color="#2FA3FF"/>
<stop offset="0.526042" stop-color="#00EFFF"/>
<stop offset="0.744792" stop-color="#2592FF"/>
<stop offset="1" stop-color="#163992"/>
</radialGradient>
<radialGradient id="paint12_angular_807_118" cx="0" cy="0" r="1" gradientUnits="userSpaceOnUse" gradientTransform="translate(50 62.52) rotate(90) scale(15.12 35.28)">
<stop stop-color="#1039A5"/>
<stop offset="0.286458" stop-color="#2FA3FF"/>
<stop offset="0.526042" stop-color="#00EFFF"/>
<stop offset="0.744792" stop-color="#2592FF"/>
<stop offset="1" stop-color="#163992"/>
</radialGradient>
<radialGradient id="paint13_angular_807_118" cx="0" cy="0" r="1" gradientUnits="userSpaceOnUse" gradientTransform="translate(50 62.52) rotate(90) scale(15.12 35.28)">
<stop stop-color="#1039A5"/>
<stop offset="0.286458" stop-color="#2FA3FF"/>
<stop offset="0.526042" stop-color="#00EFFF"/>
<stop offset="0.744792" stop-color="#2592FF"/>
<stop offset="1" stop-color="#163992"/>
</radialGradient>
<radialGradient id="paint14_angular_807_118" cx="0" cy="0" r="1" gradientUnits="userSpaceOnUse" gradientTransform="translate(50 62.52) rotate(90) scale(15.12 35.28)">
<stop stop-color="#1039A5"/>
<stop offset="0.286458" stop-color="#2FA3FF"/>
<stop offset="0.526042" stop-color="#00EFFF"/>
<stop offset="0.744792" stop-color="#2592FF"/>
<stop offset="1" stop-color="#163992"/>
</radialGradient>
<radialGradient id="paint15_angular_807_118" cx="0" cy="0" r="1" gradientUnits="userSpaceOnUse" gradientTransform="translate(50 62.52) rotate(90) scale(15.12 35.28)">
<stop stop-color="#1039A5"/>
<stop offset="0.286458" stop-color="#2FA3FF"/>
<stop offset="0.526042" stop-color="#00EFFF"/>
<stop offset="0.744792" stop-color="#2592FF"/>
<stop offset="1" stop-color="#163992"/>
</radialGradient>
<radialGradient id="paint16_angular_807_118" cx="0" cy="0" r="1" gradientUnits="userSpaceOnUse" gradientTransform="translate(50 62.52) rotate(90) scale(15.12 35.28)">
<stop stop-color="#1039A5"/>
<stop offset="0.286458" stop-color="#2FA3FF"/>
<stop offset="0.526042" stop-color="#00EFFF"/>
<stop offset="0.744792" stop-color="#2592FF"/>
<stop offset="1" stop-color="#163992"/>
</radialGradient>
<radialGradient id="paint17_angular_807_118" cx="0" cy="0" r="1" gradientUnits="userSpaceOnUse" gradientTransform="translate(50 62.52) rotate(90) scale(15.12 35.28)">
<stop stop-color="#1039A5"/>
<stop offset="0.286458" stop-color="#2FA3FF"/>
<stop offset="0.526042" stop-color="#00EFFF"/>
<stop offset="0.744792" stop-color="#2592FF"/>
<stop offset="1" stop-color="#163992"/>
</radialGradient>
<radialGradient id="paint18_angular_807_118" cx="0" cy="0" r="1" gradientUnits="userSpaceOnUse" gradientTransform="translate(50 62.52) rotate(90) scale(15.12 35.28)">
<stop stop-color="#1039A5"/>
<stop offset="0.286458" stop-color="#2FA3FF"/>
<stop offset="0.526042" stop-color="#00EFFF"/>
<stop offset="0.744792" stop-color="#2592FF"/>
<stop offset="1" stop-color="#163992"/>
</radialGradient>
<radialGradient id="paint19_angular_807_118" cx="0" cy="0" r="1" gradientUnits="userSpaceOnUse" gradientTransform="translate(50 62.52) rotate(90) scale(15.12 35.28)">
<stop stop-color="#1039A5"/>
<stop offset="0.286458" stop-color="#2FA3FF"/>
<stop offset="0.526042" stop-color="#00EFFF"/>
<stop offset="0.744792" stop-color="#2592FF"/>
<stop offset="1" stop-color="#163992"/>
</radialGradient>
<radialGradient id="paint20_angular_807_118" cx="0" cy="0" r="1" gradientUnits="userSpaceOnUse" gradientTransform="translate(50 62.52) rotate(90) scale(15.12 35.28)">
<stop stop-color="#1039A5"/>
<stop offset="0.286458" stop-color="#2FA3FF"/>
<stop offset="0.526042" stop-color="#00EFFF"/>
<stop offset="0.744792" stop-color="#2592FF"/>
<stop offset="1" stop-color="#163992"/>
</radialGradient>
<radialGradient id="paint21_angular_807_118" cx="0" cy="0" r="1" gradientUnits="userSpaceOnUse" gradientTransform="translate(50 62.52) rotate(90) scale(15.12 35.28)">
<stop stop-color="#1039A5"/>
<stop offset="0.286458" stop-color="#2FA3FF"/>
<stop offset="0.526042" stop-color="#00EFFF"/>
<stop offset="0.744792" stop-color="#2592FF"/>
<stop offset="1" stop-color="#163992"/>
</radialGradient>
<radialGradient id="paint22_angular_807_118" cx="0" cy="0" r="1" gradientUnits="userSpaceOnUse" gradientTransform="translate(50 62.52) rotate(90) scale(15.12 35.28)">
<stop stop-color="#1039A5"/>
<stop offset="0.286458" stop-color="#2FA3FF"/>
<stop offset="0.526042" stop-color="#00EFFF"/>
<stop offset="0.744792" stop-color="#2592FF"/>
<stop offset="1" stop-color="#163992"/>
</radialGradient>
</defs>
</svg>
